<svg width="64" height="64" viewBox="0 0 64 64" fill="none" xmlns="http://www.w3.org/2000/svg">
<circle cx="32" cy="32" r="32" fill="#E3D5FA"/>
<path d="M42.8125 21.8125L38.1875 17.1875C37.3958 16.3958 36.4375 16 35.3125 16H24C22.875 16.0417 21.9375 16.4375 21.1875 17.1875C20.4375 17.9375 20.0417 18.875 20 20V44C20.0417 45.125 20.4375 46.0625 21.1875 46.8125C21.9375 47.5625 22.875 47.9583 24 48H40C41.125 47.9583 42.0625 47.5625 42.8125 46.8125C43.5625 46.0625 43.9583 45.125 44 44V24.6875C44 23.5625 43.6042 22.6042 42.8125 21.8125ZM41 44C40.9583 44.625 40.625 44.9583 40 45H24C23.375 44.9583 23.0417 44.625 23 44V20C23.0417 19.4167 23.375 19.0833 24 19H34V24C34 24.5833 34.1875 25.0625 34.5625 25.4375C34.9375 25.8125 35.4167 26 36 26H40.9375V44H41ZM25.9375 38.5625C25.8125 38.6875 25.7292 38.8333 25.6875 39L25 42.5C25 42.8333 25.1667 43 25.5 43L29 42.3125C29.1667 42.2708 29.3125 42.1875 29.4375 42.0625L35.5625 35.9375L32.0625 32.4375L25.9375 38.5625ZM33.4375 31.0625L36.9375 34.5625L38.5 33C38.8333 32.6667 39 32.25 39 31.75C39 31.2917 38.8333 30.8958 38.5 30.5625L37.4375 29.5C37.1042 29.1667 36.7083 29 36.25 29C35.75 29 35.3333 29.1667 35 29.5L33.4375 31.0625Z" fill="#752DE8"/>
</svg>
