<svg width="64" height="64" viewBox="0 0 64 64" fill="none" xmlns="http://www.w3.org/2000/svg">
<circle cx="32" cy="32" r="32" fill="#CCF6E6"/>
<path d="M42.8125 21.8125L38.1875 17.1875C37.3958 16.3958 36.4375 16 35.3125 16H24C22.875 16.0417 21.9375 16.4375 21.1875 17.1875C20.4375 17.9375 20.0417 18.875 20 20V44C20.0417 45.125 20.4375 46.0625 21.1875 46.8125C21.9375 47.5625 22.875 47.9583 24 48H40C41.125 47.9583 42.0625 47.5625 42.8125 46.8125C43.5625 46.0625 43.9583 45.125 44 44V24.6875C44 23.5625 43.6042 22.6042 42.8125 21.8125ZM41 44C40.9583 44.625 40.625 44.9583 40 45H24C23.375 44.9583 23.0417 44.625 23 44V20C23.0417 19.4167 23.375 19.0833 24 19H34V24C34 24.5833 34.1875 25.0625 34.5625 25.4375C34.9375 25.8125 35.4167 26 36 26H40.9375V44H41ZM26 33.5C26.0833 34.4167 26.5833 34.9167 27.5 35H36.5C37.4167 34.9167 37.9167 34.4167 38 33.5C37.9167 32.5833 37.4167 32.0833 36.5 32H27.5C26.5833 32.0833 26.0833 32.5833 26 33.5ZM36.5 38H27.5C26.5833 38.0833 26.0833 38.5833 26 39.5C26.0833 40.4167 26.5833 40.9167 27.5 41H36.5C37.4167 40.9167 37.9167 40.4167 38 39.5C37.9167 38.5833 37.4167 38.0833 36.5 38Z" fill="#00D084"/>
</svg>
