<svg width="40" height="56" viewBox="0 0 40 56" fill="none" xmlns="http://www.w3.org/2000/svg">
<g filter="url(#filter0_d_61_67693)">
<path d="M31.9385 5.18554C31.9385 5.44981 31.7243 5.66404 31.46 5.66404H25.247C24.0379 5.66804 24.0831 7.54005 25.247 7.52905H31.46C31.7243 7.52905 31.9385 7.74329 31.9385 8.00756C31.9385 8.27182 31.7243 8.48606 31.46 8.48606H25.247C24.0446 8.47506 24.0889 10.3461 25.247 10.3511H31.4495C31.7196 10.3511 31.9385 10.57 31.9385 10.8401C31.9385 11.1101 31.7196 11.3291 31.4495 11.3291H25.247C24.0446 11.3291 24.0889 13.1991 25.247 13.1941H31.4725C31.7299 13.1941 31.9385 13.4027 31.9385 13.6601C31.9385 13.9175 31.7299 14.1261 31.4725 14.1261H25.247C24.0697 14.1351 24.0889 16.0071 25.247 16.0131H31.4715C31.7294 16.0131 31.9385 16.2222 31.9385 16.4801C31.9385 16.738 31.7294 16.9471 31.4715 16.9471H25.247C24.0697 16.9431 24.0649 18.8121 25.247 18.8121H31.4725C31.7299 18.8121 31.9385 19.0208 31.9385 19.2781C31.9385 19.5355 31.7299 19.7441 31.4725 19.7441H25.247C24.0697 19.7481 24.0649 21.6192 25.247 21.6102H31.461C31.7247 21.6102 31.9385 21.8239 31.9385 22.0877C31.9385 22.3514 31.7247 22.5652 31.461 22.5652H25.247C24.0697 22.5542 24.0649 24.4232 25.247 24.4302H31.4735C31.7303 24.4302 31.9385 24.6384 31.9385 24.8952C31.9385 25.152 31.7303 25.3602 31.4735 25.3602H25.247C24.0697 25.3592 24.0889 27.2322 25.247 27.2262H29.9385C31.0431 27.2262 31.9385 28.1216 31.9385 29.2262V45.3853C31.9424 48.1523 35.9884 48.1023 36 45.3853V2.89002C35.9884 1.62601 34.9892 0.0280002 33.345 0.0230002H25.247C24.0379 0.0240002 24.0831 1.89601 25.247 1.88801L31.4743 1.90942C31.7309 1.9103 31.9385 2.11859 31.9385 2.37522C31.9385 2.63247 31.73 2.84102 31.4727 2.84102H25.247C24.0398 2.83502 24.0851 4.70603 25.247 4.70703H31.46C31.7243 4.70703 31.9385 4.92127 31.9385 5.18554ZM24.7869 37.8583C24.7842 35.6369 23.259 33.3001 21.0541 32.7892C19.5497 32.4406 17.7093 31.4634 17.7093 29.9192V21.0501L15.2189 0.675005C15.1669 0.136001 14.727 0.00900006 14.4315 0C14.1263 0.00900006 13.515 0.136001 13.4486 0.675005L10.9707 21.0501V29.9192C10.9707 31.4634 9.12715 32.4336 7.62663 32.7984C5.46551 33.3239 4.00066 35.6521 4 37.8333C4.00096 40.6653 6.09958 42.9913 8.93944 42.9843C11.8005 42.9913 13.8587 40.3843 13.8587 37.8333V25.4815C13.8587 25.2157 14.0742 25.0002 14.34 25.0002C14.6058 25.0002 14.8213 25.2157 14.8213 25.4815V37.8333C14.8213 39.9085 15.9456 41.5919 17.468 42.4087C18.4198 42.9194 19.2854 43.8036 19.4896 44.8642C19.705 45.9826 20.1149 47.0679 20.6955 47.6233C21.7814 48.6633 23.0743 47.3333 22.5438 46.2503C22.1201 45.4163 21.7029 44.8636 21.8028 43.4509C21.8478 42.8145 22.2941 42.3017 22.8019 41.9155C24.0175 40.9913 24.7837 39.5303 24.7869 37.8583ZM9.04919 40.3993C8.40005 40.3993 7.7775 40.1314 7.31849 39.6546C6.85948 39.1778 6.60161 38.5311 6.60161 37.8568C6.60161 37.1824 6.85948 36.5357 7.31849 36.0589C7.7775 35.5821 8.40005 35.3142 9.04919 35.3142C10.3834 35.3222 11.4703 36.4593 11.4799 37.8583C11.4772 38.5285 11.2207 39.1708 10.7659 39.6462C10.311 40.1217 9.69441 40.3922 9.04919 40.3993ZM17.3002 37.8583C17.3024 37.1874 17.5588 36.5444 18.0139 36.0683C18.4689 35.5922 19.0861 35.3213 19.7319 35.3142C20.3779 35.3203 20.9956 35.5909 21.4507 36.0672C21.9058 36.5435 22.1616 37.1871 22.1626 37.8583C22.1616 38.5291 21.9057 39.1724 21.4505 39.6482C20.9953 40.1241 20.3777 40.394 19.7319 40.3993C19.0863 40.3932 18.469 40.1231 18.0138 39.6474C17.5586 39.1718 17.3022 38.529 17.3002 37.8583Z" fill="white"/>
</g>
<defs>
<filter id="filter0_d_61_67693" x="0" y="0" width="40" height="56" filterUnits="userSpaceOnUse" color-interpolation-filters="sRGB">
<feFlood flood-opacity="0" result="BackgroundImageFix"/>
<feColorMatrix in="SourceAlpha" type="matrix" values="0 0 0 0 0 0 0 0 0 0 0 0 0 0 0 0 0 0 127 0" result="hardAlpha"/>
<feOffset dy="4"/>
<feGaussianBlur stdDeviation="2"/>
<feComposite in2="hardAlpha" operator="out"/>
<feColorMatrix type="matrix" values="0 0 0 0 0 0 0 0 0 0 0 0 0 0 0 0 0 0 0.1 0"/>
<feBlend mode="normal" in2="BackgroundImageFix" result="effect1_dropShadow_61_67693"/>
<feBlend mode="normal" in="SourceGraphic" in2="effect1_dropShadow_61_67693" result="shape"/>
</filter>
</defs>
</svg>
