<svg width="47" height="28" viewBox="0 0 47 28" fill="none" xmlns="http://www.w3.org/2000/svg">
<path d="M16 27C17.0609 27 18.0783 26.5786 18.8284 25.8284C19.5786 25.0783 20 24.0609 20 23C20 21.9391 19.5786 20.9217 18.8284 20.1716C18.0783 19.4214 17.0609 19 16 19C14.9391 19 13.9217 19.4214 13.1716 20.1716C12.4214 20.9217 12 21.9391 12 23C12 24.0609 12.4214 25.0783 13.1716 25.8284C13.9217 26.5786 14.9391 27 16 27V27ZM36 27C37.0609 27 38.0783 26.5786 38.8284 25.8284C39.5786 25.0783 40 24.0609 40 23C40 21.9391 39.5786 20.9217 38.8284 20.1716C38.0783 19.4214 37.0609 19 36 19C34.9391 19 33.9217 19.4214 33.1716 20.1716C32.4214 20.9217 32 21.9391 32 23C32 24.0609 32.4214 25.0783 33.1716 25.8284C33.9217 26.5786 34.9391 27 36 27V27Z" stroke="white" stroke-width="1.5" stroke-miterlimit="1.5" stroke-linecap="round" stroke-linejoin="round"/>
<path d="M11.3 23H7.2C7.04241 23 6.88637 22.969 6.74078 22.9087C6.59519 22.8484 6.4629 22.76 6.35147 22.6485C6.24004 22.5371 6.15165 22.4048 6.09134 22.2592C6.03104 22.1136 6 21.9576 6 21.8V12M20.1 23H30V2.2C30 1.88174 29.8736 1.57652 29.6485 1.35147C29.4235 1.12643 29.1183 1 28.8 1H2L20.1 23Z" stroke="white" stroke-width="1.5" stroke-linecap="round"/>
<path d="M4 7H12" stroke="white" stroke-width="1.5" stroke-linecap="round" stroke-linejoin="round"/>
<path d="M30 23H32M30 7H41.22C41.452 7.00006 41.6789 7.06734 41.8734 7.1937C42.0679 7.32006 42.2217 7.50009 42.316 7.712L45.896 15.768C45.9642 15.921 45.9996 16.0865 46 16.254V21.8C46 21.9576 45.969 22.1136 45.9087 22.2592C45.8484 22.4048 45.76 22.5371 45.6485 22.6485C45.5371 22.76 45.4048 22.8484 45.2592 22.9087C45.1136 22.969 44.9576 23 44.8 23H41L30 7Z" stroke="white" stroke-width="1.5" stroke-linecap="round"/>
</svg>
