<svg width="48" height="48" viewBox="0 0 48 48" fill="none" xmlns="http://www.w3.org/2000/svg">
<path d="M44.0504 14.5745L44.8736 13.2161C44.8736 13.2161 45.5984 12.0145 45.5984 10.4009C45.5984 6.49204 41.8688 6.59525 41.8688 6.59525L33.7432 4.38323L29.3104 0L23.4776 1.58801L21.5648 1.06721L20.1112 2.50482L11.7136 4.79123C11.7136 4.79123 8.4816 4.70243 8.4816 8.08965C8.4816 9.48806 9.1104 10.5297 9.1104 10.5297L10.1912 12.3137L9.2416 13.2513L4.5536 14.5281C4.5536 14.5281 0.824 14.4249 0.824 18.3337C0.831459 19.2444 1.04449 20.1417 1.4472 20.9585L0 22.3898L0.7592 22.6906C0.776 22.7314 0.7824 22.777 0.8152 22.8098C2.2832 24.281 2.1624 26.257 1.9528 27.3242L1.0656 28.213L7.7864 31.4442L17.0168 46.6803C18.496 49.0051 21.636 47.5507 21.636 47.5507L45.3552 36.1458L44.468 35.257C44.2584 34.1898 44.1376 32.2138 45.6056 30.7418C45.6384 30.709 45.6448 30.6634 45.6616 30.6234L46.4208 30.3218L42.0104 25.9618L47.0744 23.5274L46.3056 22.757C46.124 21.8321 46.0192 20.1193 47.292 18.8441C47.32 18.8153 47.3248 18.7769 47.34 18.7409L48 18.4793L44.0504 14.5745ZM39.5024 7.50645L38.5024 9.08886L35.9152 6.53044L39.5024 7.50645ZM29.7408 4.11523L33.4552 8.08566L20.024 12.9393L16.852 8.01445L29.7408 4.11523ZM10.9952 13.6417L20.1608 28.7706L2.6992 21.8441L10.9952 13.6417ZM7.1752 15.2953L6.0992 16.3593L5.6688 15.6993L7.1752 15.2953ZM3.7776 16.1225L4.7792 17.6641L2.6088 19.8097C2.43803 19.3362 2.3485 18.8371 2.344 18.3337C2.344 16.8729 3.0688 16.3169 3.7776 16.1225ZM2.5232 28.021L2.5352 27.9746L22.6528 36.7803L2.6928 27.265C2.7112 27.157 2.7256 27.0378 2.7408 26.9178L18.3672 33.4618L2.7952 26.169C2.79917 25.8357 2.77616 25.5026 2.7264 25.173L17.1896 31.129L2.532 24.3202C2.43791 24.005 2.31193 23.7002 2.156 23.4106L22.0624 31.9106L22.5152 32.6578C23.4488 34.125 25.1424 33.8538 25.996 33.5994C27.176 34.1818 29.2912 35.529 28.7496 37.5139C28.464 38.5635 27.836 39.0723 26.8304 39.0723C25.812 39.0723 24.7952 38.5395 24.7848 38.5323L2.5232 28.021ZM22.56 38.5483L20.9872 39.1995L19.6512 37.1491L22.56 38.5483ZM16.4688 42.8531L10.2856 32.6458L16.4312 35.6002L19.3376 40.0739C18.1656 40.5747 16.856 41.7179 16.4688 42.8531ZM43.6952 33.1058C43.6455 33.4354 43.6225 33.7685 43.6264 34.1018L28.0544 41.3947L43.6808 34.8506C43.696 34.9698 43.7096 35.0898 43.7288 35.1978L23.7688 44.7139L43.8864 35.9082C43.8909 35.9236 43.8949 35.9391 43.8984 35.9546L21.6368 46.4643C21.6264 46.4715 20.6112 47.0043 19.5912 47.0043C18.5848 47.0043 17.9576 46.4947 17.672 45.4459C16.9376 42.7523 21.1136 41.2251 21.176 41.2019L24.836 39.6403C25.2288 39.8075 28.0312 40.9075 29.4048 38.7483L30.2712 37.3195L44.2664 31.3434C44.1106 31.6332 43.9843 31.9379 43.8896 32.253L29.232 39.0619L43.6952 33.1058ZM43.7224 29.777L31.8624 34.6922L35.1536 29.2594L40.5672 26.657L43.7224 29.777ZM45.6368 20.8913C45.5942 21.1771 45.5742 21.4657 45.5768 21.7545L32.0824 28.0746L45.6248 22.4034C45.6384 22.5066 45.6496 22.6114 45.6664 22.7042L28.3672 30.9506L45.8024 23.3194C45.8066 23.3325 45.8101 23.3458 45.8128 23.3594L26.5192 32.469C26.5104 32.4746 25.6296 32.937 24.7464 32.937C23.8736 32.937 23.3304 32.4946 23.0832 31.5858C22.4464 29.2514 26.0656 27.9282 26.12 27.9082L46.1312 19.3641C45.9963 19.6154 45.8872 19.8797 45.8056 20.1529L33.1016 26.0538L45.6368 20.8913Z" fill="white"/>
</svg>
