<svg width="40" height="40" viewBox="0 0 40 40" fill="none" xmlns="http://www.w3.org/2000/svg">
<path d="M1.13281 38.278C2.38881 37.856 3.64581 37.443 5.35981 36.761C7.06481 36.088 9.22781 35.146 10.7898 34.347C12.3518 33.548 13.3028 32.893 14.4158 32.238C15.6077 31.699 16.6448 30.8689 17.4318 29.824C17.9596 28.6929 18.1704 27.4396 18.0418 26.198C17.998 25.5853 17.8955 24.9782 17.7358 24.385C17.5922 23.7892 17.5922 23.1678 17.7358 22.572C17.9158 22.016 18.3648 21.621 17.1358 19.557C15.9068 17.493 13.0058 13.75 12.9078 13.211C12.7998 12.673 15.5018 15.338 17.1348 17.142C18.7688 18.937 19.3338 19.889 19.8548 20.158C19.9514 20.2193 20.0638 20.2512 20.1782 20.2497C20.2926 20.2483 20.4042 20.2136 20.4992 20.1499C20.5943 20.0863 20.6688 19.9963 20.7136 19.891C20.7585 19.7857 20.7717 19.6697 20.7518 19.557C20.6978 19.072 20.1318 18.515 20.4198 17.986C20.9812 17.3674 21.7388 16.9616 22.5648 16.837C22.8103 16.7629 23.0746 16.7825 23.3065 16.8918C23.5385 17.0011 23.7217 17.1925 23.8208 17.429C24.0808 17.887 24.3328 18.542 24.0808 18.946C23.8208 19.359 23.0758 19.512 22.5738 19.88C22.0708 20.239 21.8108 20.813 22.1968 20.804C22.5918 20.795 23.6328 20.203 24.6828 19.853C25.5781 19.6039 26.486 19.403 27.4028 19.251C28.0038 19.108 28.1658 18.928 29.2068 18.65C30.3906 18.3208 31.6062 18.1193 32.8328 18.049C33.4698 18.103 32.7968 18.587 31.9258 18.946C31.0558 19.314 29.9878 19.566 29.2058 19.853C28.4358 20.149 27.9418 20.49 27.0978 20.759C26.1618 20.9648 25.25 21.2688 24.3778 21.666C23.7138 22.096 23.5878 22.752 23.1758 23.479C22.7638 24.206 22.0628 24.995 22.0268 25.597C21.9818 26.197 22.5918 26.602 22.8708 27.104C23.1498 27.606 23.1038 28.199 23.5168 28.657C24.2535 29.2262 25.0478 29.7165 25.8868 30.12C26.9718 30.784 28.2558 31.753 29.1618 32.211C30.0768 32.669 30.6068 32.597 31.5938 33.064C32.7963 33.7783 34.047 34.4081 35.3368 34.949C36.6738 35.37 37.9038 35.209 38.3248 35.532C38.7458 35.855 38.3608 36.662 37.6518 36.878C36.8746 36.999 36.0796 36.8398 35.4088 36.429C34.9058 36.133 34.9418 35.899 33.9908 35.532C33.0478 35.164 31.1278 34.67 29.2158 33.962C27.2958 33.252 25.3928 32.346 23.7768 31.932C22.4942 31.5724 21.1374 31.5724 19.8548 31.932C19.0127 32.2633 18.2019 32.6689 17.4318 33.144C16.6688 33.512 15.8068 33.746 14.7218 34.347C13.4839 35.1799 12.1673 35.8893 10.7908 36.465C9.26481 36.977 7.53281 37.013 6.56381 37.372C5.59481 37.731 5.39681 38.404 5.05581 38.574C4.71481 38.744 4.22081 38.413 3.54781 38.278C2.74614 38.1744 1.93448 38.1744 1.13281 38.278V38.278Z" stroke="white" stroke-linecap="round" stroke-linejoin="round"/>
<path d="M1.00803 20.7945C0.935162 18.2887 1.35888 15.7933 2.25478 13.452C3.15067 11.1107 4.50102 8.96983 6.22802 7.15278C7.95503 5.33572 10.0245 3.87838 12.3173 2.86473C14.6101 1.85108 17.0807 1.30117 19.587 1.24668C22.0932 1.19219 24.5855 1.63419 26.9201 2.54723C29.2548 3.46026 31.3857 4.82628 33.19 6.56655C34.9944 8.30683 36.4365 10.387 37.4333 12.6871C38.4301 14.9872 38.9619 17.4619 38.998 19.9685C39.0047 20.2438 39.0047 20.5191 38.998 20.7945" stroke="white" stroke-linecap="round" stroke-linejoin="round"/>
</svg>
