<svg width="24" height="24" viewBox="0 0 24 24" fill="none" xmlns="http://www.w3.org/2000/svg">
<path d="M12.2734 3.125C9.66927 3.07292 7.40365 3.95833 5.47656 5.78125C3.60156 7.63021 2.65104 9.88281 2.625 12.5391C2.67708 14.9089 3.44531 16.9531 4.92969 18.6719C6.38802 20.3906 8.28906 21.4583 10.6328 21.875C10.6589 21.875 10.6979 21.875 10.75 21.875C11.2448 21.849 11.5573 21.5885 11.6875 21.0938C11.7135 20.5208 11.4531 20.1562 10.9062 20C9.03125 19.6875 7.50781 18.8411 6.33594 17.4609C5.13802 16.0807 4.52604 14.4401 4.5 12.5391C4.52604 10.4297 5.29427 8.61979 6.80469 7.10938C8.3151 5.65104 10.125 4.94792 12.2344 5C14.2917 5.13021 15.9974 5.9375 17.3516 7.42188C18.7318 8.90625 19.4479 10.7292 19.5 12.8906V13.6328C19.5 14.1276 19.3307 14.5443 18.9922 14.8828C18.6797 15.1953 18.276 15.3646 17.7812 15.3906C17.2865 15.3646 16.8828 15.1953 16.5703 14.8828C16.2318 14.5443 16.0625 14.1276 16.0625 13.6328V9.10156C16.0104 8.52865 15.6979 8.22917 15.125 8.20312C14.6302 8.22917 14.3307 8.48958 14.2266 8.98438C13.4974 8.41146 12.651 8.125 11.6875 8.125C10.4375 8.15104 9.40885 8.58073 8.60156 9.41406C7.76823 10.2214 7.33854 11.237 7.3125 12.4609C7.33854 13.6849 7.76823 14.7005 8.60156 15.5078C9.40885 16.3411 10.4375 16.7708 11.6875 16.7969C12.9115 16.7708 13.9401 16.3542 14.7734 15.5469C15.4505 16.5885 16.4531 17.1354 17.7812 17.1875C18.7969 17.1615 19.6432 16.8099 20.3203 16.1328C20.9974 15.4557 21.349 14.6094 21.375 13.5938V12.8906C21.349 11.1198 20.9323 9.51823 20.125 8.08594C19.3177 6.6276 18.237 5.45573 16.8828 4.57031C15.5026 3.65885 13.9661 3.17708 12.2734 3.125ZM11.6875 15C10.9844 14.974 10.3984 14.7266 9.92969 14.2578C9.46094 13.7891 9.21354 13.2161 9.1875 12.5391C9.21354 11.8359 9.46094 11.25 9.92969 10.7812C10.3984 10.3125 10.9844 10.0781 11.6875 10.0781C12.3906 10.1042 12.9766 10.3385 13.4453 10.7812C13.9141 11.25 14.1615 11.8359 14.1875 12.5391C14.1615 13.2161 13.9141 13.7891 13.4453 14.2578C12.9766 14.7266 12.3906 14.974 11.6875 15Z" fill="white"/>
</svg>
