<svg width="38" height="42" viewBox="0 0 38 42" fill="none" xmlns="http://www.w3.org/2000/svg">
<path d="M11.6023 19.4031C9.48061 19.4031 7.44578 18.5603 5.94549 17.06C4.4452 15.5597 3.60234 13.5249 3.60234 11.4031V5.00312C3.60234 4.57878 3.77092 4.17181 4.07097 3.87175C4.37103 3.5717 4.778 3.40312 5.20234 3.40312H6.80234C7.22669 3.40312 7.63366 3.23455 7.93371 2.9345C8.23377 2.63444 8.40234 2.22747 8.40234 1.80312C8.40234 1.37878 8.23377 0.971812 7.93371 0.671754C7.63366 0.371696 7.22669 0.203125 6.80234 0.203125H5.20234C3.9293 0.203125 2.70841 0.708838 1.80823 1.60901C0.908057 2.50919 0.402344 3.73009 0.402344 5.00312V11.4031C0.4044 13.2107 0.845179 14.9908 1.68682 16.5905C2.52847 18.1901 3.74582 19.5616 5.23434 20.5871C6.66447 21.848 7.82428 23.3855 8.64376 25.107C9.46324 26.8284 9.9254 28.6981 10.0023 30.6031C10.0023 33.5735 11.1823 36.4223 13.2827 38.5227C15.3832 40.6231 18.2319 41.8031 21.2023 41.8031C24.1728 41.8031 27.0215 40.6231 29.1219 38.5227C31.2223 36.4223 32.4023 33.5735 32.4023 30.6031V28.7791C33.9106 28.3897 35.225 27.4636 36.0993 26.1743C36.9736 24.8851 37.3476 23.3212 37.1513 21.7759C36.9551 20.2306 36.2019 18.8099 35.0331 17.7802C33.8643 16.7505 32.3601 16.1824 30.8023 16.1824C29.2446 16.1824 27.7404 16.7505 26.5716 17.7802C25.4028 18.8099 24.6496 20.2306 24.4534 21.7759C24.2571 23.3212 24.6311 24.8851 25.5054 26.1743C26.3796 27.4636 27.6941 28.3897 29.2023 28.7791V30.6031C29.2023 32.7249 28.3595 34.7597 26.8592 36.26C25.3589 37.7603 23.3241 38.6031 21.2023 38.6031C19.0806 38.6031 17.0458 37.7603 15.5455 36.26C14.0452 34.7597 13.2023 32.7249 13.2023 30.6031C13.2833 28.6958 13.7505 26.8246 14.5755 25.103C15.4006 23.3814 16.5664 21.8451 18.0023 20.5871C19.485 19.5581 20.6961 18.185 21.532 16.5856C22.368 14.9861 22.8039 13.2079 22.8023 11.4031V5.00312C22.8023 3.73009 22.2966 2.50919 21.3965 1.60901C20.4963 0.708838 19.2754 0.203125 18.0023 0.203125H16.4023C15.978 0.203125 15.571 0.371696 15.271 0.671754C14.9709 0.971812 14.8023 1.37878 14.8023 1.80312C14.8023 2.22747 14.9709 2.63444 15.271 2.9345C15.571 3.23455 15.978 3.40312 16.4023 3.40312H18.0023C18.4267 3.40312 18.8337 3.5717 19.1337 3.87175C19.4338 4.17181 19.6023 4.57878 19.6023 5.00312V11.4031C19.6023 12.4537 19.3954 13.494 18.9934 14.4646C18.5913 15.4352 18.0021 16.3171 17.2592 17.06C16.5163 17.8028 15.6344 18.3921 14.6638 18.7942C13.6932 19.1962 12.6529 19.4031 11.6023 19.4031ZM30.8023 25.8031C29.9537 25.8031 29.1397 25.466 28.5396 24.8659C27.9395 24.2657 27.6023 23.4518 27.6023 22.6031C27.6023 21.7544 27.9395 20.9405 28.5396 20.3404C29.1397 19.7403 29.9537 19.4031 30.8023 19.4031C31.651 19.4031 32.465 19.7403 33.0651 20.3404C33.6652 20.9405 34.0023 21.7544 34.0023 22.6031C34.0023 23.4518 33.6652 24.2657 33.0651 24.8659C32.465 25.466 31.651 25.8031 30.8023 25.8031Z" fill="white"/>
</svg>
