<svg width="31" height="48" viewBox="0 0 31 48" fill="none" xmlns="http://www.w3.org/2000/svg">
<path fill-rule="evenodd" clip-rule="evenodd" d="M12.6481 25.7227L0.503561 1.74556C0.43379 1.60782 0.390548 1.45701 0.376304 1.30174C0.36206 1.14646 0.377093 0.989758 0.420543 0.840579C0.508297 0.5393 0.706476 0.286951 0.971486 0.139046C1.2365 -0.0088587 1.54663 -0.0402038 1.83366 0.0519063C1.97578 0.0975146 2.10795 0.172059 2.22262 0.271284C2.3373 0.370508 2.43223 0.49247 2.502 0.630205L14.6477 24.6073L16.37 23.6452C16.895 23.3522 17.4697 23.1707 18.0615 23.111C18.6533 23.0512 19.2505 23.1145 19.819 23.297C20.3875 23.4796 20.9162 23.7779 21.3748 24.1749C21.8335 24.5719 22.2131 25.0599 22.4921 25.611L23.2254 27.0578L30.9985 39.0012L14.874 48L9.78739 34.5564L9.05523 33.1096C8.77611 32.5587 8.60311 31.9555 8.54612 31.3343C8.48912 30.7132 8.54924 30.0864 8.72305 29.4897C8.89685 28.893 9.18094 28.338 9.55909 27.8566C9.93723 27.3751 10.402 26.9765 10.9269 26.6836L12.6493 25.7227H12.6481ZM11.9884 28.7813L17.4315 25.744C17.6939 25.5975 17.9813 25.5068 18.2771 25.4768C18.573 25.4469 18.8716 25.4785 19.1558 25.5697C19.4401 25.6609 19.7044 25.81 19.9338 26.0085C20.1631 26.2069 20.353 26.4509 20.4925 26.7264L21.2258 28.1719L11.7847 33.441L11.0525 31.9943C10.913 31.7188 10.8265 31.4172 10.798 31.1066C10.7695 30.7961 10.7995 30.4827 10.8864 30.1843C10.9734 29.8859 11.1154 29.6085 11.3045 29.3677C11.4935 29.127 11.7259 28.9277 11.9884 28.7813ZM12.9276 36.4212L16.043 44.6563L18.1184 43.4982L15.6684 38.4916L17.6827 37.4059L20.118 42.3829L27.7021 38.1495L22.9402 30.8326L12.9276 36.4212Z" fill="white"/>
</svg>
