<svg width="33" height="38" viewBox="0 0 33 38" fill="none" xmlns="http://www.w3.org/2000/svg">
<path d="M24.94 18.5C26.3 18.5 27.38 17.42 27.38 16.06C27.38 14.72 26.3 13.62 24.94 13.62C23.58 13.62 22.5 14.72 22.5 16.06C22.5 17.42 23.6 18.5 24.94 18.5ZM5.62 16.06C5.62 17.4 6.7 18.5 8.06 18.5C9.42 18.5 10.5 17.42 10.5 16.06C10.5 14.72 9.42 13.62 8.06 13.62C6.7 13.62 5.62 14.72 5.62 16.06ZM7.72 2.5L5.06 10.5H27.92L25.26 2.5H7.72ZM25.06 0.5C25.06 0.5 26.14 0.52 26.9 1.58C26.94 1.62 26.96 1.66 27 1.72C27.14 1.94 27.28 2.2 27.38 2.52C27.82 3.82 30.5 11.88 30.5 11.88V24.88C30.5 25.78 29.8 26.5 28.94 26.5H28.06C27.2 26.5 26.5 25.78 26.5 24.88V22.5H6.5V24.88C6.5 25.78 5.8 26.5 4.94 26.5H4.06C3.2 26.5 2.5 25.78 2.5 24.88V11.88C2.5 11.88 5.18 3.84 5.6 2.5C5.7 2.18 5.84 1.94 5.98 1.7C6.04 1.66 6.06 1.62 6.1 1.58C6.86 0.52 7.94 0.5 7.94 0.5H25.06ZM0.5 28.52H32.5V32.5H18.5V38.5H14.5V32.5H0.5V28.52Z" fill="white"/>
</svg>
