<svg width="44" height="42" viewBox="0 0 44 42" fill="none" xmlns="http://www.w3.org/2000/svg">
<path d="M25.06 0.898438L22.9 3.05844L26.1 6.25844C26.54 6.75844 26.76 7.33844 26.76 7.99844C26.76 8.65844 26.54 9.27844 26.1 9.71844L19 16.9384L21 19.0984L28.26 11.8784C29.32 10.6984 29.84 9.39844 29.84 7.99844C29.84 6.59844 29.32 5.27844 28.26 4.09844L25.06 0.898438ZM17.1 4.93844L14.94 7.09844L16.16 8.21844C16.6 8.65844 16.82 9.25844 16.82 9.99844C16.82 10.7384 16.6 11.3384 16.16 11.7784L14.94 12.8984L17.1 15.0584L18.22 13.8384C19.28 12.6584 19.82 11.3784 19.82 9.99844C19.82 8.55844 19.28 7.25844 18.22 6.05844L17.1 4.93844ZM38 8.11844C36.62 8.11844 35.34 8.65844 34.16 9.71844L22.9 20.9984L25.06 22.9984L36.22 11.8784C36.72 11.3784 37.32 11.1184 38 11.1184C38.68 11.1184 39.28 11.3784 39.78 11.8784L41 13.0984L43.06 10.9384L41.94 9.71844C40.76 8.65844 39.44 8.11844 38 8.11844ZM10 13.9984L0 41.9984L28 31.9984L10 13.9984ZM34 20.1184C32.6 20.1184 31.32 20.6584 30.12 21.7184L26.94 24.8984L29.1 27.0584L32.28 23.8784C32.78 23.3784 33.34 23.1184 34 23.1184C34.66 23.1184 35.26 23.3784 35.76 23.8784L39 27.0584L41.1 24.9984L37.9 21.7184C36.72 20.6584 35.4 20.1184 34 20.1184Z" fill="white"/>
</svg>
