<svg width="55" height="48" viewBox="0 0 55 48" fill="none" xmlns="http://www.w3.org/2000/svg">
<path d="M51.6562 29.25C50.1562 28.0625 48.625 27.5625 47.0625 27.75C45.5625 27.9375 44.3438 28.375 43.4062 29.0625L37.6875 33.375H37.4062C37.4062 31.5625 36.8125 30.0625 35.625 28.875C34.375 27.6875 32.8438 27.0625 31.0312 27H17.5312C14.7812 27 12.3125 27.8125 10.125 29.4375L7.5 31.5H2.25C0.875 31.625 0.125 32.375 0 33.75C0.125 35.125 0.875 35.875 2.25 36H9L12.8438 33.0938C14.2188 32.0312 15.7812 31.5 17.5312 31.5H31.0312C32.3438 31.6875 33 32.3125 33 33.375C33 34.5 32.3125 35.125 30.9375 35.25H25.3125C24.5 35.375 24.0625 35.8125 24 36.5625C24.0625 37.375 24.5 37.8125 25.3125 37.875H37.875C38.8125 37.875 39.6562 37.5938 40.4062 37.0312L46.2188 32.7188C47.0938 32.0938 47.9688 32.0938 48.8438 32.7188C49.3438 33.1562 49.5625 33.6562 49.5 34.2188C49.5 34.7188 49.25 35.1875 48.75 35.625L39.2812 42.6562C38.5938 43.2188 37.7812 43.5 36.8438 43.5H2.25C0.875 43.625 0.125 44.375 0 45.75C0.125 47.125 0.875 47.875 2.25 48H36.8438C38.7812 48 40.5 47.4375 42 46.3125L51.4688 39.1875C53.0312 37.9375 53.875 36.3125 54 34.3125C54.0625 32.3125 53.2812 30.625 51.6562 29.25ZM26.1562 16.4062C25.4062 16.2812 24.5938 16.0312 23.7188 15.6562L23.25 15.4688C21.9375 15.1563 20.9688 15.5937 20.3438 16.7812C20.0312 18.2188 20.4688 19.2188 21.6562 19.7812L22.125 19.875C22.9375 20.1875 23.7812 20.4688 24.6562 20.7188V21.75C24.7812 23.125 25.5312 23.875 26.9062 24C28.2812 23.875 29.0312 23.125 29.1562 21.75V20.8125C31.6562 20.1875 33.0938 18.75 33.4688 16.5C33.7188 14.1875 33.125 12.5625 31.6875 11.625C30.1875 10.6875 28.7812 10.0938 27.4688 9.84375L27 9.65625C25.875 9.34375 25.2188 9.0625 25.0312 8.8125C24.7812 8.625 24.6875 8.4375 24.75 8.25C25.0625 7.625 26.0938 7.40625 27.8438 7.59375C28.2812 7.65625 28.875 7.8125 29.625 8.0625C31 8.4375 31.9688 8 32.5312 6.75C32.8438 5.375 32.375 4.40625 31.125 3.84375C30.4375 3.59375 29.8125 3.40625 29.25 3.28125V2.25C29.125 0.875 28.375 0.125 27 0C25.625 0.125 24.875 0.875 24.75 2.25V3.28125C22.3125 3.84375 20.8125 5.25 20.25 7.5C20.0625 9.75 20.6875 11.3438 22.125 12.2812C23.5 13.2188 24.7188 13.7812 25.7812 13.9688L26.3438 14.1562C27.7812 14.5938 28.6562 14.9062 28.9688 15.0938C29.2188 15.2812 29.3125 15.5 29.25 15.75C28.9375 16.375 27.9062 16.5938 26.1562 16.4062Z" fill="#38C675"/>
</svg>
