<svg width="60" height="49" viewBox="0 0 60 49" fill="none" xmlns="http://www.w3.org/2000/svg">
<path d="M27.9375 23.1562C28.5 23.7188 29.1875 24 30 24C30.8125 24 31.5 23.7188 32.0625 23.1562L41.1562 14.0625C41.7188 13.5 42 12.8125 42 12C42 11.25 41.7188 10.5625 41.1562 9.9375L32.0625 0.84375C31.5 0.28125 30.8125 0 30 0C29.1875 0 28.5 0.28125 27.9375 0.84375L18.8438 9.9375C18.2812 10.5 18 11.1875 18 12C18 12.8125 18.2812 13.5 18.8438 14.0625L27.9375 23.1562ZM54 9C51.875 8.875 50.125 9.46875 48.75 10.7812C47.3125 12.0312 46.5625 13.6875 46.5 15.75V22.875C45.375 22.125 44.125 21.75 42.75 21.75C40.5625 21.8125 38.7812 22.6875 37.4062 24.375L30.6562 33.0938C30.4688 33.4062 30.2812 33.7188 30.0938 34.0312C30.0938 34.0938 30.0625 34.125 30 34.125C29.9375 34.125 29.9062 34.0938 29.9062 34.0312C29.7188 33.7188 29.5312 33.4062 29.3438 33.0938L22.5938 24.375C21.2188 22.6875 19.4375 21.8125 17.25 21.75C15.875 21.75 14.625 22.125 13.5 22.875V15.75C13.4375 13.6875 12.6875 12.0312 11.25 10.7812C9.875 9.46875 8.15625 8.875 6.09375 9C4.28125 9.25 2.8125 10.0625 1.6875 11.4375C0.625 12.75 0.0625 14.3438 0 16.2188V33.9375C0 36.375 0.78125 38.5625 2.34375 40.5L7.40625 47.1562C8.34375 48.1562 9.375 48.2812 10.5 47.5312C11.5625 46.5938 11.6875 45.5312 10.875 44.3438L5.8125 37.6875C4.9375 36.5625 4.5 35.3125 4.5 33.9375V15.8438C4.5625 14.5938 5.15625 13.8125 6.28125 13.5C7.03125 13.4375 7.65625 13.625 8.15625 14.0625C8.71875 14.5 9 15.0625 9 15.75C9 15.8125 9 16.6562 9 18.2812C9 19.9062 9 21.6875 9 23.625C9 25.5625 9 27.0938 9 28.2188C9 28.9062 9.25 29.5312 9.75 30.0938L16.9688 38.8125C17.4062 39.3125 17.9375 39.5625 18.5625 39.5625C19.125 39.5625 19.625 39.3438 20.0625 38.9062C20.75 38.0312 20.75 37.125 20.0625 36.1875L15.4688 29.9062C14.7188 28.7188 14.8438 27.6562 15.8438 26.7188C16.2812 26.4062 16.75 26.25 17.25 26.25C17.9375 26.25 18.5312 26.5312 19.0312 27.0938L25.7812 35.9062C26.5938 36.9688 27 38.1562 27 39.4688V45C27 45.8125 27.2812 46.5 27.8438 47.0625C28.4062 47.625 29.125 47.9375 30 48C30.8125 47.9375 31.5312 47.625 32.1562 47.0625C32.7188 46.5 33 45.8125 33 45V39.4688C33 38.2188 33.4062 37.0312 34.2188 35.9062L40.9688 27.0938C41.4688 26.5312 42.0625 26.25 42.75 26.25C43.25 26.25 43.7188 26.4062 44.1562 26.7188C45.1562 27.6562 45.2812 28.7188 44.5312 29.9062L39.8438 36.1875C39.2188 37.125 39.25 38.0312 39.9375 38.9062C40.375 39.3438 40.875 39.5625 41.4375 39.5625C42.0625 39.5625 42.5938 39.3125 43.0312 38.8125L50.25 30.0938C50.75 29.5312 51 28.9062 51 28.2188C51 27.0938 51 25.5625 51 23.625C51 21.6875 51 19.9062 51 18.2812C51 16.6562 51 15.8125 51 15.75C51 15 51.2812 14.4063 51.8438 13.9688C52.3438 13.5938 52.9688 13.4375 53.7188 13.5C54.8438 13.8125 55.4375 14.5938 55.5 15.8438V33.9375C55.5 35.3125 55.0625 36.5625 54.1875 37.6875L49.125 44.3438C48.3125 45.4688 48.4375 46.5312 49.5 47.5312C50.625 48.2812 51.6562 48.1562 52.5938 47.1562L57.75 40.5C59.25 38.5625 60 36.375 60 33.9375V16.2188C59.9375 14.3438 59.375 12.75 58.3125 11.4375C57.1875 10.0625 55.75 9.25 54 9Z" fill="#F98900"/>
</svg>
