<svg width="60" height="30" viewBox="0 0 60 30" fill="none" xmlns="http://www.w3.org/2000/svg">
<path d="M45 0H35.25C33.875 0.125 33.125 0.875 33 2.25C33.125 3.625 33.875 4.375 35.25 4.5H45C48 4.5625 50.4688 5.59375 52.4062 7.59375C54.4062 9.53125 55.4375 12 55.5 15C55.4375 18 54.4062 20.4688 52.4062 22.4062C50.4688 24.4062 48 25.4375 45 25.5H35.25C33.875 25.625 33.125 26.375 33 27.75C33.125 29.125 33.875 29.875 35.25 30H45C49.25 29.875 52.7812 28.4062 55.5938 25.5938C58.4062 22.7812 59.875 19.25 60 15C59.875 10.75 58.4062 7.21875 55.5938 4.40625C52.7812 1.59375 49.25 0.125 45 0ZM24.75 25.5H15C12 25.4375 9.53125 24.4062 7.59375 22.4062C5.59375 20.4688 4.5625 18 4.5 15C4.5625 12 5.59375 9.53125 7.59375 7.59375C9.53125 5.59375 12 4.5625 15 4.5H24.75C26.125 4.375 26.875 3.625 27 2.25C26.875 0.875 26.125 0.125 24.75 0H15C10.75 0.125 7.21875 1.59375 4.40625 4.40625C1.59375 7.21875 0.125 10.75 0 15C0.125 19.25 1.59375 22.7812 4.40625 25.5938C7.21875 28.4062 10.75 29.875 15 30H24.75C26.125 29.875 26.875 29.125 27 27.75C26.875 26.375 26.125 25.625 24.75 25.5ZM18 15C18.125 16.375 18.875 17.125 20.25 17.25H39.75C41.125 17.125 41.875 16.375 42 15C41.875 13.625 41.125 12.875 39.75 12.75H20.25C18.875 12.875 18.125 13.625 18 15Z" fill="#3EAEFF"/>
</svg>
