<svg width="81" height="80" viewBox="0 0 81 80" fill="none" xmlns="http://www.w3.org/2000/svg">
<path d="M14.0054 69.9975C13.8227 69.9968 13.6466 69.9212 13.511 69.7851C13.3754 69.649 13.2896 69.462 13.2703 69.26V69.2575L10.5276 38.3375L10.5254 38.26C10.5254 37.805 10.8559 37.4375 11.265 37.4375H29.7732V70L14.0054 69.9975ZM21.5588 61.835V61.8375C21.5588 62.4808 21.7303 63.1096 22.0517 63.6445C22.3731 64.1794 22.8299 64.5962 23.3643 64.8424C23.8987 65.0886 24.4868 65.153 25.0541 65.0275C25.6214 64.902 26.1426 64.5922 26.5516 64.1374C26.9606 63.6825 27.2392 63.103 27.352 62.472C27.4649 61.8411 27.407 61.1871 27.1856 60.5928C26.9642 59.9985 26.5894 59.4905 26.1084 59.1331C25.6274 58.7758 25.062 58.585 24.4835 58.585H24.479C22.8627 58.585 21.5543 60.04 21.5521 61.8375L21.5588 61.835ZM22.6379 41.835C22.6379 42.2875 22.9683 42.655 23.3775 42.655H25.095C25.2905 42.655 25.4781 42.5686 25.6164 42.4148C25.7547 42.261 25.8323 42.0525 25.8323 41.835C25.8323 41.6175 25.7547 41.409 25.6164 41.2552C25.4781 41.1014 25.2905 41.015 25.095 41.015H23.364C23.1678 41.015 22.9797 41.1017 22.841 41.2559C22.7023 41.4102 22.6244 41.6194 22.6244 41.8375V41.845L22.6379 41.835ZM14.5224 41.835C14.5224 42.2875 14.8529 42.655 15.2598 42.655H20.8911C21.0867 42.655 21.2742 42.5686 21.4125 42.4148C21.5508 42.261 21.6285 42.0525 21.6285 41.835C21.6285 41.6175 21.5508 41.409 21.4125 41.2552C21.2742 41.1014 21.0867 41.015 20.8911 41.015H15.2463C15.0507 41.015 14.8632 41.1014 14.7249 41.2552C14.5866 41.409 14.5089 41.6175 14.5089 41.835V41.8425L14.5224 41.835ZM36.5533 65.305C36.1571 65.1562 35.7828 64.9431 35.4427 64.6725L35.4562 64.6825L35.2314 64.525C34.7078 64.1597 34.1906 63.7829 33.6803 63.395L33.4532 63.2175C33.1565 62.98 33.0171 62.875 32.8642 62.885C32.3247 62.8975 31.7852 62.9025 31.2456 62.91V40.0225L31.2164 38.0975C32.2303 37.38 33.1655 36.6975 33.4465 36.4375C33.8286 35.5825 34.2063 34.8675 34.6244 34.1825L34.5862 34.25C34.7773 33.9175 34.9684 33.5875 35.1437 33.26L39.0194 26.025C39.1992 25.685 39.3948 25.345 39.5904 25.005C39.9164 24.465 40.2625 23.82 40.5795 23.155L40.6335 23.0325C40.8111 22.6287 40.873 22.1741 40.8111 21.73L40.8133 21.7425L40.7998 13.9425C40.9415 12.8075 41.517 11.8475 42.3285 11.2625L42.342 11.2525C43.0655 10.5278 43.9836 10.0885 44.9542 10.0025H44.97L45.1116 10C45.8782 10 46.602 10.2025 47.245 10.56L47.218 10.545C47.6474 10.775 48.0138 11.02 48.3578 11.295L48.3353 11.2775L48.5736 11.4525C49.1154 11.77 49.52 12.305 49.6998 12.9525L49.7043 12.97C50.1247 14.71 50.5091 16.2925 50.8666 17.88L51.015 18.5275C51.242 19.3775 51.4376 20.405 51.5635 21.4575L51.5747 21.5625C51.1903 25.4975 50.4507 29.0875 49.3806 32.5075L49.475 32.1625L66.7693 32.135H66.8322C67.3561 32.1351 67.874 32.2591 68.3516 32.4988C68.8291 32.7385 69.2553 33.0885 69.6018 33.5254C69.9484 33.9624 70.2074 34.4763 70.3617 35.0332C70.5159 35.59 70.5619 36.1769 70.4965 36.755L70.4988 36.735C70.5472 37.6084 70.3867 38.4805 70.0337 39.2626C69.6807 40.0446 69.1477 40.7088 68.489 41.1875L68.471 41.2C69.1019 42.2258 69.3971 43.4613 69.3073 44.7V44.6825C69.3861 45.6641 69.1805 46.648 68.7206 47.4905C68.2608 48.3329 67.5707 48.9897 66.7513 49.365L66.7243 49.375C67.2272 50.372 67.4606 51.5091 67.3965 52.65V52.635C67.4454 53.4896 67.2862 54.343 66.9357 55.1055C66.5852 55.8679 66.0563 56.5112 65.4047 56.9675L65.3867 56.98C65.8459 58.1235 66.0198 59.3834 65.8903 60.6275L65.8925 60.595V61.065C65.8603 61.6808 65.7167 62.2829 65.4703 62.8355C65.2239 63.3881 64.8798 63.8797 64.4586 64.281C64.0373 64.6822 63.5476 64.9848 63.0188 65.1706C62.4899 65.3565 61.9328 65.4217 61.3807 65.3625L61.3964 65.365H51.4398L51.4061 65.3675L51.3701 65.365H51.3724H38.0864C37.9718 65.365 37.8526 65.365 37.7268 65.385C37.5739 65.395 37.412 65.41 37.2457 65.41H37.212C36.9849 65.4102 36.7588 65.3766 36.5398 65.31L36.5578 65.315L36.5533 65.305ZM23.0313 61.8375C23.0314 61.6272 23.0688 61.419 23.1413 61.2248C23.2138 61.0306 23.32 60.8542 23.4538 60.7056C23.5876 60.557 23.7464 60.4392 23.9212 60.3589C24.0959 60.2786 24.2832 60.2373 24.4723 60.2375C24.6614 60.2377 24.8486 60.2792 25.0232 60.3599C25.1978 60.4405 25.3565 60.5586 25.4901 60.7074C25.6237 60.8562 25.7296 61.0328 25.8018 61.2271C25.8741 61.4215 25.9112 61.6297 25.911 61.84C25.9107 62.2647 25.7587 62.6718 25.4885 62.9719C25.2183 63.2719 24.8519 63.4403 24.47 63.44C24.0881 63.4397 23.722 63.2706 23.4522 62.9701C23.1824 62.6696 23.031 62.2622 23.0313 61.8375Z" fill="white"/>
</svg>
