<svg width="76" height="49" viewBox="0 0 76 49" fill="none" xmlns="http://www.w3.org/2000/svg">
<path d="M59.3203 9.38281C58.2266 8.05469 56.4688 6.53125 54.0469 4.8125C51.625 3.01563 48.5781 1.76562 44.9062 1.0625C42.1719 0.75 39.7109 1.45312 37.5234 3.17188C35.3359 1.53125 32.875 0.867187 30.1406 1.17969C26.9375 1.72656 24.2031 2.74219 21.9375 4.22656C19.6719 5.71094 17.9141 7.11719 16.6641 8.44531C15.4141 9.85156 14.75 10.6328 14.6719 10.7891C13.7344 12.2734 13.9297 13.6016 15.2578 14.7734C15.7266 15.0859 16.2734 15.2422 16.8984 15.2422C17.8359 15.2422 18.5781 14.8906 19.125 14.1875C19.2031 13.875 20.2969 12.7422 22.4062 10.7891C24.5156 8.83594 27.3672 7.46875 30.9609 6.6875C31.8203 6.60937 32.6406 6.80469 33.4219 7.27344L26.625 14.1875C25.1406 15.6719 24.3594 17.5078 24.2812 19.6953C24.2812 21.8047 25.0234 23.6016 26.5078 25.0859C28.1484 26.4922 29.9844 27.1953 32.0156 27.1953C34.125 27.1953 35.9609 26.4531 37.5234 24.9688L38.8125 23.6797L53.3438 35.3984C53.6562 35.7109 53.6953 36.0234 53.4609 36.3359L50.1797 40.5547C49.9453 40.8672 49.6719 40.9062 49.3594 40.6719L46.7812 38.5625L43.7344 41.7266C43.3438 42.0391 43.0703 42.1953 42.9141 42.1953C42.6797 42.2734 42.4062 42.1953 42.0938 41.9609L38.2266 38.7969L36.4688 40.4375L36.1172 40.7891C35.4141 41.6484 34.5156 42.1562 33.4219 42.3125C32.25 42.3906 31.2734 42.1172 30.4922 41.4922L19.9453 32H11.2734V9.5H0.0234375V39.5H7.52344C8.92969 39.4219 9.98438 38.7969 10.6875 37.625H17.8359L26.8594 45.7109C28.6562 47.1953 30.6875 47.9375 32.9531 47.9375C33.2656 47.9375 33.5781 47.9375 33.8906 47.9375C35.5312 47.7031 37.0156 47.1562 38.3438 46.2969L38.4609 46.4141C39.9453 47.5859 41.625 48.0938 43.5 47.9375C45.0625 47.7031 46.3516 47.0781 47.3672 46.0625C48.6953 46.5312 49.9844 46.6094 51.2344 46.2969C52.5625 45.9844 53.6953 45.2812 54.6328 44.1875L57.7969 39.9688C58.8906 38.5625 59.3594 37.0391 59.2031 35.3984C59.0469 33.7578 58.3047 32.3516 56.9766 31.1797L42.7969 19.6953L43.8516 18.7578C44.9453 17.4297 44.9453 16.1016 43.8516 14.7734C42.5234 13.6797 41.1953 13.6797 39.8672 14.7734L33.5391 21.1016C32.5234 21.8828 31.5469 21.8828 30.6094 21.1016C30.2188 20.7109 30.0234 20.2031 30.0234 19.5781C30.0234 19.0312 30.2188 18.5625 30.6094 18.1719L40.6875 7.85938C41.7031 6.92188 42.8359 6.53125 44.0859 6.6875C47.6797 7.46875 50.5312 8.83594 52.6406 10.7891C54.75 12.7422 55.8438 13.875 55.9219 14.1875C56.3125 14.6562 56.7812 14.9688 57.3281 15.125H63.7734V35.6328C63.7734 36.7266 64.125 37.625 64.8281 38.3281C65.5312 39.0312 66.3906 39.3828 67.4062 39.3828L75.0234 39.5V9.5L59.3203 9.38281ZM5.64844 35.75C4.47656 35.6719 3.85156 35.0469 3.77344 33.875C3.85156 32.7031 4.47656 32.0781 5.64844 32C6.82031 32.0781 7.44531 32.7031 7.52344 33.875C7.44531 35.0469 6.82031 35.6719 5.64844 35.75ZM69.3984 35.75C68.2266 35.6719 67.6016 35.0469 67.5234 33.875C67.6016 32.7031 68.2266 32.0781 69.3984 32C70.5703 32.0781 71.1953 32.7031 71.2734 33.875C71.1953 35.0469 70.5703 35.6719 69.3984 35.75Z" fill="white"/>
</svg>
