<svg width="61" height="67" viewBox="0 0 61 67" fill="none" xmlns="http://www.w3.org/2000/svg">
<path d="M28.8186 66.5156C29.7986 67.039 31.0286 67.0356 32.0086 66.5123C58.7152 52.1656 60.6119 24.1356 60.5886 16.1656C60.586 15.5251 60.3968 14.8991 60.0439 14.3645C59.691 13.8299 59.1899 13.4098 58.6019 13.1556L31.7686 1.26898C31.3415 1.08074 30.8799 0.983804 30.4132 0.984378C29.9465 0.984952 29.4851 1.08302 29.0586 1.27231L2.41191 13.159C1.83256 13.4133 1.33853 13.8287 0.988666 14.3559C0.638801 14.8831 0.447855 15.4997 0.438574 16.1323C0.325241 24.0623 1.92191 52.1523 28.8186 66.5156ZM19.4386 28.3123L27.0819 35.9556L41.3919 21.6456L46.1052 26.359L27.0819 45.3823L14.7252 33.0256L19.4386 28.3123Z" fill="white"/>
</svg>
