<svg width="15" height="9" viewBox="0 0 15 9" fill="none" xmlns="http://www.w3.org/2000/svg">
<path d="M0 1.5C0 1.16146 0.117188 0.861979 0.351563 0.601563C0.611979 0.367188 0.911458 0.25 1.25 0.25C1.58854 0.25 1.88802 0.367188 2.14844 0.601563L7.5 5.99219L12.8516 0.601562C13.112 0.367188 13.4115 0.25 13.75 0.25C14.0885 0.25 14.388 0.367188 14.6484 0.601562C14.8828 0.861979 15 1.16146 15 1.5C15 1.83854 14.8828 2.13802 14.6484 2.39844L8.39844 8.64844C8.13802 8.88281 7.83854 9 7.5 9C7.16146 9 6.86198 8.88281 6.60156 8.64844L0.351563 2.39844C0.117188 2.13802 0 1.83854 0 1.5Z" fill="#ADB5BD"/>
</svg>
