<svg width="64" height="64" viewBox="0 0 64 64" fill="none" xmlns="http://www.w3.org/2000/svg">
<circle cx="32" cy="32" r="32" fill="#CDE9F9"/>
<path d="M32 16C35 16.0417 37.6875 16.7708 40.0625 18.1875C42.4792 19.6042 44.3958 21.5208 45.8125 23.9375C47.2292 26.3125 47.9583 29 48 32C47.9583 35 47.2292 37.6875 45.8125 40.0625C44.3958 42.4792 42.4792 44.3958 40.0625 45.8125C37.6875 47.2292 35 47.9583 32 48C29 47.9583 26.3125 47.2292 23.9375 45.8125C21.5208 44.3958 19.6042 42.4792 18.1875 40.0625C16.7708 37.6875 16.0417 35 16 32C16.0417 29 16.7708 26.3125 18.1875 23.9375C19.6042 21.5208 21.5208 19.6042 23.9375 18.1875C26.3125 16.7708 29 16.0417 32 16ZM32 45C32.25 45.0417 32.6458 44.8542 33.1875 44.4375C33.6875 44.0625 34.2917 43.25 35 42C35.5 40.875 35.9583 39.5417 36.375 38H27.625C28 39.5417 28.4583 40.875 29 42C29.6667 43.25 30.2708 44.0625 30.8125 44.4375C31.3542 44.8542 31.75 45.0417 32 45ZM27.1875 35H36.875C36.9583 34.0417 37 33.0417 37 32C37 30.9583 36.9583 29.9583 36.875 29H27.1875C27.0625 29.9583 27 30.9583 27 32C27 33.0417 27.0625 34.0417 27.1875 35ZM36.375 26C35.9583 24.4583 35.5 23.125 35 22C34.2917 20.75 33.6875 19.9375 33.1875 19.5625C32.6458 19.1458 32.25 18.9583 32 19C31.75 18.9583 31.3542 19.1458 30.8125 19.5625C30.2708 19.9375 29.6667 20.75 29 22C28.4583 23.125 28 24.4583 27.625 26H36.375ZM39.875 29C39.9583 29.9583 40 30.9583 40 32C40 33.0417 39.9583 34.0417 39.875 35H44.625C44.875 34.0417 45 33.0417 45 32C45 30.9583 44.875 29.9583 44.625 29H39.875ZM37.375 20.1875C38.25 21.8125 38.9375 23.75 39.4375 26H43.5625C42.1458 23.375 40.0833 21.4375 37.375 20.1875ZM26.625 20.1875C23.9167 21.4375 21.8542 23.375 20.4375 26H24.5625C25.0625 23.75 25.75 21.8125 26.625 20.1875ZM19 32C19 33.0417 19.125 34.0417 19.375 35H24.125C24.0417 34.0417 24 33.0417 24 32C24 30.9583 24.0417 29.9583 24.125 29H19.375C19.125 29.9583 19 30.9583 19 32ZM43.5625 38H39.4375C38.9792 40.25 38.2917 42.1875 37.375 43.8125C40.0833 42.5625 42.1458 40.625 43.5625 38ZM24.5625 38H20.4375C21.8542 40.625 23.9167 42.5625 26.625 43.8125C25.75 42.1875 25.0625 40.25 24.5625 38Z" fill="#0693E3"/>
</svg>
