<svg width="22" height="17" viewBox="0 0 22 17" fill="none" xmlns="http://www.w3.org/2000/svg">
<path d="M21.0195 7.61719C20.0352 5.4375 18.6641 3.69141 16.9062 2.37891C15.1484 1.06641 13.1797 0.398438 11 0.375C8.82031 0.398438 6.85156 1.06641 5.09375 2.37891C3.33594 3.69141 1.96484 5.4375 0.980469 7.61719C0.910156 7.82812 0.875 8.03906 0.875 8.25C0.875 8.46094 0.910156 8.66016 0.980469 8.84766C1.96484 11.0508 3.33594 12.8086 5.09375 14.1211C6.85156 15.4336 8.82031 16.1016 11 16.125C13.1797 16.1016 15.1484 15.4336 16.9062 14.1211C18.6641 12.8086 20.0352 11.0625 21.0195 8.88281C21.0898 8.64844 21.125 8.4375 21.125 8.25C21.125 8.03906 21.0898 7.82812 21.0195 7.61719ZM11 14.4375C9.21875 14.4141 7.58984 13.8633 6.11328 12.7852C4.63672 11.6836 3.45312 10.1836 2.5625 8.28516C3.45312 6.33984 4.63672 4.81641 6.11328 3.71484C7.58984 2.63672 9.21875 2.08594 11 2.0625C12.7812 2.08594 14.4102 2.63672 15.8867 3.71484C17.3633 4.81641 18.5469 6.31641 19.4375 8.21484C18.5234 10.1602 17.3398 11.6836 15.8867 12.7852C14.4102 13.8633 12.7812 14.4141 11 14.4375ZM11 3.75C9.73438 3.77344 8.66797 4.20703 7.80078 5.05078C6.95703 5.91797 6.52344 6.98438 6.5 8.25C6.52344 9.51562 6.95703 10.582 7.80078 11.4492C8.66797 12.293 9.73438 12.7266 11 12.75C12.2656 12.7266 13.3203 12.293 14.1641 11.4492C15.0312 10.582 15.4766 9.51562 15.5 8.25C15.4766 6.98438 15.043 5.92969 14.1992 5.08594C13.332 4.21875 12.2656 3.77344 11 3.75ZM11 11.0625C10.2031 11.0391 9.53516 10.7695 8.99609 10.2539C8.48047 9.71484 8.21094 9.04688 8.1875 8.25C8.1875 8.22656 8.1875 8.21484 8.1875 8.21484C8.1875 8.19141 8.1875 8.17969 8.1875 8.17969C8.375 8.22656 8.5625 8.25 8.75 8.25C9.38281 8.22656 9.91016 8.00391 10.332 7.58203C10.7539 7.16016 10.9766 6.63281 11 6C11 5.8125 10.9766 5.625 10.9297 5.4375C10.9297 5.4375 10.9414 5.4375 10.9648 5.4375C10.9648 5.4375 10.9766 5.4375 11 5.4375C11.7969 5.46094 12.4648 5.73047 13.0039 6.24609C13.5195 6.78516 13.7891 7.45312 13.8125 8.25C13.7891 9.04688 13.5195 9.71484 13.0039 10.2539C12.4648 10.7695 11.7969 11.0391 11 11.0625Z" fill="#3D3F7D"/>
</svg>
