<svg width="85" height="86" viewBox="0 0 85 86" fill="none" xmlns="http://www.w3.org/2000/svg">
<path d="M40 80C44.35 80 48.55 79.3 52.47 78.02C50.5341 75.5027 48.8997 72.7674 47.6 69.87C45.12 73.375 42.43 75 40 75C36.715 75 32.965 72.05 29.89 65.46C28.7196 62.8972 27.7857 60.2328 27.1 57.5H45.02C45.08 55.79 45.315 54.115 45.705 52.5H26.03C25.3352 48.3698 24.9906 44.1883 25 40C25 35.585 25.365 31.375 26.03 27.5H53.97C54.57 31.02 54.93 34.815 54.99 38.79C56.5 37.76 58.145 36.915 59.92 36.29C59.7908 33.3457 59.4953 30.411 59.035 27.5H72.7C73.75 30.245 74.465 33.155 74.795 36.18C76.665 36.815 78.4 37.69 79.98 38.765C79.7373 30.9101 77.1862 23.3006 72.6452 16.8867C68.1042 10.4728 61.7745 5.53858 54.4463 2.70017C47.118 -0.138236 39.1161 -0.755105 31.4394 0.926581C23.7628 2.60827 16.7515 6.514 11.2811 12.1561C5.81071 17.7983 2.12348 24.9268 0.679792 32.6518C-0.763897 40.3767 0.0999255 48.3558 3.16341 55.5928C6.22689 62.8298 11.3543 69.0041 17.9055 73.3448C24.4566 77.6854 32.1413 80.0002 40 80ZM40 5.00001C43.285 5.00001 47.035 7.95001 50.11 14.54C51.195 16.87 52.14 19.55 52.905 22.5H27.095C27.86 19.55 28.805 16.87 29.895 14.54C32.96 7.95001 36.71 5.00001 40 5.00001ZM25.36 12.425C23.8835 15.6591 22.7393 19.0347 21.945 22.5H9.67997C13.9012 15.2044 20.6061 9.67076 28.57 6.91001C27.365 8.56001 26.29 10.43 25.36 12.425ZM20.96 27.5C20.3129 31.6351 19.9919 35.8146 20 40C20 44.35 20.335 48.56 20.965 52.5H7.29997C5.77511 48.5091 4.99553 44.2723 4.99997 40C4.99997 35.6 5.81497 31.38 7.29997 27.5H20.965H20.96ZM21.945 57.5C22.825 61.215 23.98 64.61 25.36 67.575C26.29 69.57 27.365 71.44 28.57 73.09C20.6061 70.3293 13.9012 64.7957 9.67997 57.5H21.95H21.945ZM51.43 6.91001C59.3941 9.67036 66.0991 15.2041 70.32 22.5H58.05C57.2556 19.0348 56.1114 15.6591 54.635 12.425C53.7447 10.4878 52.6697 8.64093 51.425 6.91001H51.43ZM85 58.41C85 48.245 77.675 40.005 67.505 40.005C57.34 40.005 50 48.245 50 58.41C50 66.03 54.91 76.06 66.28 84.59C67.005 85.14 68.005 85.14 68.73 84.59C80.11 76.06 85 66.03 85 58.41ZM75 57.5C75 59.4891 74.2098 61.3968 72.8033 62.8033C71.3967 64.2098 69.4891 65 67.5 65C65.5108 65 63.6032 64.2098 62.1967 62.8033C60.7901 61.3968 60 59.4891 60 57.5C60 55.5109 60.7901 53.6032 62.1967 52.1967C63.6032 50.7902 65.5108 50 67.5 50C69.4891 50 71.3967 50.7902 72.8033 52.1967C74.2098 53.6032 75 55.5109 75 57.5Z" fill="#0693E3"/>
</svg>
