<svg width="21" height="21" viewBox="0 0 21 21" fill="none" xmlns="http://www.w3.org/2000/svg">
<path d="M5.61719 12.7656C5.53906 12.4792 5.57812 12.2448 5.73438 12.0625C5.91667 11.8542 6.13802 11.75 6.39844 11.75H14.7578C15.0443 11.75 15.2656 11.8542 15.4219 12.0625C15.5781 12.2448 15.6302 12.4792 15.5781 12.7656C15.2135 13.8594 14.5885 14.7318 13.7031 15.3828C12.8177 16.0599 11.776 16.4115 10.5781 16.4375C9.38021 16.4115 8.33854 16.0599 7.45312 15.3828C6.56771 14.7318 5.95573 13.8594 5.61719 12.7656ZM9.01562 9.44531H8.97656C8.97656 9.41927 8.97656 9.40625 8.97656 9.40625C8.95052 9.38021 8.92448 9.35417 8.89844 9.32812C8.89844 9.30208 8.88542 9.27604 8.85938 9.25C8.78125 9.17188 8.70312 9.08073 8.625 8.97656C8.57292 8.92448 8.52083 8.8724 8.46875 8.82031C8.10417 8.50781 7.73958 8.33854 7.375 8.3125C7.01042 8.33854 6.64583 8.50781 6.28125 8.82031C6.22917 8.8724 6.17708 8.92448 6.125 8.97656C6.04688 9.08073 5.96875 9.17188 5.89062 9.25C5.86458 9.27604 5.85156 9.30208 5.85156 9.32812C5.79948 9.35417 5.77344 9.38021 5.77344 9.40625C5.7474 9.40625 5.7474 9.40625 5.77344 9.40625C5.77344 9.40625 5.77344 9.41927 5.77344 9.44531H5.73438C5.65625 9.54948 5.55208 9.58854 5.42188 9.5625C5.26562 9.51042 5.1875 9.40625 5.1875 9.25C5.21354 8.52083 5.4349 7.88281 5.85156 7.33594C6.24219 6.78906 6.75 6.48958 7.375 6.4375C8 6.48958 8.50781 6.78906 8.89844 7.33594C9.3151 7.88281 9.53646 8.52083 9.5625 9.25C9.5625 9.40625 9.4974 9.51042 9.36719 9.5625C9.21094 9.58854 9.09375 9.54948 9.01562 9.44531ZM15.2656 9.44531H15.2266C15.2266 9.41927 15.2266 9.40625 15.2266 9.40625C15.2005 9.38021 15.1745 9.35417 15.1484 9.32812C15.1484 9.30208 15.1354 9.27604 15.1094 9.25C15.0312 9.17188 14.9531 9.08073 14.875 8.97656C14.8229 8.92448 14.7708 8.8724 14.7188 8.82031C14.3542 8.50781 13.9896 8.33854 13.625 8.3125C13.2604 8.33854 12.8958 8.50781 12.5312 8.82031C12.4792 8.8724 12.4271 8.92448 12.375 8.97656C12.2969 9.08073 12.2188 9.17188 12.1406 9.25C12.1146 9.27604 12.1016 9.30208 12.1016 9.32812C12.0495 9.35417 12.0234 9.38021 12.0234 9.40625C11.9974 9.40625 11.9974 9.40625 12.0234 9.40625C12.0234 9.40625 12.0234 9.41927 12.0234 9.44531H11.9844C11.9062 9.54948 11.8021 9.58854 11.6719 9.5625C11.5156 9.51042 11.4375 9.40625 11.4375 9.25C11.4635 8.52083 11.6849 7.88281 12.1016 7.33594C12.4922 6.78906 13 6.48958 13.625 6.4375C14.25 6.48958 14.7578 6.78906 15.1484 7.33594C15.5651 7.88281 15.7865 8.52083 15.8125 9.25C15.8125 9.40625 15.7474 9.51042 15.6172 9.5625C15.4609 9.58854 15.3438 9.54948 15.2656 9.44531ZM20.5 10.5C20.474 12.375 20.0182 14.0547 19.1328 15.5391C18.2474 17.0495 17.0495 18.2474 15.5391 19.1328C14.0547 20.0182 12.375 20.474 10.5 20.5C8.625 20.474 6.94531 20.0182 5.46094 19.1328C3.95052 18.2474 2.7526 17.0495 1.86719 15.5391C0.981771 14.0547 0.526042 12.375 0.5 10.5C0.526042 8.625 0.981771 6.94531 1.86719 5.46094C2.7526 3.95052 3.95052 2.7526 5.46094 1.86719C6.94531 0.981771 8.625 0.526042 10.5 0.5C12.375 0.526042 14.0547 0.981771 15.5391 1.86719C17.0495 2.7526 18.2474 3.95052 19.1328 5.46094C20.0182 6.94531 20.474 8.625 20.5 10.5ZM10.5 2.375C8.20833 2.42708 6.29427 3.22135 4.75781 4.75781C3.22135 6.29427 2.42708 8.20833 2.375 10.5C2.42708 12.7917 3.22135 14.7057 4.75781 16.2422C6.29427 17.7786 8.20833 18.5729 10.5 18.625C12.7917 18.5729 14.7057 17.7786 16.2422 16.2422C17.7786 14.7057 18.5729 12.7917 18.625 10.5C18.5729 8.20833 17.7786 6.29427 16.2422 4.75781C14.7057 3.22135 12.7917 2.42708 10.5 2.375Z" fill="#F98900"/>
</svg>
