<svg width="24" height="24" viewBox="0 0 24 24" fill="none" xmlns="http://www.w3.org/2000/svg">
<path d="M15.125 10C15.099 10.8854 14.7995 11.6276 14.2266 12.2266C13.6276 12.7995 12.8854 13.099 12 13.125C11.1146 13.099 10.3724 12.7995 9.77344 12.2266C9.20052 11.6276 8.90104 10.8854 8.875 10C8.90104 9.11458 9.20052 8.3724 9.77344 7.77344C10.3724 7.20052 11.1146 6.90104 12 6.875C12.8854 6.90104 13.6276 7.20052 14.2266 7.77344C14.7995 8.3724 15.099 9.11458 15.125 10ZM12 8.75C11.6354 8.75 11.3359 8.86719 11.1016 9.10156C10.8672 9.33594 10.75 9.63542 10.75 10C10.75 10.3646 10.8672 10.6641 11.1016 10.8984C11.3359 11.1328 11.6354 11.25 12 11.25C12.3646 11.25 12.6641 11.1328 12.8984 10.8984C13.1328 10.6641 13.25 10.3646 13.25 10C13.25 9.63542 13.1328 9.33594 12.8984 9.10156C12.6641 8.86719 12.3646 8.75 12 8.75ZM19.5 10C19.4479 11.1719 19.0312 12.526 18.25 14.0625C17.4427 15.599 16.5312 17.0833 15.5156 18.5156C14.5 19.974 13.6406 21.1328 12.9375 21.9922C12.6771 22.3047 12.3646 22.4609 12 22.4609C11.6354 22.4609 11.3229 22.3047 11.0625 21.9922C10.3594 21.1328 9.48698 19.974 8.44531 18.5156C7.42969 17.0833 6.53125 15.599 5.75 14.0625C4.96875 12.526 4.55208 11.1719 4.5 10C4.55208 7.86458 5.28125 6.09375 6.6875 4.6875C8.09375 3.28125 9.86458 2.55208 12 2.5C14.1354 2.55208 15.9062 3.28125 17.3125 4.6875C18.7188 6.09375 19.4479 7.86458 19.5 10ZM12 4.375C10.4115 4.42708 9.08333 4.97396 8.01562 6.01562C6.97396 7.08333 6.42708 8.41146 6.375 10C6.375 10.4948 6.57031 11.237 6.96094 12.2266C7.40365 13.2161 7.96354 14.2578 8.64062 15.3516C9.1875 16.263 9.76042 17.1224 10.3594 17.9297C10.9583 18.763 11.5052 19.5052 12 20.1562C12.4948 19.5052 13.0417 18.776 13.6406 17.9688C14.2396 17.1354 14.8125 16.263 15.3594 15.3516C16.0365 14.2578 16.5964 13.2161 17.0391 12.2266C17.4297 11.237 17.625 10.4948 17.625 10C17.5729 8.41146 17.026 7.08333 15.9844 6.01562C14.9167 4.97396 13.5885 4.42708 12 4.375Z" fill="#FE5050"/>
</svg>
