<svg width="20" height="21" viewBox="0 0 20 21" fill="none" xmlns="http://www.w3.org/2000/svg">
<path d="M9.0625 13.9375V11.4375H6.5625C5.98958 11.3854 5.67708 11.0729 5.625 10.5C5.67708 9.92708 5.98958 9.61458 6.5625 9.5625H9.0625V7.0625C9.11458 6.48958 9.42708 6.17708 10 6.125C10.5729 6.17708 10.8854 6.48958 10.9375 7.0625V9.5625H13.4375C14.0104 9.61458 14.3229 9.92708 14.375 10.5C14.3229 11.0729 14.0104 11.3854 13.4375 11.4375H10.9375V13.9375C10.8854 14.5104 10.5729 14.8229 10 14.875C9.42708 14.8229 9.11458 14.5104 9.0625 13.9375ZM20 10.5C19.974 12.375 19.5182 14.0547 18.6328 15.5391C17.7474 17.0495 16.5495 18.2474 15.0391 19.1328C13.5547 20.0182 11.875 20.474 10 20.5C8.125 20.474 6.44531 20.0182 4.96094 19.1328C3.45052 18.2474 2.2526 17.0495 1.36719 15.5391C0.481771 14.0547 0.0260417 12.375 0 10.5C0.0260417 8.625 0.481771 6.94531 1.36719 5.46094C2.2526 3.95052 3.45052 2.7526 4.96094 1.86719C6.44531 0.981771 8.125 0.526042 10 0.5C11.875 0.526042 13.5547 0.981771 15.0391 1.86719C16.5495 2.7526 17.7474 3.95052 18.6328 5.46094C19.5182 6.94531 19.974 8.625 20 10.5ZM10 2.375C7.70833 2.42708 5.79427 3.22135 4.25781 4.75781C2.72135 6.29427 1.92708 8.20833 1.875 10.5C1.92708 12.7917 2.72135 14.7057 4.25781 16.2422C5.79427 17.7786 7.70833 18.5729 10 18.625C12.2917 18.5729 14.2057 17.7786 15.7422 16.2422C17.2786 14.7057 18.0729 12.7917 18.125 10.5C18.0729 8.20833 17.2786 6.29427 15.7422 4.75781C14.2057 3.22135 12.2917 2.42708 10 2.375Z" fill="#ADB5BD"/>
</svg>
