<svg width="20" height="19" viewBox="0 0 20 19" fill="none" xmlns="http://www.w3.org/2000/svg">
<path d="M11.0195 0.882812L13.3047 5.52344L18.4727 6.26172C18.9414 6.37891 19.2344 6.63672 19.3516 7.03516C19.4922 7.45703 19.3984 7.84375 19.0703 8.19531L15.3438 11.7812L16.2227 16.9141C16.293 17.3828 16.1523 17.7461 15.8008 18.0039C15.4492 18.2617 15.0508 18.2852 14.6055 18.0742L10 15.7188L5.39453 18.1094C4.94922 18.3203 4.55078 18.2969 4.19922 18.0391C3.84766 17.7812 3.70703 17.418 3.77734 16.9492L4.65625 11.8164L0.929688 8.19531C0.601562 7.84375 0.507812 7.45703 0.648438 7.03516C0.765625 6.63672 1.05859 6.39063 1.52734 6.29688L6.69531 5.52344L8.98047 0.882812C9.23828 0.460938 9.57812 0.25 10 0.25C10.4453 0.25 10.7852 0.460938 11.0195 0.882812Z" fill="#FF9700"/>
</svg>
