<svg width="20" height="19" viewBox="0 0 20 19" fill="none" xmlns="http://www.w3.org/2000/svg">
<path d="M18.4727 6.29688L13.3047 5.52344L11.0195 0.882812C10.7852 0.460938 10.4336 0.25 9.96484 0.25C9.56641 0.25 9.23828 0.460938 8.98047 0.882812L6.69531 5.52344L1.52734 6.29688C1.05859 6.39063 0.765625 6.63672 0.648438 7.03516C0.507812 7.45703 0.601562 7.84375 0.929688 8.19531L4.65625 11.7812L3.77734 16.9492C3.70703 17.3242 3.78906 17.6289 4.02344 17.8633C4.25781 18.1211 4.53906 18.25 4.86719 18.25C5.05469 18.25 5.23047 18.2031 5.39453 18.1094L10 15.7188L14.6055 18.1094C14.7695 18.2031 14.9453 18.25 15.1328 18.25C15.4609 18.25 15.7422 18.1211 15.9766 17.8633C16.2109 17.6289 16.293 17.3242 16.2227 16.9492L15.3438 11.8164L19.0703 8.23047C19.3984 7.85547 19.4922 7.45703 19.3516 7.03516C19.2344 6.63672 18.9414 6.39063 18.4727 6.29688ZM13.5859 11.5352L14.3945 16.1055L10.2461 13.9258C10.082 13.8555 9.91797 13.8555 9.75391 13.9258L5.60547 16.1055L6.41406 11.5352C6.41406 11.3242 6.35547 11.1484 6.23828 11.0078L2.93359 7.77344L7.50391 7.10547C7.71484 7.08203 7.85547 6.98828 7.92578 6.82422L10 2.64062L12.0742 6.78906C12.1445 6.97656 12.2852 7.08203 12.4961 7.10547L17.1016 7.77344L13.7617 11.0078C13.6211 11.1484 13.5625 11.3242 13.5859 11.5352Z" fill="#FF9700"/>
</svg>
