<svg width="916" height="916" viewBox="0 0 916 916" fill="none" xmlns="http://www.w3.org/2000/svg">
<rect x="0.00195312" width="915.619" height="915.62" rx="200" fill="url(#paint0_linear_722_354)"/>
<path d="M381.615 458.984C381.615 416.807 415.786 382.608 457.95 382.608C500.114 382.608 534.304 416.807 534.304 458.984C534.304 501.16 500.114 535.359 457.95 535.359C415.786 535.359 381.615 501.16 381.615 458.984ZM340.34 458.984C340.34 523.959 392.994 576.628 457.95 576.628C522.907 576.628 575.561 523.959 575.561 458.984C575.561 394.008 522.907 341.339 457.95 341.339C392.994 341.339 340.34 394.008 340.34 458.984ZM552.732 336.674C552.73 342.112 554.339 347.428 557.358 351.951C560.376 356.473 564.667 359.999 569.689 362.081C574.71 364.164 580.236 364.711 585.568 363.652C590.9 362.594 595.798 359.977 599.644 356.134C603.489 352.29 606.109 347.392 607.172 342.06C608.234 336.727 607.692 331.199 605.614 326.174C603.536 321.15 600.014 316.855 595.496 313.832C590.977 310.809 585.664 309.195 580.228 309.192H580.217C572.93 309.196 565.943 312.092 560.79 317.245C555.636 322.398 552.738 329.386 552.732 336.674V336.674ZM365.417 645.472C343.087 644.455 330.949 640.734 322.883 637.591C312.19 633.427 304.56 628.467 296.538 620.454C288.516 612.44 283.55 604.816 279.406 594.119C276.261 586.054 272.542 573.91 271.527 551.573C270.416 527.423 270.194 520.168 270.194 458.985C270.194 397.802 270.434 390.568 271.527 366.398C272.543 344.061 276.291 331.94 279.406 323.852C283.569 313.155 288.527 305.523 296.538 297.499C304.549 289.474 312.171 284.507 322.883 280.361C330.946 277.216 343.087 273.495 365.417 272.48C389.56 271.369 396.813 271.148 457.95 271.148C519.088 271.148 526.348 271.388 550.511 272.48C572.842 273.497 584.959 277.245 593.045 280.361C603.739 284.507 611.368 289.485 619.39 297.499C627.412 305.512 632.36 313.155 636.523 323.852C639.667 331.916 643.387 344.061 644.402 366.398C645.512 390.568 645.734 397.802 645.734 458.985C645.734 520.168 645.512 527.403 644.402 551.573C643.385 573.91 639.647 586.051 636.523 594.119C632.36 604.816 627.401 612.448 619.39 620.454C611.379 628.46 603.739 633.427 593.045 637.591C584.983 640.736 572.842 644.457 550.511 645.472C526.368 646.583 519.116 646.805 457.95 646.805C396.785 646.805 389.553 646.583 365.417 645.472V645.472ZM363.521 231.262C339.138 232.373 322.477 236.241 307.926 241.904C292.857 247.753 280.1 255.599 267.352 268.33C254.605 281.062 246.781 293.842 240.934 308.916C235.272 323.48 231.406 340.137 230.295 364.527C229.167 388.955 228.908 396.765 228.908 458.984C228.908 521.202 229.167 529.012 230.295 553.44C231.406 577.832 235.272 594.487 240.934 609.051C246.781 624.116 254.607 636.911 267.352 649.637C280.098 662.362 292.857 670.198 307.926 676.063C322.504 681.726 339.138 685.594 363.521 686.705C387.955 687.815 395.75 688.092 457.95 688.092C520.151 688.092 527.959 687.834 552.38 686.705C576.765 685.594 593.415 681.726 607.975 676.063C623.035 670.198 635.801 662.368 648.548 649.637C661.296 636.905 669.103 624.116 674.967 609.051C680.629 594.487 684.513 577.83 685.605 553.44C686.716 528.994 686.974 521.202 686.974 458.984C686.974 396.765 686.716 388.955 685.605 364.527C684.495 340.135 680.629 323.47 674.967 308.916C669.103 293.851 661.276 281.082 648.548 268.33C635.821 255.579 623.035 247.753 607.993 241.904C593.415 236.241 576.763 232.355 552.398 231.262C527.977 230.152 520.169 229.875 457.969 229.875C395.768 229.875 387.955 230.133 363.521 231.262Z" fill="white"/>
<defs>
<linearGradient id="paint0_linear_722_354" x1="898.023" y1="915.62" x2="-17.597" y2="0.000707776" gradientUnits="userSpaceOnUse">
<stop stop-color="#FBE18A"/>
<stop offset="0.21" stop-color="#FCBB45"/>
<stop offset="0.38" stop-color="#F75274"/>
<stop offset="0.52" stop-color="#D53692"/>
<stop offset="0.74" stop-color="#8F39CE"/>
<stop offset="1" stop-color="#5B4FE9"/>
</linearGradient>
</defs>
</svg>
