<svg width="916" height="916" viewBox="0 0 916 916" fill="none" xmlns="http://www.w3.org/2000/svg">
<rect x="0.00585938" width="915.619" height="915.62" rx="200" fill="black"/>
<path fill-rule="evenodd" clip-rule="evenodd" d="M556.708 395.574C587.374 417.394 624.098 429.052 661.724 428.911V354.277C654.327 354.297 646.95 353.505 639.726 351.914V411.372C602.016 411.439 565.238 399.647 534.586 377.662V531.159C534.493 556.347 527.592 581.039 514.614 602.619C501.637 624.199 483.066 641.862 460.871 653.734C438.677 665.606 413.686 671.246 388.549 670.054C363.412 668.862 339.066 660.884 318.092 646.966C337.492 666.613 362.281 680.055 389.32 685.592C416.358 691.128 444.43 688.509 469.981 678.067C495.532 667.625 517.412 649.828 532.85 626.931C548.289 604.035 556.592 577.067 556.708 549.444V395.574ZM583.925 319.448C568.33 302.53 558.761 280.926 556.708 257.999V248.297H535.829C538.41 262.87 544.026 276.737 552.312 288.995C560.599 301.253 571.369 311.629 583.925 319.448V319.448ZM366.436 587.881C359.2 578.409 354.765 567.095 353.637 555.225C352.509 543.355 354.732 531.406 360.055 520.739C365.377 510.072 373.585 501.114 383.743 494.886C393.901 488.657 405.603 485.408 417.515 485.508C424.092 485.506 430.63 486.513 436.903 488.493V411.372C429.571 410.4 422.176 409.984 414.781 410.128V470.084C399.509 465.252 382.979 466.351 368.479 473.162C353.979 479.973 342.572 491.997 336.526 506.842C330.48 521.688 330.239 538.267 335.85 553.283C341.461 568.299 352.514 580.65 366.809 587.881H366.436Z" fill="#EE1D52"/>
<path fill-rule="evenodd" clip-rule="evenodd" d="M534.575 377.165C565.228 399.149 602.006 410.941 639.716 410.874V351.416C618.23 346.869 598.713 335.688 583.914 319.448C571.359 311.629 560.588 301.253 552.302 288.995C544.015 276.737 538.399 262.87 535.818 248.297H480.887V549.444C480.836 562.774 476.615 575.753 468.818 586.56C461.02 597.366 450.038 605.457 437.411 609.697C424.785 613.937 411.149 614.113 398.418 610.2C385.686 606.287 374.499 598.482 366.426 587.881C353.632 581.42 343.385 570.832 337.34 557.828C331.295 544.823 329.804 530.159 333.107 516.202C336.41 502.245 344.315 489.809 355.546 480.9C366.777 471.991 380.679 467.129 395.01 467.098C401.585 467.119 408.12 468.126 414.397 470.084V410.128C387.275 410.78 360.932 419.343 338.604 434.768C316.275 450.193 298.932 471.808 288.704 496.959C278.475 522.11 275.807 549.703 281.026 576.351C286.244 602.998 299.123 627.541 318.081 646.966C339.06 660.984 363.444 669.045 388.638 670.289C413.831 671.532 438.89 665.913 461.145 654.029C483.4 642.145 502.017 624.441 515.014 602.804C528.011 581.166 534.9 556.406 534.948 531.159L534.575 377.165Z" fill="white"/>
<path fill-rule="evenodd" clip-rule="evenodd" d="M639.722 351.414V335.367C619.992 335.451 600.642 329.93 583.921 319.445C598.682 335.732 618.216 346.923 639.722 351.414V351.414ZM535.825 248.294C535.825 245.433 534.955 242.448 534.582 239.587V229.885H458.772V531.157C458.706 548.026 451.956 564.18 440.003 576.074C428.051 587.967 411.871 594.628 395.017 594.595C385.093 594.645 375.298 592.344 366.433 587.878C374.506 598.48 385.693 606.285 398.425 610.198C411.156 614.111 424.792 613.935 437.418 609.695C450.045 605.455 461.027 597.364 468.825 586.557C476.622 575.751 480.843 562.772 480.894 549.442V248.294H535.825ZM414.404 410.001V392.96C383.209 388.718 351.498 395.177 324.439 411.283C297.381 427.389 276.57 452.193 265.399 481.653C254.229 511.113 253.356 543.491 262.924 573.51C272.492 603.53 291.936 629.421 318.088 646.963C299.274 627.494 286.532 602.961 281.42 576.361C276.308 549.762 279.046 522.249 289.301 497.182C299.556 472.115 316.884 450.581 339.167 435.209C361.449 419.837 387.723 411.294 414.777 410.623L414.404 410.001Z" fill="#69C9D0"/>
</svg>
