<svg width="458" height="458" viewBox="0 0 458 458" fill="none" xmlns="http://www.w3.org/2000/svg">
<path d="M344.707 155.728C337.148 158.982 329.201 161.247 321.063 162.468C324.868 161.816 330.466 154.967 332.695 152.195C336.08 148.014 338.661 143.24 340.305 138.117C340.305 137.737 340.685 137.193 340.305 136.922C340.113 136.817 339.898 136.762 339.679 136.762C339.461 136.762 339.246 136.817 339.054 136.922C330.217 141.707 320.812 145.36 311.062 147.793C310.722 147.896 310.36 147.906 310.015 147.82C309.671 147.733 309.356 147.555 309.105 147.303C308.346 146.4 307.529 145.546 306.659 144.749C302.682 141.185 298.17 138.269 293.288 136.106C286.697 133.403 279.579 132.232 272.47 132.682C265.572 133.118 258.837 134.968 252.685 138.117C246.626 141.438 241.301 145.949 237.03 151.38C232.538 156.97 229.295 163.456 227.518 170.404C226.054 177.013 225.888 183.843 227.029 190.515C227.029 191.657 227.029 191.82 226.051 191.657C187.296 185.95 155.498 172.198 129.517 142.683C128.375 141.379 127.777 141.379 126.853 142.683C115.548 159.859 121.037 187.037 135.17 200.462C137.072 202.256 139.029 203.995 141.094 205.626C134.615 205.166 128.293 203.41 122.505 200.462C121.418 199.756 120.82 200.136 120.766 201.441C120.612 203.249 120.612 205.068 120.766 206.876C121.9 215.544 125.316 223.754 130.664 230.669C136.012 237.583 143.1 242.953 151.204 246.229C153.18 247.075 155.238 247.713 157.346 248.131C151.348 249.312 145.196 249.496 139.138 248.675C137.833 248.403 137.344 249.11 137.833 250.36C145.823 272.102 163.162 278.733 175.881 282.429C177.621 282.701 179.36 282.701 181.317 283.136C181.317 283.136 181.317 283.136 180.991 283.462C177.24 290.311 162.075 294.931 155.118 297.322C142.419 301.884 128.879 303.627 115.439 302.432C113.319 302.106 112.83 302.16 112.286 302.432C111.743 302.704 112.286 303.301 112.884 303.845C115.602 305.639 118.32 307.215 121.146 308.737C129.56 313.326 138.456 316.972 147.671 319.608C195.395 332.762 249.097 323.087 284.917 287.484C313.073 259.546 322.965 221.008 322.965 182.417C322.965 180.949 324.759 180.079 325.792 179.318C332.915 173.768 339.195 167.213 344.435 159.859C345.343 158.763 345.808 157.367 345.74 155.946V155.946C345.74 155.13 345.74 155.294 344.707 155.728Z" fill="#33CCFF"/>
</svg>
