<svg width="916" height="916" viewBox="0 0 916 916" fill="none" xmlns="http://www.w3.org/2000/svg">
<rect x="0.00390625" width="915.619" height="915.62" rx="200" fill="#33CCFF"/>
<path d="M685.06 312.851C669.941 319.363 654.047 323.898 637.771 326.343C645.38 325.037 656.578 311.328 661.035 305.779C667.806 297.408 672.966 287.853 676.254 277.598C676.254 276.836 677.015 275.748 676.254 275.204C675.871 274.994 675.441 274.885 675.004 274.885C674.567 274.885 674.137 274.994 673.754 275.204C656.08 284.784 637.27 292.095 617.768 296.965C617.089 297.173 616.365 297.192 615.676 297.019C614.986 296.847 614.357 296.489 613.855 295.986C612.337 294.177 610.703 292.469 608.963 290.872C601.009 283.739 591.985 277.901 582.22 273.572C569.04 268.16 554.803 265.816 540.584 266.717C526.788 267.589 513.319 271.293 501.014 277.598C488.897 284.245 478.248 293.275 469.706 304.146C460.721 315.336 454.234 328.321 450.682 342.229C447.752 355.458 447.42 369.131 449.703 382.487C449.703 384.772 449.703 385.098 447.746 384.772C370.236 373.347 306.641 345.819 254.678 286.737C252.395 284.126 251.199 284.126 249.351 286.737C226.74 321.12 237.719 375.523 265.984 402.399C269.789 405.989 273.702 409.471 277.833 412.735C264.874 411.814 252.232 408.299 240.655 402.399C238.48 400.984 237.285 401.746 237.176 404.357C236.868 407.977 236.868 411.617 237.176 415.238C239.444 432.588 246.276 449.024 256.972 462.865C267.668 476.706 281.845 487.455 298.053 494.014C302.004 495.707 306.121 496.984 310.337 497.822C298.34 500.186 286.036 500.553 273.92 498.91C271.311 498.366 270.332 499.78 271.311 502.283C287.291 545.805 321.969 559.08 347.407 566.479C350.886 567.023 354.365 567.023 358.278 567.893C358.278 567.893 358.278 567.893 357.626 568.546C350.125 582.255 319.795 591.504 305.88 596.291C280.482 605.422 253.403 608.912 226.522 606.519C222.283 605.866 221.304 605.975 220.217 606.519C219.13 607.063 220.217 608.26 221.413 609.348C226.848 612.939 232.284 616.094 237.937 619.141C254.766 628.328 272.557 635.626 290.987 640.902C386.434 667.233 493.839 647.866 565.479 576.598C621.791 520.671 641.576 443.527 641.576 366.275C641.576 363.337 645.163 361.596 647.229 360.073C661.475 348.963 674.035 335.842 684.516 321.12C686.331 318.926 687.262 316.132 687.125 313.286V313.286C687.125 311.654 687.125 311.981 685.06 312.851Z" fill="white"/>
</svg>
