<svg width="55" height="42" viewBox="0 0 55 42" fill="none" xmlns="http://www.w3.org/2000/svg">
<path d="M44 39H9.5C7.8125 38.9375 6.40625 38.3438 5.28125 37.2188C4.15625 36.0938 3.5625 34.6875 3.5 33V7.5C3.4375 6.5625 2.9375 6.0625 2 6C1.0625 6.0625 0.5625 6.5625 0.5 7.5V33C0.5625 35.5625 1.4375 37.6875 3.125 39.375C4.8125 41.0625 6.9375 41.9375 9.5 42H44C44.9375 41.9375 45.4375 41.4375 45.5 40.5C45.4375 39.5625 44.9375 39.0625 44 39ZM21.5 11.25C22.875 11.125 23.625 10.375 23.75 9C23.625 7.625 22.875 6.875 21.5 6.75C20.125 6.875 19.375 7.625 19.25 9C19.375 10.375 20.125 11.125 21.5 11.25ZM39.0312 10.125C38.4062 9.375 37.625 9 36.6875 9C35.6875 9 34.9375 9.375 34.4375 10.125L30.2188 15.8438L29.6562 15C29.0312 14.375 28.25 14.0312 27.3125 13.9688C26.4375 13.9688 25.6875 14.3125 25.0625 15L19.0625 22.5938C18.375 23.5312 18.3125 24.5 18.875 25.5C19.375 26.4375 20.1875 26.9375 21.3125 27H45.6875C46.75 26.9375 47.5625 26.4688 48.125 25.5938C48.6875 24.5938 48.6562 23.625 48.0312 22.6875L39.0312 10.125ZM21.6875 24L27.125 16.875L29.0938 19.3125C29.2812 19.625 29.625 19.8125 30.125 19.875C30.625 19.9375 31.0625 19.7188 31.4375 19.2188L36.5938 11.9062L45.2188 24H21.6875ZM48.5 0H15.5C13.8125 0.0625 12.4062 0.65625 11.2812 1.78125C10.1562 2.90625 9.5625 4.3125 9.5 6V27C9.5625 28.6875 10.1562 30.0938 11.2812 31.2188C12.4062 32.3438 13.8125 32.9375 15.5 33H48.5C50.1875 32.9375 51.5938 32.3438 52.7188 31.2188C53.8438 30.0938 54.4375 28.6875 54.5 27V6C54.4375 4.3125 53.8438 2.90625 52.7188 1.78125C51.5938 0.65625 50.1875 0.0625 48.5 0ZM51.5 27C51.5 27.875 51.2188 28.5938 50.6562 29.1562C50.0938 29.7188 49.375 30 48.5 30H15.5C14.625 30 13.9062 29.7188 13.3438 29.1562C12.7812 28.5938 12.5 27.875 12.5 27V6C12.5 5.125 12.7812 4.40625 13.3438 3.84375C13.9062 3.28125 14.625 3 15.5 3H48.5C49.375 3 50.0938 3.28125 50.6562 3.84375C51.2188 4.40625 51.5 5.125 51.5 6V27Z" fill="#868E96"/>
</svg>
