<svg width="50" height="78" viewBox="0 0 50 78" fill="none" xmlns="http://www.w3.org/2000/svg">
<path d="M50 0L50 78L23 64.74L0 78L0 0L50 0Z" fill="#F98900"/>
<path d="M28.6328 24.3594L34.2578 25.2188C34.7526 25.2969 35.0911 25.5703 35.2734 26.0391C35.4036 26.5339 35.2995 26.9635 34.9609 27.3281L30.8984 31.3125L31.8359 37.0547C31.9141 37.5495 31.7448 37.9531 31.3281 38.2656C30.9115 38.5521 30.4818 38.5781 30.0391 38.3438L25 35.6875L20 38.3438C19.5312 38.5781 19.0885 38.5521 18.6719 38.2656C18.2812 37.9531 18.112 37.5495 18.1641 37.0547L19.1406 31.3125L15.0781 27.3281C14.7135 26.9635 14.6094 26.5339 14.7656 26.0391C14.9219 25.5703 15.2474 25.2969 15.7422 25.2188L21.3672 24.3594L23.8672 19.2031C24.1276 18.7604 24.5052 18.526 25 18.5C25.5208 18.526 25.8984 18.7604 26.1328 19.2031L28.6328 24.3594Z" fill="white"/>
</svg>
