<svg width="24" height="24" viewBox="0 0 24 24" fill="none" xmlns="http://www.w3.org/2000/svg">
<rect width="24" height="24" rx="4" fill="#F98900"/>
<path d="M12 20C16.4183 20 20 16.4183 20 12C20 7.58172 16.4183 4 12 4C7.58172 4 4 7.58172 4 12C4 16.4183 7.58172 20 12 20Z" fill="white"/>
<path d="M6.57422 7.46094L7.19634 13.3331L7.75793 13.8367L9.56891 11.7256L9.38987 11.5105L8.6325 9.19077L7.75793 8.98211L6.57422 7.46094Z" fill="#F98900"/>
<path d="M9.03516 15.1042C9.03516 15.1042 10.2008 15.9672 12.4485 16.3239C14.8159 16.7 16.8754 17.6004 16.8754 17.6004C16.8754 17.6004 15.4019 15.7405 13.7197 14.6482C12.0376 13.556 11.1694 13.1013 11.1694 13.1013L10.9466 12.8359L9.03516 15.1042Z" fill="#F98900"/>
<path d="M15.5377 6.2543L15.5299 5.57422L13.3892 8.0202L9.91022 11.9217L8.06961 14.0959L6.45312 16.8136L8.78834 14.7708L10.6534 12.5592L13.9212 8.54314C13.9315 8.53155 13.9366 8.5161 13.9379 8.50064L13.9482 8.50966L13.934 8.46844L13.7924 8.05111L14.0809 8.0962L14.1582 8.10779L14.2689 8.12453L14.2367 7.97898L14.1646 7.65053L14.5356 7.80639V7.69175V7.47536C14.5356 7.43157 14.569 7.40194 14.6051 7.39937L14.8073 7.57583L14.8692 7.10441C14.8717 7.09539 14.8756 7.08509 14.882 7.07865" fill="#F98900"/>
</svg>
