<svg width="100" height="24" viewBox="0 0 100 24" fill="none" xmlns="http://www.w3.org/2000/svg">
<g clip-path="url(#clip0_5375_155513)">
<path d="M100 23C100 23.5523 99.5523 24 99 24L2.34648 24C1.46534 24 1.01488 22.943 1.62515 22.3074L11.3086 12.2221C11.6914 11.8234 11.6782 11.1898 11.2792 10.8074L1.79721 1.72204C1.14647 1.09852 1.58782 -4.30173e-06 2.48906 -4.26234e-06L99 -4.37113e-08C99.5523 -1.95702e-08 100 0.447715 100 1L100 23Z" fill="#F98900"/>
<path d="M25.002 20C29.4202 20 33.002 16.4183 33.002 12C33.002 7.58172 29.4202 4 25.002 4C20.5837 4 17.002 7.58172 17.002 12C17.002 16.4183 20.5837 20 25.002 20Z" fill="white"/>
<path d="M19.5742 7.46094L20.1963 13.3331L20.7579 13.8367L22.5689 11.7256L22.3899 11.5105L21.6325 9.19077L20.7579 8.98211L19.5742 7.46094Z" fill="#F98900"/>
<path d="M22.0352 15.1042C22.0352 15.1042 23.2008 15.9672 25.4485 16.3239C27.8159 16.7 29.8754 17.6004 29.8754 17.6004C29.8754 17.6004 28.4019 15.7405 26.7197 14.6482C25.0376 13.556 24.1694 13.1013 24.1694 13.1013L23.9466 12.8359L22.0352 15.1042Z" fill="#F98900"/>
<path d="M28.5377 6.2543L28.5299 5.57422L26.3892 8.0202L22.9102 11.9217L21.0696 14.0959L19.4531 16.8136L21.7883 14.7708L23.6534 12.5592L26.9212 8.54314C26.9315 8.53155 26.9366 8.5161 26.9379 8.50064L26.9482 8.50966L26.934 8.46844L26.7924 8.05111L27.0809 8.0962L27.1582 8.10779L27.2689 8.12453L27.2367 7.97898L27.1646 7.65053L27.5356 7.80639V7.69175V7.47536C27.5356 7.43157 27.569 7.40194 27.6051 7.39937L27.8073 7.57583L27.8692 7.10441C27.8717 7.09539 27.8756 7.08509 27.882 7.07865" fill="#F98900"/>
<path d="M42.81 7.66V8.776H39.27V11.236H42.03V12.352H39.27V16H37.902V7.66H42.81ZM50.1377 12.532C50.1377 12.78 50.1217 13.004 50.0897 13.204H45.0377C45.0777 13.732 45.2737 14.156 45.6257 14.476C45.9777 14.796 46.4097 14.956 46.9217 14.956C47.6577 14.956 48.1777 14.648 48.4817 14.032H49.9577C49.7577 14.64 49.3937 15.14 48.8657 15.532C48.3457 15.916 47.6977 16.108 46.9217 16.108C46.2897 16.108 45.7217 15.968 45.2177 15.688C44.7217 15.4 44.3297 15 44.0417 14.488C43.7617 13.968 43.6217 13.368 43.6217 12.688C43.6217 12.008 43.7577 11.412 44.0297 10.9C44.3097 10.38 44.6977 9.98 45.1937 9.7C45.6977 9.42 46.2737 9.28 46.9217 9.28C47.5457 9.28 48.1017 9.416 48.5897 9.688C49.0777 9.96 49.4577 10.344 49.7297 10.84C50.0017 11.328 50.1377 11.892 50.1377 12.532ZM48.7097 12.1C48.7017 11.596 48.5217 11.192 48.1697 10.888C47.8177 10.584 47.3817 10.432 46.8617 10.432C46.3897 10.432 45.9857 10.584 45.6497 10.888C45.3137 11.184 45.1137 11.588 45.0497 12.1H48.7097ZM51.028 12.664C51.028 12 51.164 11.412 51.436 10.9C51.716 10.388 52.092 9.992 52.564 9.712C53.044 9.424 53.572 9.28 54.148 9.28C54.668 9.28 55.12 9.384 55.504 9.592C55.896 9.792 56.208 10.044 56.44 10.348V9.388H57.82V16H56.44V15.016C56.208 15.328 55.892 15.588 55.492 15.796C55.092 16.004 54.636 16.108 54.124 16.108C53.556 16.108 53.036 15.964 52.564 15.676C52.092 15.38 51.716 14.972 51.436 14.452C51.164 13.924 51.028 13.328 51.028 12.664ZM56.44 12.688C56.44 12.232 56.344 11.836 56.152 11.5C55.968 11.164 55.724 10.908 55.42 10.732C55.116 10.556 54.788 10.468 54.436 10.468C54.084 10.468 53.756 10.556 53.452 10.732C53.148 10.9 52.9 11.152 52.708 11.488C52.524 11.816 52.432 12.208 52.432 12.664C52.432 13.12 52.524 13.52 52.708 13.864C52.9 14.208 53.148 14.472 53.452 14.656C53.764 14.832 54.092 14.92 54.436 14.92C54.788 14.92 55.116 14.832 55.42 14.656C55.724 14.48 55.968 14.224 56.152 13.888C56.344 13.544 56.44 13.144 56.44 12.688ZM61.2128 10.504V14.164C61.2128 14.412 61.2688 14.592 61.3808 14.704C61.5008 14.808 61.7008 14.86 61.9808 14.86H62.8208V16H61.7408C61.1248 16 60.6528 15.856 60.3248 15.568C59.9968 15.28 59.8328 14.812 59.8328 14.164V10.504H59.0528V9.388H59.8328V7.744H61.2128V9.388H62.8208V10.504H61.2128ZM70.0696 9.388V16H68.7016V15.22C68.4856 15.492 68.2016 15.708 67.8496 15.868C67.5056 16.02 67.1376 16.096 66.7456 16.096C66.2256 16.096 65.7576 15.988 65.3416 15.772C64.9336 15.556 64.6096 15.236 64.3696 14.812C64.1376 14.388 64.0216 13.876 64.0216 13.276V9.388H65.3776V13.072C65.3776 13.664 65.5256 14.12 65.8216 14.44C66.1176 14.752 66.5216 14.908 67.0336 14.908C67.5456 14.908 67.9496 14.752 68.2456 14.44C68.5496 14.12 68.7016 13.664 68.7016 13.072V9.388H70.0696ZM73.2426 10.348C73.4426 10.012 73.7066 9.752 74.0346 9.568C74.3706 9.376 74.7666 9.28 75.2226 9.28V10.696H74.8746C74.3386 10.696 73.9306 10.832 73.6506 11.104C73.3786 11.376 73.2426 11.848 73.2426 12.52V16H71.8746V9.388H73.2426V10.348ZM82.5401 12.532C82.5401 12.78 82.5241 13.004 82.4921 13.204H77.4401C77.4801 13.732 77.6761 14.156 78.0281 14.476C78.3801 14.796 78.8121 14.956 79.3241 14.956C80.0601 14.956 80.5801 14.648 80.8841 14.032H82.3601C82.1601 14.64 81.7961 15.14 81.2681 15.532C80.7481 15.916 80.1001 16.108 79.3241 16.108C78.6921 16.108 78.1241 15.968 77.6201 15.688C77.1241 15.4 76.7321 15 76.4441 14.488C76.1641 13.968 76.0241 13.368 76.0241 12.688C76.0241 12.008 76.1601 11.412 76.4321 10.9C76.7121 10.38 77.1001 9.98 77.5961 9.7C78.1001 9.42 78.6761 9.28 79.3241 9.28C79.9481 9.28 80.5041 9.416 80.9921 9.688C81.4801 9.96 81.8601 10.344 82.1321 10.84C82.4041 11.328 82.5401 11.892 82.5401 12.532ZM81.1121 12.1C81.1041 11.596 80.9241 11.192 80.5721 10.888C80.2201 10.584 79.7841 10.432 79.2641 10.432C78.7921 10.432 78.3881 10.584 78.0521 10.888C77.7161 11.184 77.5161 11.588 77.4521 12.1H81.1121ZM83.4303 12.664C83.4303 12 83.5663 11.412 83.8383 10.9C84.1183 10.388 84.4943 9.992 84.9663 9.712C85.4463 9.424 85.9783 9.28 86.5623 9.28C86.9943 9.28 87.4183 9.376 87.8343 9.568C88.2583 9.752 88.5943 10 88.8423 10.312V7.12H90.2223V16H88.8423V15.004C88.6183 15.324 88.3063 15.588 87.9063 15.796C87.5143 16.004 87.0623 16.108 86.5503 16.108C85.9743 16.108 85.4463 15.964 84.9663 15.676C84.4943 15.38 84.1183 14.972 83.8383 14.452C83.5663 13.924 83.4303 13.328 83.4303 12.664ZM88.8423 12.688C88.8423 12.232 88.7463 11.836 88.5543 11.5C88.3703 11.164 88.1263 10.908 87.8223 10.732C87.5183 10.556 87.1903 10.468 86.8383 10.468C86.4863 10.468 86.1583 10.556 85.8543 10.732C85.5503 10.9 85.3023 11.152 85.1103 11.488C84.9263 11.816 84.8343 12.208 84.8343 12.664C84.8343 13.12 84.9263 13.52 85.1103 13.864C85.3023 14.208 85.5503 14.472 85.8543 14.656C86.1663 14.832 86.4943 14.92 86.8383 14.92C87.1903 14.92 87.5183 14.832 87.8223 14.656C88.1263 14.48 88.3703 14.224 88.5543 13.888C88.7463 13.544 88.8423 13.144 88.8423 12.688Z" fill="white"/>
</g>
<defs>
<clipPath id="clip0_5375_155513">
<rect width="100" height="24" fill="white"/>
</clipPath>
</defs>
</svg>
