<svg width="633" height="408" viewBox="0 0 633 408" fill="none" xmlns="http://www.w3.org/2000/svg">
<g clip-path="url(#clip0_1760_45250)">
<path d="M315.025 408.001C461.948 408.001 581.054 402.324 581.054 395.321C581.054 388.318 461.948 382.641 315.025 382.641C168.101 382.641 48.9956 388.318 48.9956 395.321C48.9956 402.324 168.101 408.001 315.025 408.001Z" fill="#E9ECF2"/>
<path d="M139.46 352.494C93.2961 338.153 30.8031 266.555 56.1942 196.739C70.6441 157.015 116.008 154.056 151.662 147.452C201.214 138.282 223.519 109.117 256.335 73.2278C293.007 33.1191 376.31 -13.7372 449.963 48.6901C469.801 65.5064 472.955 98.0145 498.557 120.839C524.303 143.784 557.874 143.89 572.98 189.327C584.751 224.733 534.075 298.392 499.734 320.348C436.223 360.947 243.56 384.775 139.46 352.494Z" fill="#F3FAFF"/>
<path d="M601.601 206.148V206.903C600.846 239.011 596.273 263.821 589.686 282.999L572.633 292.404L586.328 291.015L586.721 290.977C578.232 311.99 567.321 325.282 557.232 333.667C552.068 338.038 546.305 341.647 540.119 344.385L539.168 344.785C538.413 345.11 537.659 345.404 536.904 345.668H527.782C527.676 345.238 527.578 344.815 527.487 344.385C527.427 344.113 527.367 343.842 527.314 343.577C527.261 343.313 527.163 342.86 527.095 342.513C518.546 300.54 533.818 268.244 552.682 245.646C552.736 245.563 552.8 245.487 552.871 245.419C558.992 238.164 565.747 231.468 573.055 225.41L576.542 235.849L577.87 221.546C585.135 215.846 592.886 210.795 601.035 206.45L601.601 206.148Z" fill="#439A97"/>
<path d="M601.91 206.316L601.578 206.928L580.88 245.021L580.511 245.693L574.866 256.078L574.678 256.426L556.681 289.537L556.659 289.583L527.336 343.541L526.899 344.349L526.197 345.632H525.405L526.091 344.349L527.11 342.477L556.048 289.228L556.583 288.239L601.05 206.422L601.299 205.977L601.91 206.316Z" fill="white"/>
<path d="M598.538 241.583L574.578 256.281L574.897 256.802L598.858 242.104L598.538 241.583Z" fill="white"/>
<path d="M599.088 233.861L580.305 245.383L580.625 245.904L599.407 234.382L599.088 233.861Z" fill="white"/>
<path d="M555.906 244.185L555.295 244.234L558.84 288.562L559.451 288.513L555.906 244.185Z" fill="white"/>
<path d="M523.782 352.54C523.782 352.54 544.774 363.861 576.36 347.181L566.679 341.943L582.857 343.452C595.247 335.716 609.04 323.647 623.664 305.178L619.966 303.177L624.871 303.63C627.341 300.47 629.831 297.122 632.341 293.584C625.077 292.761 617.752 292.61 610.459 293.131L603.396 301.728L605.66 293.524C579.19 296.128 540.186 307.902 523.782 352.54Z" fill="#439A97"/>
<path d="M632.187 293.268L522.091 350.133L522.406 350.743L632.502 293.878L632.187 293.268Z" fill="white"/>
<path d="M603.705 308.311L603.606 308.945L618.815 311.322L618.914 310.688L603.705 308.311Z" fill="white"/>
<path d="M596.207 312.078L596.062 312.703L613.73 316.816L613.875 316.191L596.207 312.078Z" fill="white"/>
<path d="M551 314.584L550.494 313.95C559.881 306.448 571.124 300.81 583.906 297.172L584.133 297.927C571.448 301.557 560.304 307.15 551 314.584Z" fill="#2E4882"/>
<path d="M545.22 111.106V387.549C545.22 389.403 544.484 391.181 543.173 392.492C541.863 393.802 540.086 394.539 538.233 394.539H402.411C400.559 394.537 398.782 393.8 397.473 392.489C396.163 391.179 395.426 389.402 395.424 387.549V111.106C395.424 109.253 396.16 107.475 397.47 106.164C398.781 104.854 400.558 104.117 402.411 104.117H538.233C539.15 104.116 540.059 104.296 540.908 104.647C541.756 104.998 542.526 105.513 543.176 106.162C543.825 106.811 544.339 107.582 544.69 108.431C545.041 109.279 545.221 110.188 545.22 111.106Z" fill="#439A97"/>
<path d="M538.745 111.106V387.549C538.745 389.403 538.009 391.181 536.699 392.492C535.388 393.802 533.611 394.539 531.758 394.539H395.936C394.084 394.537 392.308 393.8 390.998 392.489C389.688 391.179 388.951 389.402 388.949 387.549V111.106C388.949 109.253 389.685 107.475 390.996 106.164C392.306 104.854 394.083 104.117 395.936 104.117H531.758C532.676 104.116 533.585 104.296 534.433 104.647C535.281 104.998 536.052 105.513 536.701 106.162C537.35 106.811 537.865 107.582 538.215 108.431C538.566 109.279 538.746 110.188 538.745 111.106Z" fill="#439A97"/>
<path d="M528.461 139.771V358.882C528.461 363.343 525.073 366.958 520.915 366.958H406.772C402.599 366.958 399.227 363.343 399.227 358.882V139.771C399.227 135.311 402.607 131.695 406.772 131.695H520.9C525.073 131.695 528.461 135.318 528.461 139.771Z" fill="#E1EAFF"/>
<path d="M482.711 117.441H444.983C444.816 117.423 444.662 117.344 444.55 117.22C444.438 117.095 444.375 116.933 444.375 116.765C444.375 116.597 444.438 116.436 444.55 116.311C444.662 116.186 444.816 116.107 444.983 116.09H482.711C482.806 116.08 482.902 116.09 482.992 116.119C483.083 116.148 483.166 116.197 483.237 116.26C483.308 116.324 483.364 116.402 483.403 116.489C483.442 116.576 483.462 116.67 483.462 116.765C483.462 116.86 483.442 116.955 483.403 117.042C483.364 117.129 483.308 117.207 483.237 117.27C483.166 117.334 483.083 117.382 482.992 117.411C482.902 117.441 482.806 117.451 482.711 117.441Z" fill="#3D3F7D"/>
<path d="M497.282 276.258H430.382C426.228 276.258 422.859 279.627 422.859 283.783V286.666C422.859 290.822 426.228 294.191 430.382 294.191H497.282C501.437 294.191 504.805 290.822 504.805 286.666V283.783C504.805 279.627 501.437 276.258 497.282 276.258Z" fill="#3D3F7D"/>
<path d="M522.357 368.579H405.316C402.789 368.531 400.384 367.483 398.627 365.666C396.871 363.848 395.906 361.408 395.944 358.88V139.769C395.906 137.241 396.871 134.801 398.627 132.983C400.384 131.165 402.789 130.118 405.316 130.07H522.357C524.884 130.118 527.289 131.165 529.045 132.983C530.802 134.801 531.767 137.241 531.728 139.769V358.88C531.767 361.408 530.802 363.848 529.045 365.666C527.289 367.483 524.884 368.531 522.357 368.579ZM405.316 133.308C403.647 133.354 402.064 134.059 400.914 135.27C399.764 136.482 399.141 138.099 399.182 139.769V358.88C399.141 360.55 399.764 362.167 400.914 363.378C402.064 364.589 403.647 365.295 405.316 365.341H522.357C524.026 365.295 525.609 364.589 526.759 363.378C527.909 362.167 528.532 360.55 528.491 358.88V139.769C528.532 138.099 527.909 136.482 526.759 135.27C525.609 134.059 524.026 133.354 522.357 133.308H405.316Z" fill="white"/>
<path d="M409.805 247.859H517.965C520.202 247.859 522.017 246.045 522.017 243.806V174.178C522.017 171.94 520.202 170.125 517.965 170.125H409.805C407.568 170.125 405.753 171.94 405.753 174.178V243.806C405.753 246.045 407.568 247.859 409.805 247.859Z" fill="#3D3F7D"/>
<path d="M435.016 217.641H415.54C414.936 217.641 414.446 218.131 414.446 218.735V222.486C414.446 223.091 414.936 223.581 415.54 223.581H435.016C435.62 223.581 436.11 223.091 436.11 222.486V218.735C436.11 218.131 435.62 217.641 435.016 217.641Z" fill="white"/>
<path d="M460.754 217.641H441.279C440.674 217.641 440.185 218.131 440.185 218.735V222.486C440.185 223.091 440.674 223.581 441.279 223.581H460.754C461.358 223.581 461.848 223.091 461.848 222.486V218.735C461.848 218.131 461.358 217.641 460.754 217.641Z" fill="white"/>
<path d="M486.492 217.641H467.016C466.412 217.641 465.922 218.131 465.922 218.735V222.486C465.922 223.091 466.412 223.581 467.016 223.581H486.492C487.096 223.581 487.586 223.091 487.586 222.486V218.735C487.586 218.131 487.096 217.641 486.492 217.641Z" fill="white"/>
<path d="M512.23 217.641H492.755C492.151 217.641 491.661 218.131 491.661 218.735V222.486C491.661 223.091 492.151 223.581 492.755 223.581H512.23C512.834 223.581 513.324 223.091 513.324 222.486V218.735C513.324 218.131 512.834 217.641 512.23 217.641Z" fill="white"/>
<path d="M511.989 229.258H486.371C485.634 229.258 485.036 229.856 485.036 230.594V233.862C485.036 234.6 485.634 235.198 486.371 235.198H511.989C512.726 235.198 513.324 234.6 513.324 233.862V230.594C513.324 229.856 512.726 229.258 511.989 229.258Z" fill="white"/>
<path d="M419.389 193.071V185.274C419.391 184.454 419.717 183.668 420.297 183.088C420.877 182.508 421.663 182.182 422.482 182.18H437.619C438.439 182.182 439.225 182.508 439.804 183.088C440.384 183.668 440.711 184.454 440.713 185.274V193.071C440.711 193.89 440.384 194.676 439.804 195.254C439.224 195.833 438.438 196.158 437.619 196.158H422.482C421.663 196.158 420.877 195.833 420.297 195.254C419.718 194.676 419.391 193.89 419.389 193.071ZM422.482 183.01C421.882 183.01 421.306 183.248 420.882 183.673C420.457 184.098 420.219 184.674 420.219 185.274V193.071C420.219 193.672 420.457 194.248 420.882 194.672C421.306 195.097 421.882 195.335 422.482 195.335H437.619C438.219 195.335 438.795 195.097 439.22 194.672C439.644 194.248 439.883 193.672 439.883 193.071V185.274C439.883 184.674 439.644 184.098 439.22 183.673C438.795 183.248 438.219 183.01 437.619 183.01H422.482Z" fill="white"/>
<path d="M509.732 188.092C509.732 188.042 509.742 187.993 509.761 187.948C509.781 187.902 509.809 187.861 509.846 187.828C511.481 186.188 512.399 183.966 512.399 181.65C512.399 179.333 511.481 177.112 509.846 175.472C509.81 175.437 509.782 175.395 509.763 175.349C509.744 175.303 509.734 175.254 509.734 175.204C509.734 175.154 509.744 175.105 509.763 175.059C509.782 175.013 509.81 174.971 509.846 174.936C509.916 174.867 510.011 174.828 510.11 174.828C510.208 174.828 510.303 174.867 510.374 174.936C512.15 176.717 513.147 179.13 513.147 181.646C513.147 184.162 512.15 186.575 510.374 188.356C510.321 188.408 510.254 188.443 510.182 188.457C510.109 188.471 510.034 188.463 509.966 188.435C509.898 188.407 509.839 188.36 509.798 188.299C509.756 188.238 509.733 188.166 509.732 188.092Z" fill="white"/>
<path d="M507.854 177.349C507.855 177.275 507.877 177.203 507.919 177.142C507.96 177.081 508.019 177.033 508.087 177.005C508.155 176.977 508.23 176.969 508.303 176.984C508.375 176.998 508.442 177.033 508.495 177.084C509.702 178.294 510.38 179.934 510.38 181.643C510.38 183.353 509.702 184.992 508.495 186.202C508.46 186.237 508.419 186.264 508.374 186.283C508.328 186.302 508.28 186.312 508.231 186.312C508.182 186.312 508.133 186.302 508.088 186.283C508.043 186.264 508.001 186.237 507.967 186.202C507.932 186.167 507.905 186.126 507.886 186.081C507.867 186.036 507.857 185.987 507.857 185.938C507.857 185.889 507.867 185.84 507.886 185.795C507.905 185.75 507.932 185.708 507.967 185.674C509.032 184.603 509.63 183.154 509.63 181.643C509.63 180.133 509.032 178.684 507.967 177.613C507.93 177.579 507.902 177.538 507.882 177.493C507.863 177.447 507.853 177.398 507.854 177.349Z" fill="white"/>
<path d="M506.05 183.946C506.051 183.897 506.061 183.848 506.08 183.803C506.1 183.758 506.128 183.717 506.163 183.682C506.704 183.142 507.007 182.409 507.007 181.644C507.007 180.88 506.704 180.147 506.163 179.607C506.129 179.572 506.101 179.531 506.083 179.485C506.064 179.44 506.054 179.391 506.054 179.342C506.054 179.293 506.064 179.245 506.083 179.199C506.101 179.154 506.129 179.113 506.163 179.078C506.198 179.043 506.239 179.016 506.285 178.997C506.33 178.978 506.379 178.969 506.428 178.969C506.477 178.969 506.525 178.978 506.571 178.997C506.616 179.016 506.657 179.043 506.692 179.078C507.029 179.415 507.297 179.815 507.48 180.255C507.663 180.695 507.757 181.168 507.757 181.644C507.757 182.121 507.663 182.593 507.48 183.034C507.297 183.474 507.029 183.874 506.692 184.211C506.658 184.247 506.617 184.275 506.571 184.295C506.526 184.315 506.477 184.325 506.428 184.325C506.378 184.325 506.329 184.315 506.284 184.295C506.238 184.275 506.197 184.247 506.163 184.211C506.127 184.177 506.098 184.136 506.079 184.091C506.059 184.045 506.05 183.996 506.05 183.946Z" fill="white"/>
<path d="M539.357 332.846H538.142V111.108C538.14 109.415 537.466 107.792 536.27 106.595C535.073 105.398 533.451 104.725 531.758 104.723H395.937C394.244 104.725 392.622 105.398 391.425 106.595C390.228 107.792 389.555 109.415 389.553 111.108V301.032H388.346V111.108C388.346 109.094 389.145 107.162 390.569 105.737C391.992 104.311 393.923 103.51 395.937 103.508H531.758C533.773 103.51 535.704 104.311 537.129 105.736C538.553 107.161 539.355 109.093 539.357 111.108V332.846Z" fill="#439A97"/>
<path d="M411.579 395.135H395.914C393.9 395.133 391.969 394.332 390.546 392.907C389.123 391.482 388.323 389.549 388.323 387.535V355.57H389.531V387.535C389.533 389.228 390.206 390.851 391.402 392.048C392.599 393.245 394.222 393.918 395.914 393.92H411.579V395.135Z" fill="#2E4882"/>
<path d="M473.514 393.922H459.056V395.137H473.514V393.922Z" fill="#2E4882"/>
<path d="M548.306 393.309C548.306 395.4 532.973 397.083 514.071 397.083C495.17 397.083 479.837 395.385 479.837 393.309C479.834 393.271 479.834 393.233 479.837 393.196V382.961H548.268V393.173C548.288 393.216 548.301 393.262 548.306 393.309Z" fill="#F49B51"/>
<path d="M514.064 386.844C532.971 386.844 548.298 385.147 548.298 383.055C548.298 380.962 532.971 379.266 514.064 379.266C495.156 379.266 479.829 380.962 479.829 383.055C479.829 385.147 495.156 386.844 514.064 386.844Z" fill="#FCC659"/>
<path d="M556.395 380.965C556.395 383.056 541.062 384.739 522.16 384.739C503.258 384.739 487.926 383.041 487.926 380.965C487.922 380.927 487.922 380.89 487.926 380.852V370.617H556.357V380.829C556.377 380.872 556.39 380.918 556.395 380.965Z" fill="#F49B51"/>
<path d="M522.153 374.492C541.06 374.492 556.387 372.796 556.387 370.703C556.387 368.61 541.06 366.914 522.153 366.914C503.245 366.914 487.918 368.61 487.918 370.703C487.918 372.796 503.245 374.492 522.153 374.492Z" fill="#FCC659"/>
<path d="M548.306 368.613C548.306 370.696 532.973 372.387 514.071 372.387C495.169 372.387 479.837 370.689 479.837 368.613C479.832 368.576 479.832 368.538 479.837 368.5V358.258H548.268V368.47C548.288 368.515 548.301 368.564 548.306 368.613Z" fill="#F49B51"/>
<path d="M514.064 362.148C532.971 362.148 548.298 360.452 548.298 358.359C548.298 356.267 532.971 354.57 514.064 354.57C495.156 354.57 479.829 356.267 479.829 358.359C479.829 360.452 495.156 362.148 514.064 362.148Z" fill="#FCC659"/>
<path d="M514.071 397.501C500.149 397.501 479.437 396.384 479.437 393.312H480.244C480.244 394.49 491.864 396.694 514.071 396.694H516.463V397.501H514.071Z" fill="#2E4882"/>
<path d="M527.646 397.222L527.608 396.414C531.071 396.248 534.256 396.021 537.055 395.742L537.138 396.542C534.324 396.799 531.124 397.025 527.646 397.222Z" fill="#2E4882"/>
<path d="M500.564 384.243C487.737 383.073 487.737 381.45 487.737 380.922H488.544C488.544 381.314 490.717 382.537 500.67 383.443L500.564 384.243Z" fill="#2E4882"/>
<path d="M522.334 385.144C518.485 385.144 514.705 385.076 511.098 384.933L511.136 384.125C517.572 384.374 524.718 384.404 531.328 384.2V385.008C528.415 385.061 525.382 385.144 522.334 385.144Z" fill="#2E4882"/>
<path d="M539.855 384.572L539.794 383.765C543.447 383.531 546.631 383.214 549.264 382.844L549.377 383.644C546.729 384.021 543.522 384.331 539.855 384.572Z" fill="#2E4882"/>
<path d="M491.05 361.584C479.641 360.421 479.641 358.949 479.641 358.398H480.448C480.448 358.398 480.742 359.719 491.133 360.784L491.05 361.584Z" fill="#2E4882"/>
<path d="M514.282 362.588C510.344 362.588 506.495 362.521 502.843 362.377V361.562C506.488 361.705 510.321 361.781 514.252 361.781C521.277 361.781 528.023 361.547 533.765 361.102L533.826 361.909C528.099 362.354 521.323 362.588 514.282 362.588Z" fill="#2E4882"/>
<path d="M560.439 356.261C560.439 358.352 545.114 360.035 526.205 360.035C507.295 360.035 491.97 358.337 491.97 356.261C491.967 356.224 491.967 356.186 491.97 356.148V345.898H560.402V356.111C560.422 356.158 560.435 356.209 560.439 356.261Z" fill="#F49B51"/>
<path d="M526.205 349.789C545.112 349.789 560.439 348.092 560.439 346C560.439 343.907 545.112 342.211 526.205 342.211C507.298 342.211 491.97 343.907 491.97 346C491.97 348.092 507.298 349.789 526.205 349.789Z" fill="#FCC659"/>
<path d="M554.086 346.012C554.086 347.416 541.605 348.556 526.167 348.556C510.729 348.556 498.248 347.416 498.248 346.012C498.248 344.608 510.736 343.461 526.167 343.461C541.598 343.461 554.086 344.601 554.086 346.012Z" fill="#F49B51"/>
<path d="M437.377 327.786C430.538 327.6 423.798 329.448 418.009 333.095C412.22 336.742 407.642 342.024 404.856 348.274C402.069 354.524 401.198 361.46 402.353 368.205C403.508 374.95 406.638 381.201 411.345 386.167C416.053 391.133 422.127 394.59 428.8 396.101C435.472 397.613 442.443 397.111 448.83 394.659C455.217 392.207 460.734 387.914 464.681 382.325C468.629 376.736 470.831 370.102 471.008 363.261C471.244 354.098 467.834 345.216 461.529 338.565C455.223 331.914 446.537 328.037 437.377 327.786ZM464.262 363.125C464.113 368.595 462.354 373.899 459.208 378.375C456.061 382.851 451.665 386.3 446.57 388.291C441.474 390.281 435.905 390.726 430.558 389.569C425.212 388.411 420.325 385.703 416.508 381.783C412.692 377.863 410.115 372.905 409.1 367.528C408.084 362.151 408.676 356.594 410.801 351.552C412.925 346.509 416.488 342.205 421.045 339.177C425.601 336.149 430.949 334.531 436.419 334.526H437.174C444.417 334.732 451.295 337.753 456.349 342.946C461.404 348.14 464.236 355.099 464.247 362.347C464.27 362.604 464.27 362.853 464.262 363.11V363.125Z" fill="#FCC659"/>
<path d="M464.27 362.344C464.27 362.6 464.27 362.849 464.27 363.098C464.122 368.57 462.364 373.877 459.217 378.356C456.07 382.834 451.673 386.285 446.576 388.277C441.479 390.27 435.907 390.715 430.559 389.558C425.21 388.4 420.321 385.691 416.503 381.77C412.684 377.848 410.107 372.888 409.092 367.509C408.076 362.13 408.669 356.571 410.795 351.526C412.921 346.482 416.486 342.177 421.045 339.149C425.604 336.12 430.954 334.503 436.427 334.5H437.181C444.431 334.7 451.318 337.722 456.376 342.921C461.435 348.12 464.267 355.088 464.27 362.344Z" fill="#F49B51"/>
<path d="M434.676 383.633V378.395C431.871 378.393 429.122 377.609 426.738 376.131L427.983 372.659C430.204 374.115 432.797 374.901 435.453 374.923C439.135 374.923 441.625 372.794 441.625 369.836C441.625 366.877 439.603 365.217 435.762 363.662C430.48 361.586 427.206 359.201 427.206 354.687C427.206 350.385 430.269 347.14 435.038 346.34V341.102H438.252V346.128C440.619 346.15 442.941 346.776 444.998 347.947L443.7 351.366C441.723 350.195 439.464 349.587 437.166 349.608C433.174 349.608 431.665 351.993 431.665 354.069C431.665 356.763 433.589 358.114 438.094 359.978C443.436 362.16 446.138 364.854 446.138 369.473C446.138 373.572 443.285 377.406 437.943 378.289V383.633H434.676Z" fill="#FCC659"/>
<path d="M463.13 355.385C463.07 355.159 463.002 354.932 462.942 354.706C461.853 350.938 459.971 347.447 457.423 344.466C454.875 341.485 451.719 339.083 448.167 337.421L448.484 336.742C452.126 338.443 455.363 340.903 457.977 343.957C460.592 347.011 462.524 350.588 463.644 354.449C463.727 354.728 463.787 354.962 463.847 355.204L463.13 355.385Z" fill="#2E4882"/>
<path d="M448.168 337.425C442.379 334.719 435.829 334.116 429.643 335.719L429.455 334.964C435.809 333.317 442.539 333.939 448.485 336.723L448.168 337.425Z" fill="#2E4882"/>
<path d="M460.875 376.585L460.226 376.2C462.061 373.092 463.264 369.652 463.764 366.078L464.519 366.184C464.002 369.857 462.763 373.392 460.875 376.585Z" fill="#2E4882"/>
<path d="M458.943 336.619C456.291 334.288 453.295 332.381 450.062 330.966L450.386 330.211C453.711 331.656 456.791 333.609 459.516 336L458.943 336.619Z" fill="#2E4882"/>
<path d="M455.955 391.393L455.502 390.721C462.903 385.753 468.071 378.089 469.904 369.364C471.736 360.639 470.088 351.543 465.311 344.016L465.998 343.578C470.888 351.281 472.579 360.59 470.708 369.522C468.838 378.453 463.555 386.301 455.985 391.393H455.955Z" fill="#2E4882"/>
<path d="M522.424 189.154H521.617V173.75C521.615 172.783 521.23 171.857 520.547 171.174C519.864 170.491 518.938 170.106 517.972 170.104H449.081V169.281H517.972C519.153 169.281 520.285 169.75 521.12 170.586C521.955 171.421 522.424 172.553 522.424 173.734V189.154Z" fill="#2E4882"/>
<path d="M522.417 197.242H521.609V206.156H522.417V197.242Z" fill="#2E4882"/>
<path d="M440.177 169.289H426.134V170.097H440.177V169.289Z" fill="#2E4882"/>
<path d="M189.088 85.9124C194.68 81.3838 199.833 75.8966 202.255 69.1112C204.678 62.3258 203.847 54.0157 198.739 48.921C194.581 44.7773 188.258 43.381 182.418 44.0376C176.578 44.6943 171.099 47.1775 165.9 49.8871C155.925 55.0799 97.9294 91.0524 118.091 102.895C137.499 114.299 174.088 98.0793 189.088 85.9124Z" fill="#F3FAFF"/>
<path d="M55.7264 181.846L55.0322 181.431C63.2117 167.785 76.3864 158.523 96.5332 152.289L96.7671 153.044C76.8316 159.233 63.8003 168.381 55.7264 181.846Z" fill="#2E4882"/>
<path d="M45.2531 187.163L44.4985 186.891C55.0624 157.863 82.1588 148.549 107.278 143.266L107.444 144.058C82.5361 149.289 55.6736 158.512 45.2531 187.163Z" fill="#2E4882"/>
<path d="M410.907 18.0765C392.345 8.58899 376.635 6.00012 361.453 10.0306L361.25 9.27583C376.628 5.2227 392.526 7.76629 411.277 17.3896L410.907 18.0765Z" fill="#2E4882"/>
<path d="M424.851 19.0775C403.377 5.43119 377.714 -6.73575 350.248 6.50297L349.893 5.7482C377.721 -7.65657 403.618 4.60849 425.289 18.3755L424.851 19.0775Z" fill="#2E4882"/>
<path d="M323.657 55.9346C316.82 55.749 310.081 57.5957 304.293 61.2411C298.505 64.8865 293.928 70.167 291.14 76.4146C288.352 82.6623 287.479 89.5965 288.631 96.3405C289.784 103.084 292.909 109.335 297.613 114.302C302.317 119.269 308.388 122.729 315.058 124.245C321.727 125.761 328.697 125.264 335.085 122.817C341.472 120.371 346.991 116.085 350.943 110.501C354.895 104.917 357.103 98.2859 357.288 91.4467C357.411 86.9059 356.64 82.3853 355.016 78.143C353.393 73.9007 350.95 70.0198 347.827 66.7221C344.704 63.4243 340.962 60.7743 336.815 58.9234C332.668 57.0724 328.197 56.0569 323.657 55.9346ZM350.55 91.2655C350.4 96.7354 348.642 102.04 345.495 106.516C342.348 110.992 337.952 114.441 332.857 116.431C327.761 118.422 322.192 118.867 316.846 117.709C311.499 116.552 306.612 113.844 302.796 109.924C298.979 106.004 296.402 101.046 295.387 95.6687C294.372 90.2919 294.963 84.735 297.088 79.6926C299.212 74.6502 302.776 70.346 307.332 67.3179C311.888 64.2898 317.236 62.6722 322.706 62.6672H323.461C330.705 62.8713 337.585 65.8907 342.641 71.0847C347.697 76.2787 350.531 83.2387 350.542 90.4881C350.557 90.7825 350.557 91.0164 350.55 91.2655Z" fill="#FCC659"/>
<path d="M350.557 90.5076C350.557 90.7643 350.557 91.0209 350.557 91.2624C350.408 96.7323 348.649 102.037 345.503 106.513C342.356 110.988 337.96 114.437 332.864 116.428C327.769 118.419 322.2 118.864 316.853 117.706C311.507 116.549 306.62 113.841 302.803 109.921C298.987 106.001 296.41 101.042 295.394 95.6656C294.379 90.2887 294.971 84.7319 297.096 79.6895C299.22 74.6471 302.783 70.3429 307.34 67.3148C311.896 64.2867 317.244 62.6691 322.714 62.6641H323.469C330.718 62.8664 337.604 65.888 342.662 71.0871C347.72 76.2862 350.552 83.253 350.557 90.5076Z" fill="#F49B51"/>
<path d="M320.963 111.805V106.567C318.159 106.56 315.412 105.776 313.025 104.302L314.27 100.823C316.492 102.279 319.085 103.065 321.741 103.087C325.423 103.087 327.913 100.959 327.913 97.9998C327.913 95.0411 325.891 93.3882 322.05 91.8333C316.768 89.7577 313.493 87.3651 313.493 82.8591C313.493 78.5493 316.557 75.3114 321.326 74.5037V69.2656H324.54V74.3C326.904 74.3141 329.225 74.938 331.278 76.1114L329.98 79.4626C328.009 78.284 325.75 77.6728 323.453 77.6964C319.454 77.6964 317.953 80.0815 317.953 82.1572C317.953 84.8592 319.869 86.2027 324.382 88.0746C329.724 90.2483 332.418 92.9504 332.418 97.5621C332.418 101.66 329.565 105.502 324.231 106.378V111.774L320.963 111.805Z" fill="#FCC659"/>
<path d="M349.463 83.596C349.403 83.362 349.327 83.1205 349.259 82.8865C348.169 79.126 346.289 75.6419 343.743 72.6675C341.198 69.6931 338.046 67.2971 334.5 65.64L334.824 64.9531C338.466 66.6566 341.702 69.118 344.316 72.173C346.931 75.2279 348.863 78.8058 349.984 82.6676C350.059 82.9167 350.127 83.1658 350.195 83.4224L349.463 83.596Z" fill="#2E4882"/>
<path d="M334.5 65.6461C328.713 62.9364 322.161 62.333 315.976 63.9403L315.787 63.1856C322.143 61.5365 328.876 62.1558 334.825 64.9366L334.5 65.6461Z" fill="#2E4882"/>
<path d="M295.587 97.6168C294.642 94.0322 294.418 90.2953 294.928 86.6233C295.439 82.9513 296.673 79.4173 298.56 76.2266L299.209 76.6039C297.375 79.7102 296.175 83.1492 295.678 86.7222C295.18 90.2952 295.396 93.9314 296.312 97.4206L295.587 97.6168Z" fill="#2E4882"/>
<path d="M345.23 65.4158C342.571 63.0767 339.561 61.1692 336.311 59.7626L336.628 59.0078C339.956 60.4507 343.039 62.4038 345.766 64.7969L345.23 65.4158Z" fill="#2E4882"/>
<path d="M342.242 120.221L341.789 119.549C349.191 114.58 354.359 106.915 356.191 98.1882C358.024 89.4618 356.376 80.3645 351.598 72.8362L352.285 72.3984C357.173 80.1064 358.859 89.419 356.983 98.3519C355.107 107.285 349.817 115.132 342.242 120.221Z" fill="#2E4882"/>
<path d="M317.922 165.028L320.986 151.895L333.489 146.688L335.715 165.028C335.715 165.028 333.859 176.939 322.359 181.211C310.86 185.483 317.922 165.028 317.922 165.028Z" fill="#FCB47E"/>
<path d="M313.003 130.496C313.003 130.496 308.543 155.185 315.78 155.366C323.016 155.547 328.962 152.77 330.441 151.102C331.92 149.434 333.044 141.29 333.044 141.29C333.044 141.29 333.972 130.723 329.513 128.67C325.053 126.617 315.41 123.07 313.003 130.496Z" fill="#FCB47E"/>
<path d="M336.809 146.21C335.391 148.837 333.987 151.403 333.987 151.403C331.874 151.071 329.528 148.429 329.12 146.119C329.12 146.119 322.465 145.501 322.231 137.266C322.231 137.266 310.679 137.341 310.407 127.31C310.135 117.28 321.673 119.868 325.498 122.933C329.324 125.997 331.64 127.552 337.571 129.469C343.872 131.545 338.635 142.866 336.809 146.21Z" fill="#374263"/>
<path d="M331.406 384.667L329.988 370.047H314.564L317.915 384.214C317.915 384.214 319.703 388.969 324.887 388.788C326.254 388.796 327.594 388.412 328.749 387.681C329.905 386.951 330.827 385.905 331.406 384.667Z" fill="#FCB47E"/>
<path d="M407.323 339.025L395.484 330.391L385.229 341.908L400.404 349.6C400.404 349.6 402.283 349.969 406.086 346.664C409.889 343.358 407.323 339.025 407.323 339.025Z" fill="#FCB47E"/>
<path d="M344.422 374.62C335.504 378.002 324.094 377.073 311.803 374.62C311.448 373.768 311.093 372.907 310.754 372.039C287.362 312.835 303.917 226.836 303.917 226.836H340.748L339.895 255.261C338.305 262.734 337.156 270.295 336.454 277.904C331.768 327.508 344.422 374.62 344.422 374.62Z" fill="#3D3F7D"/>
<path d="M344.378 374.581C343.804 373.426 322.827 330.804 329.075 282.688L335.723 288.046C333.474 333.069 344.076 373.472 344.378 374.581Z" fill="#385087"/>
<path d="M403.897 323.612C400.517 333.1 396.918 340.474 393.002 344.746C391.506 346.547 389.546 347.904 387.335 348.671C381.938 345.921 376.743 342.791 371.791 339.304C371.149 338.859 370.516 338.406 369.882 337.946C369.044 337.327 368.214 336.708 367.414 336.081C367.045 335.802 366.66 335.515 366.328 335.228C365.573 334.662 364.887 334.074 364.192 333.5C363.498 332.926 362.955 332.458 362.351 331.938C359.264 329.272 356.324 326.44 353.545 323.454C353.284 323.172 353.032 322.893 352.791 322.616L352.232 322.005C315.085 280.704 321.899 226.82 321.899 226.82H354.209C356.956 278.507 403.897 323.612 403.897 323.612Z" fill="#3D3F7D"/>
<path d="M361.438 114.972C358.676 112.957 356.752 111.848 356.292 111.516C355.703 111.093 355.537 110.051 354.881 108.995C353.304 106.579 350.021 102.3 346.626 101.107C346.196 100.956 345.871 101.417 346.324 101.915C347.154 102.828 348.724 104.141 348.482 104.36C347.961 104.798 344.287 100.383 343.253 101.409C342.498 102.164 347.78 106.127 347.584 106.376C347.169 106.866 343.17 102.353 342.189 103.356C341.208 104.36 346.075 106.859 345.864 107.289C345.653 107.719 342.317 104.964 341.661 105.591C340.665 106.542 346.671 110.27 346.505 110.814C346.294 111.712 343.193 109.848 342.732 110.897C342.272 111.946 346.626 113.757 347.448 114.165C349.342 115.123 350.723 114.708 352.247 117.071C353.077 118.376 353.907 119.667 354.722 120.973L361.438 114.972Z" fill="#FCB47E"/>
<path d="M285.34 117.955C287.868 115.691 289.656 114.347 290.087 113.97C290.517 113.593 290.645 112.46 291.218 111.313C292.524 108.739 295.331 104.135 298.575 102.588C298.99 102.384 299.375 102.807 298.968 103.343C298.213 104.339 296.817 105.811 297.081 106.007C297.647 106.384 300.854 101.599 301.963 102.505C302.824 103.192 297.957 107.683 298.191 107.909C298.658 108.354 302.152 103.441 303.231 104.347C304.31 105.252 299.745 108.249 300.002 108.649C300.258 109.049 303.276 105.962 304.001 106.513C305.087 107.351 299.519 111.698 299.737 112.226C300.047 113.094 302.929 110.906 303.51 111.902C304.091 112.898 299.941 115.162 299.171 115.676C297.383 116.823 295.965 116.559 294.704 119.08C294.018 120.461 293.331 121.835 292.66 123.216L285.34 117.955Z" fill="#FCB47E"/>
<path d="M354.519 231.05C350.025 233.915 345.291 236.385 340.371 238.432C334.362 240.993 328.003 242.637 321.507 243.308C314.765 244.039 307.951 242.92 301.797 240.07C302.197 237.051 302.59 234.484 302.914 232.439C308.632 235.365 314.949 236.928 321.371 237.005C327.818 237.11 334.248 236.302 340.469 234.605C345.219 233.352 349.87 231.747 354.383 229.805C354.436 230.22 354.473 230.642 354.519 231.05Z" fill="#385087"/>
<path d="M295.746 227.13V186.478C295.746 186.478 259.217 180.274 266.393 144.898C270.92 122.413 286.993 114.39 286.993 114.39L295.889 121.537C295.889 121.537 276.98 150.46 301.873 160.499C301.873 160.499 315.877 160.061 319.522 164.001C319.522 164.001 327.55 170.424 336.009 159.774C336.009 159.774 344.619 156.415 351.953 158.385C357.989 160.008 365.769 145.033 351.327 119.643L360.381 111.469C360.381 111.469 413.337 162.401 361.4 187.64L358.503 228.262C358.503 228.262 318.292 251.064 295.746 227.13Z" fill="#439A97"/>
<path d="M327.513 147.626C329.105 147.626 330.395 146.335 330.395 144.743C330.395 143.15 329.105 141.859 327.513 141.859C325.921 141.859 324.63 143.15 324.63 144.743C324.63 146.335 325.921 147.626 327.513 147.626Z" fill="#FCB47E"/>
<path d="M335.368 298.14C328.445 284.504 323.977 269.754 322.17 254.567L322.804 254.484C324.607 269.598 329.057 284.276 335.949 297.846L335.368 298.14Z" fill="white"/>
<path d="M352.723 251.599C349.829 251.629 346.993 250.79 344.581 249.19C342.169 247.59 340.292 245.303 339.193 242.625L339.797 242.406C340.876 245.04 342.744 247.274 345.143 248.804C347.542 250.334 350.356 251.084 353.198 250.95V251.592L352.723 251.599Z" fill="white"/>
<path d="M324.623 169.284C324.437 169.284 324.248 169.284 324.057 169.284C319.462 168.854 317.138 163.488 317.04 163.246L317.636 162.997C317.636 163.05 319.899 168.243 324.117 168.628C327.656 168.952 331.565 165.91 335.745 159.57L336.281 159.925C332.169 166.167 328.252 169.284 324.623 169.284Z" fill="#2E4882"/>
<path d="M295.753 186.479C295.753 186.479 259.217 180.275 266.393 144.899C266.761 143.042 267.235 141.207 267.812 139.404C267.895 139.306 267.993 139.208 268.084 139.117C267.48 147.103 267.193 154.099 270.732 161.662C278.127 177.482 296.251 186.441 295.753 186.479Z" fill="#439A97"/>
<path d="M361.393 187.645L358.495 228.267C352.295 231.58 345.722 234.142 338.915 235.897C340.861 234.426 349.026 221.934 350.399 215.617C352.851 204.295 353.161 197.766 353.47 185.697C365.543 182.558 379.337 171.908 384.075 154.133C385.169 166.262 380.001 178.595 361.393 187.645Z" fill="#439A97"/>
<path d="M322.767 233.804H322.585V233.162C322.759 233.162 339.737 233.396 354.436 224.43L354.768 224.981C340.748 233.54 324.676 233.804 322.767 233.804Z" fill="#2E4882"/>
<path d="M393.002 344.773C391.506 346.573 389.546 347.931 387.335 348.697C381.938 345.948 376.743 342.818 371.791 339.331C371.149 338.885 370.515 338.432 369.882 337.972C369.044 337.353 368.214 336.734 367.414 336.108C367.044 335.828 366.66 335.542 366.328 335.255C365.573 334.689 364.886 334.1 364.192 333.526C363.498 332.953 362.955 332.485 362.351 331.964C359.264 329.298 356.324 326.466 353.545 323.48C353.284 323.199 353.032 322.919 352.791 322.643L352.232 322.031C374.311 340.297 388.444 344.025 393.002 344.773Z" fill="#385087"/>
<path d="M399.114 322.317C383.562 312.211 373.677 293.96 373.579 293.779L374.115 293.492C374.213 293.673 384.022 311.788 399.446 321.804L399.114 322.317Z" fill="white"/>
<path d="M333.361 396.285H298.394C298.104 396.286 297.817 396.227 297.551 396.111C297.285 395.995 297.046 395.826 296.849 395.613C296.652 395.4 296.501 395.149 296.406 394.875C296.311 394.601 296.274 394.31 296.297 394.021V393.975C296.297 393.711 296.357 393.432 296.395 393.16C296.467 392.293 296.744 391.455 297.202 390.715C298.862 388.511 302.084 387.507 307.819 385.235C310.615 384.091 313.294 382.678 315.817 381.016C316.03 380.877 316.284 380.816 316.537 380.842C316.789 380.868 317.026 380.98 317.206 381.159C324.117 387.952 328.366 386.443 329.641 383.688C330.607 381.559 331.98 382.005 332.365 382.631C333.527 384.578 334.168 390.292 334.425 393.16C334.425 393.47 334.485 393.749 334.5 393.975L334.561 394.836C334.595 395.013 334.59 395.195 334.546 395.369C334.501 395.544 334.419 395.706 334.304 395.845C334.189 395.984 334.045 396.095 333.882 396.171C333.719 396.247 333.541 396.286 333.361 396.285Z" fill="#374263"/>
<path d="M309.788 388.922C309.088 388.591 308.509 388.049 308.132 387.372C307.754 386.696 307.597 385.918 307.683 385.148L308.279 385.247C308.204 385.892 308.335 386.545 308.653 387.112C308.972 387.679 309.462 388.13 310.052 388.402L309.788 388.922Z" fill="white"/>
<path d="M306.694 389.959C306.04 389.62 305.499 389.098 305.139 388.455C304.778 387.813 304.613 387.079 304.664 386.344L305.261 386.419C305.225 387.036 305.369 387.65 305.676 388.186C305.983 388.722 306.439 389.157 306.989 389.438L306.694 389.959Z" fill="white"/>
<path d="M326.456 388.434C324.9 388.39 323.371 388.02 321.967 387.347L322.246 386.811C322.299 386.811 327.603 389.506 330.335 386.109L330.803 386.487C330.281 387.129 329.616 387.64 328.861 387.978C328.107 388.316 327.283 388.473 326.456 388.434Z" fill="white"/>
<path d="M330.229 393.562H309.849V394.166H330.229V393.562Z" fill="white"/>
<path d="M307.23 393.562H302.409V394.166H307.23V393.562Z" fill="white"/>
<path d="M417.751 341.135L400.66 371.658C400.523 371.912 400.334 372.135 400.106 372.313C399.878 372.49 399.615 372.618 399.335 372.689C399.055 372.76 398.764 372.772 398.479 372.725C398.194 372.677 397.922 372.571 397.68 372.413C397.453 372.262 397.235 372.104 397.008 371.93C396.289 371.44 395.695 370.789 395.273 370.028C394.163 367.507 394.865 364.209 395.68 358.088C396.047 355.083 396.123 352.05 395.906 349.03C395.891 348.779 395.963 348.53 396.108 348.324C396.253 348.118 396.464 347.968 396.706 347.898C405.987 345.166 406.802 340.758 405.007 338.282C403.626 336.395 404.682 335.414 405.414 335.384C407.678 335.324 412.96 337.55 415.593 338.728L416.348 339.06L417.102 339.422C417.263 339.484 417.41 339.58 417.531 339.703C417.653 339.825 417.748 339.972 417.809 340.134C417.87 340.295 417.897 340.468 417.887 340.641C417.877 340.813 417.831 340.982 417.751 341.135Z" fill="#374263"/>
<path d="M396.631 358.429C396.282 358.431 395.933 358.4 395.589 358.339L395.71 357.742C395.71 357.742 398.23 358.248 399.483 356.633L399.958 357.003C399.551 357.48 399.038 357.858 398.461 358.105C397.884 358.353 397.258 358.463 396.631 358.429Z" fill="white"/>
<path d="M396.359 361.749C396.008 361.751 395.657 361.721 395.311 361.659L395.439 361.063C395.439 361.063 397.952 361.568 399.212 359.953L399.695 360.323C399.286 360.801 398.772 361.179 398.194 361.426C397.615 361.674 396.988 361.784 396.359 361.749Z" fill="white"/>
<path d="M404.999 346.733L404.606 346.272C404.652 346.235 409.134 342.333 407.029 338.521L407.557 338.227C409.903 342.476 405.052 346.695 404.999 346.733Z" fill="white"/>
<path d="M413.394 343.176L403.629 361.07L404.159 361.36L413.924 343.466L413.394 343.176Z" fill="white"/>
<path d="M402.379 363.36L400.069 367.594L400.599 367.883L402.909 363.65L402.379 363.36Z" fill="white"/>
<path d="M301.759 160.893C301.45 160.802 293.98 158.629 290.109 151.481C287.43 146.56 287.166 140.529 289.309 133.562L290.064 133.796C287.989 140.544 288.238 146.363 290.818 151.081C294.531 157.919 301.918 160.093 301.993 160.138L301.759 160.893Z" fill="#2E4882"/>
<path d="M320.699 137.762C317.884 137.762 313.455 136.562 311.139 133.671C309.705 131.883 308.535 128.72 311.139 123.859L311.682 124.146C309.735 127.837 309.72 130.939 311.637 133.324C314.323 136.675 319.99 137.626 322.201 137.03L322.367 137.619C321.819 137.738 321.259 137.786 320.699 137.762Z" fill="#374263"/>
<path d="M318.096 138.334C315.663 138.289 313.298 137.519 311.305 136.123L311.637 135.617C318.269 139.995 323.355 136.221 323.408 136.183L323.77 136.666C322.087 137.776 320.111 138.356 318.096 138.334Z" fill="#374263"/>
<path d="M27.0229 238.578C27.0229 238.805 27.0229 239.023 27.0229 239.257C27.6643 267.109 31.6484 288.635 37.3605 305.27L52.165 313.444L40.2882 312.236H39.9486C47.3132 330.464 56.7754 341.99 65.5283 349.266C70.0051 353.044 75.001 356.16 80.3631 358.519L81.1855 358.866C81.8646 359.153 82.5211 359.402 83.1399 359.621H91.0401C91.1307 359.249 91.2137 358.879 91.2891 358.512C91.3495 358.278 91.3948 358.044 91.4401 357.81C91.4853 357.576 91.5759 357.191 91.6362 356.889C99.0687 320.501 85.8336 292.484 69.437 272.875C69.3887 272.808 69.3357 272.745 69.2785 272.686C63.9675 266.389 58.1038 260.579 51.7575 255.327L48.7393 264.384L47.5924 251.983C41.2942 247.014 34.573 242.607 27.5059 238.812L27.0229 238.578Z" fill="#439A97"/>
<path d="M26.7437 238.716L27.0379 239.245L44.989 272.296L45.3135 272.877L50.2106 281.889L50.3766 282.191L65.981 310.91L66.0036 310.956L91.4399 357.767L91.8248 358.468L92.4284 359.578H93.1226L92.519 358.468L91.6361 356.838L66.5318 310.646L66.064 309.786L27.4907 238.807L27.2794 238.422L26.7437 238.716Z" fill="white"/>
<path d="M29.677 269.276L29.4009 269.727L50.1902 282.48L50.4663 282.029L29.677 269.276Z" fill="white"/>
<path d="M29.1951 262.581L28.9189 263.031L45.212 273.026L45.4882 272.576L29.1951 262.581Z" fill="white"/>
<path d="M68.4633 313.325L71.4665 275.194L70.8779 275.148L67.8823 313.28L68.4633 313.325Z" fill="white"/>
<path d="M94.8204 367.183C94.8204 367.183 76.6053 376.995 49.2071 362.534L57.6054 358.005L43.5705 359.311C32.8255 352.594 20.8581 342.132 8.17388 326.101L11.3808 324.373L7.13258 324.765C4.98962 322.028 2.82905 319.122 0.650879 316.047C6.95357 315.332 13.3089 315.201 19.6357 315.655L25.7703 323.112L23.733 315.98C46.7547 318.244 80.5894 328.464 94.8204 367.183Z" fill="#439A97"/>
<path d="M0.769102 315.767L0.495605 316.297L96.0091 365.63L96.2826 365.1L0.769102 315.767Z" fill="white"/>
<path d="M25.4652 328.828L12.2695 330.891L12.3557 331.442L25.5514 329.38L25.4652 328.828Z" fill="white"/>
<path d="M31.9976 332.08L16.667 335.648L16.7936 336.192L32.1241 332.624L31.9976 332.08Z" fill="white"/>
<path d="M253.075 255.719H86.3391C82.2551 255.719 78.9443 259.03 78.9443 263.116V376.656C78.9443 380.741 82.2551 384.053 86.3391 384.053H253.075C257.159 384.053 260.47 380.741 260.47 376.656V263.116C260.47 259.03 257.159 255.719 253.075 255.719Z" fill="#439A97"/>
<path d="M254.961 269.039V370.737C254.961 371.761 254.76 372.774 254.368 373.72C253.976 374.665 253.402 375.524 252.678 376.248C251.954 376.971 251.095 377.545 250.149 377.936C249.203 378.327 248.19 378.527 247.167 378.526H235.411V267.831H88.9649C88.0917 267.831 87.2541 267.485 86.6359 266.868C86.0178 266.251 85.6695 265.414 85.6675 264.541C85.6675 263.666 86.0149 262.827 86.6333 262.208C87.2517 261.59 88.0904 261.242 88.9649 261.242H247.167C249.234 261.242 251.217 262.064 252.678 263.526C254.14 264.988 254.961 266.971 254.961 269.039Z" fill="#3D3F7D"/>
<path d="M210.48 257.386L210.955 257.982C214.301 262.314 216.296 267.536 216.691 272.996C217.086 278.455 215.863 283.91 213.176 288.679C210.488 293.447 206.455 297.317 201.581 299.806C196.707 302.294 191.207 303.29 185.77 302.669C180.333 302.048 175.199 299.837 171.011 296.314C166.823 292.791 163.766 288.111 162.222 282.859C160.679 277.608 160.717 272.017 162.332 266.787C163.947 261.557 167.067 256.919 171.303 253.453C171.499 253.287 171.703 253.129 171.907 252.97C177.647 248.543 184.887 246.528 192.089 247.353C199.29 248.177 205.887 251.776 210.48 257.386Z" fill="#F49B51"/>
<path d="M187.179 296.672V291.434C184.377 291.426 181.632 290.642 179.249 289.169L180.494 285.69C182.714 287.147 185.308 287.933 187.964 287.954C191.646 287.954 194.129 285.826 194.129 282.867C194.129 279.908 192.106 278.248 188.273 276.693C182.991 274.617 179.716 272.232 179.716 267.719C179.716 263.417 182.735 260.171 187.549 259.371V254.133H190.763V259.099C193.128 259.113 195.448 259.737 197.501 260.911L196.204 264.383C194.23 263.203 191.968 262.592 189.669 262.616C185.677 262.616 184.176 265.002 184.176 267.077C184.176 269.772 186.092 271.123 190.605 272.987C195.947 275.168 198.641 277.863 198.641 282.482C198.641 286.58 195.789 290.415 190.446 291.298V296.694L187.179 296.672Z" fill="#FCC659"/>
<path d="M197.683 241.548C191.065 239.817 184.083 240.087 177.62 242.324C171.156 244.562 165.501 248.666 161.369 254.119C157.238 259.572 154.816 266.127 154.409 272.957C154.003 279.787 155.63 286.584 159.085 292.488C162.541 298.393 167.669 303.14 173.822 306.129C179.974 309.118 186.875 310.215 193.651 309.281C200.426 308.347 206.773 305.424 211.888 300.881C217.003 296.339 220.657 290.382 222.387 283.763C223.538 279.368 223.811 274.79 223.192 270.29C222.573 265.789 221.074 261.455 218.78 257.535C216.485 253.615 213.441 250.185 209.821 247.442C206.201 244.699 202.077 242.696 197.683 241.548ZM215.86 282.057C214.474 287.35 211.559 292.118 207.479 295.763C203.399 299.409 198.336 301.771 192.921 302.553C187.507 303.336 181.982 302.506 177.037 300.165C172.092 297.825 167.947 294.078 165.119 289.394C162.29 284.71 160.905 279.296 161.136 273.829C161.367 268.362 163.204 263.084 166.417 258.655C169.63 254.226 174.077 250.843 179.201 248.928C184.326 247.013 189.901 246.651 195.23 247.888L195.985 248.077C202.987 249.92 208.997 254.418 212.742 260.616C216.487 266.815 217.673 274.229 216.049 281.287C215.981 281.566 215.928 281.815 215.86 282.057Z" fill="#FCC659"/>
<path d="M138.253 214.567C131.416 214.382 124.678 216.228 118.89 219.874C113.102 223.519 108.525 228.799 105.737 235.046C102.949 241.293 102.076 248.227 103.227 254.971C104.379 261.714 107.504 267.965 112.207 272.932C116.91 277.899 122.98 281.36 129.649 282.877C136.319 284.393 143.288 283.897 149.675 281.452C156.063 279.007 161.582 274.722 165.536 269.139C169.489 263.556 171.698 256.926 171.884 250.087C172.007 245.546 171.236 241.025 169.612 236.782C167.989 232.539 165.546 228.658 162.423 225.36C159.3 222.061 155.558 219.411 151.411 217.559C147.264 215.707 142.793 214.691 138.253 214.567ZM165.138 249.906C165 255.38 163.251 260.693 160.11 265.178C156.969 269.664 152.576 273.123 147.479 275.123C142.383 277.124 136.81 277.577 131.457 276.425C126.105 275.273 121.211 272.568 117.387 268.648C113.564 264.729 110.981 259.768 109.962 254.388C108.943 249.007 109.532 243.445 111.657 238.398C113.782 233.351 117.347 229.043 121.907 226.012C126.468 222.982 131.82 221.364 137.295 221.36H138.049C145.294 221.563 152.174 224.582 157.229 229.776C162.284 234.971 165.116 241.932 165.123 249.181C165.146 249.415 165.146 249.672 165.138 249.929V249.906Z" fill="#FCC659"/>
<path d="M158.853 231.544L159.336 232.133C162.68 236.465 164.674 241.687 165.069 247.146C165.463 252.605 164.24 258.06 161.552 262.828C158.865 267.595 154.832 271.465 149.958 273.953C145.084 276.441 139.585 277.437 134.148 276.816C128.711 276.195 123.578 273.985 119.39 270.463C115.202 266.94 112.145 262.261 110.601 257.01C109.056 251.759 109.094 246.169 110.708 240.939C112.322 235.709 115.441 231.071 119.676 227.604C119.88 227.438 120.083 227.287 120.287 227.129C126.026 222.701 133.265 220.684 140.466 221.509C147.667 222.333 154.263 225.933 158.853 231.544Z" fill="#F49B51"/>
<path d="M135.552 270.468V265.23C132.747 265.228 129.998 264.443 127.614 262.965L128.859 259.493C131.084 260.936 133.677 261.709 136.329 261.72C140.011 261.72 142.501 259.592 142.501 256.64C142.501 253.689 140.479 252.021 136.638 250.466C131.356 248.391 128.082 246.006 128.082 241.492C128.082 237.19 131.145 233.944 135.914 233.144V227.906H139.128V232.933C141.495 232.954 143.817 233.58 145.874 234.752L144.576 238.171C142.599 237 140.34 236.391 138.042 236.413C134.05 236.413 132.541 238.798 132.541 240.873C132.541 243.568 134.465 244.919 138.977 246.783C144.312 248.964 147.014 251.659 147.014 256.278C147.014 260.377 144.161 264.211 138.819 265.094V270.491L135.552 270.468Z" fill="#FCC659"/>
<path d="M159.818 223.666C157.155 221.332 154.146 219.425 150.899 218.013L151.224 217.258C154.549 218.703 157.629 220.656 160.354 223.047L159.818 223.666Z" fill="#2E4882"/>
<path d="M156.831 278.44L156.378 277.768C163.776 272.798 168.941 265.134 170.774 256.41C172.606 247.686 170.96 238.591 166.187 231.063L166.866 230.625C171.757 238.328 173.447 247.637 171.577 256.568C169.706 265.5 164.423 273.348 156.853 278.44H156.831Z" fill="#2E4882"/>
<path d="M163.742 242.073C163.682 241.839 163.614 241.605 163.546 241.371C162.457 237.607 160.576 234.119 158.029 231.142C155.483 228.165 152.329 225.767 148.779 224.109L149.104 223.43C152.746 225.13 155.983 227.59 158.597 230.644C161.212 233.698 163.143 237.275 164.263 241.137C164.338 241.401 164.414 241.642 164.474 241.891L163.742 242.073Z" fill="#2E4882"/>
<path d="M148.779 224.11C142.989 221.407 136.44 220.804 130.255 222.404L130.066 221.649C136.422 219.996 143.155 220.616 149.104 223.4L148.779 224.11Z" fill="#2E4882"/>
<path d="M161.486 263.272L160.837 262.887C162.673 259.78 163.876 256.34 164.376 252.766L165.131 252.871C164.614 256.545 163.375 260.08 161.486 263.272Z" fill="#2E4882"/>
<path d="M241.47 267.961H86.1127C82.1537 267.961 78.9443 271.171 78.9443 275.131V387.502C78.9443 391.462 82.1537 394.672 86.1127 394.672H241.47C245.429 394.672 248.638 391.462 248.638 387.502V275.131C248.638 271.171 245.429 267.961 241.47 267.961Z" fill="#439A97"/>
<path d="M143.709 389.677H92.6926C90.8461 389.675 89.0758 388.94 87.7701 387.634C86.4644 386.328 85.73 384.558 85.728 382.71V372.898H86.5354V382.71C86.5374 384.343 87.1867 385.909 88.341 387.063C89.4953 388.218 91.0603 388.867 92.6926 388.869H143.709V389.677Z" fill="#2E4882"/>
<path d="M171.862 388.875H156.129V389.683H171.862V388.875Z" fill="#2E4882"/>
<path d="M241.855 293.452H241.047V279.904C241.045 278.271 240.396 276.706 239.242 275.551C238.087 274.397 236.523 273.747 234.89 273.745H168.247V272.938H234.89C236.737 272.939 238.507 273.674 239.813 274.98C241.118 276.286 241.853 278.057 241.855 279.904V293.452Z" fill="#2E4882"/>
<path d="M156.257 272.938H141.226V273.745H156.257V272.938Z" fill="#2E4882"/>
<path d="M86.5354 343.023H85.728V362.149H86.5354V343.023Z" fill="#2E4882"/>
<path d="M260.259 305.297V341.103C260.26 342.172 260.05 343.231 259.641 344.218C259.233 345.206 258.634 346.103 257.878 346.859C257.123 347.615 256.226 348.214 255.238 348.622C254.251 349.031 253.193 349.241 252.124 349.24H221.187C218.802 349.289 216.432 348.861 214.214 347.982C211.997 347.103 209.977 345.79 208.273 344.12C206.569 342.451 205.215 340.458 204.291 338.258C203.367 336.058 202.891 333.696 202.891 331.31C202.891 328.924 203.367 326.562 204.291 324.362C205.215 322.163 206.569 320.17 208.273 318.5C209.977 316.83 211.997 315.517 214.214 314.638C216.432 313.759 218.802 313.332 221.187 313.381H252.124C252.351 313.381 252.577 313.381 252.804 313.381C254.832 313.211 256.723 312.286 258.103 310.789C259.483 309.293 260.253 307.333 260.259 305.297Z" fill="#3D3F7D"/>
<path d="M225.432 337.231C228.7 333.962 228.7 328.663 225.432 325.394C222.164 322.125 216.865 322.125 213.597 325.394C210.329 328.663 210.329 333.962 213.597 337.231C216.865 340.5 222.164 340.5 225.432 337.231Z" fill="white"/>
<path d="M219.512 340.088V339.28C221.624 339.28 223.648 338.441 225.141 336.948C226.634 335.455 227.473 333.429 227.473 331.317C227.473 329.205 226.634 327.18 225.141 325.687C223.648 324.193 221.624 323.354 219.512 323.354V322.547C221.838 322.547 224.068 323.471 225.712 325.116C227.356 326.76 228.28 328.991 228.28 331.317C228.28 333.643 227.356 335.874 225.712 337.519C224.068 339.164 221.838 340.088 219.512 340.088Z" fill="#2E4882"/>
<path d="M211.552 331.314H210.744C210.741 330.161 210.967 329.02 211.407 327.955C211.847 326.89 212.494 325.923 213.31 325.109L213.883 325.683C213.142 326.421 212.554 327.298 212.153 328.265C211.753 329.231 211.549 330.267 211.552 331.314Z" fill="#2E4882"/>
<path d="M75.6394 338.185C71.2134 334.015 66.286 330.412 60.9707 327.459L61.3631 326.75C66.7383 329.736 71.7215 333.38 76.1978 337.596L75.6394 338.185Z" fill="#2E4882"/>
<path d="M52.1346 323.205C49.1167 321.977 46.0364 320.909 42.9062 320.005L43.1326 319.25C46.2792 320.167 49.3747 321.25 52.4062 322.496L52.1346 323.205Z" fill="#2E4882"/>
<path d="M253.369 98.6742C240.189 95.0278 226.334 94.5468 212.932 97.2703C206.255 98.6037 199.762 100.735 193.593 103.618C187.408 106.489 181.583 110.078 176.238 114.313C165.496 122.801 156.931 133.727 151.254 146.187C150.545 147.697 149.919 149.319 149.262 150.889C148.606 152.459 148.07 154.082 147.572 155.705C146.526 158.944 145.667 162.24 144.999 165.577C144.682 167.245 144.38 168.921 144.161 170.612C144.101 171.034 144.041 171.449 143.995 171.872L143.942 172.333L143.905 172.612C143.905 172.982 143.814 173.367 143.784 173.729L137.483 173.095C140.007 179.542 143.342 185.642 147.406 191.247C149.953 185.454 153.251 180.021 157.215 175.087L150.915 174.453C150.915 174.106 150.99 173.767 151.028 173.427V173.17L151.081 172.755C151.081 172.363 151.179 172 151.232 171.593C151.435 170.046 151.707 168.506 151.986 166.974C152.599 163.912 153.387 160.887 154.348 157.916C154.808 156.407 155.389 154.973 155.902 153.493C156.415 152.014 157.079 150.603 157.728 149.184C160.343 143.508 163.601 138.151 167.44 133.22C171.323 128.307 175.768 123.864 180.682 119.981C185.582 116.095 190.923 112.801 196.596 110.169C202.254 107.517 208.21 105.553 214.336 104.32C226.627 101.82 239.335 102.262 251.423 105.611L253.369 98.6742Z" fill="#439A97"/>
<path d="M186.99 107.167L186.605 106.525C188.703 105.257 190.884 104.072 193.087 103.001C198.756 100.286 204.722 98.2423 210.865 96.9095C217.003 95.5776 223.276 94.9746 229.555 95.1132C235.836 95.2282 242.08 96.0948 248.155 97.6945L247.959 98.4493C241.947 96.8608 235.765 96.0018 229.548 95.8906C223.327 95.7504 217.111 96.3483 211.031 97.6719C204.951 98.9966 199.046 101.023 193.434 103.71C191.246 104.744 189.073 105.914 186.99 107.167Z" fill="#2E4882"/>
<path d="M170.873 119.992L170.322 119.472C171.009 118.717 171.748 118.038 172.458 117.358C172.865 116.966 173.273 116.603 173.673 116.181C174.072 115.758 174.367 115.569 174.706 115.275C175.529 114.52 176.381 113.803 177.242 113.094L177.725 113.675C176.864 114.377 176.019 115.117 175.204 115.841C174.865 116.135 174.533 116.437 174.186 116.732C173.839 117.026 173.393 117.487 172.978 117.909C172.292 118.573 171.56 119.275 170.873 119.992Z" fill="#2E4882"/>
<path d="M147.519 192L147.127 191.472C143.642 186.742 140.677 181.651 138.283 176.286L138.977 175.977C141.258 181.093 144.062 185.96 147.346 190.498C149.089 186.573 151.172 182.808 153.571 179.245L154.197 179.66C151.704 183.368 149.554 187.297 147.776 191.397L147.519 192Z" fill="#2E4882"/>
<path d="M144.184 173.756L143.43 173.703C143.825 168.796 144.736 163.943 146.146 159.227L146.901 159.453C145.492 164.111 144.581 168.906 144.184 173.756Z" fill="#2E4882"/>
<path d="M91.6436 326.188C85.0248 327.912 79.0657 331.56 74.5196 336.671C69.9736 341.782 67.0449 348.127 66.1038 354.904C65.1628 361.68 66.2516 368.583 69.2327 374.74C72.2138 380.898 76.9532 386.032 82.8517 389.495C88.7501 392.958 95.5427 394.594 102.371 394.196C109.198 393.797 115.755 391.383 121.211 387.257C126.667 383.132 130.777 377.48 133.022 371.018C135.267 364.556 135.546 357.573 133.824 350.952C132.681 346.555 130.683 342.426 127.944 338.802C125.206 335.177 121.78 332.128 117.863 329.828C113.946 327.529 109.614 326.023 105.115 325.399C100.617 324.774 96.0388 325.042 91.6436 326.188ZM127.297 352.688C128.672 357.985 128.457 363.57 126.677 368.746C124.897 373.921 121.632 378.457 117.289 381.786C112.947 385.116 107.72 387.091 102.261 387.466C96.8028 387.841 91.3549 386.598 86.5983 383.894C81.8418 381.189 77.9876 377.142 75.5174 372.259C73.0472 367.375 72.0706 361.872 72.7095 356.436C73.3485 351.001 75.5747 345.874 79.11 341.697C82.6452 337.52 87.3328 334.478 92.5868 332.951L93.3414 332.747C100.359 330.92 107.812 331.902 114.118 335.485C120.423 339.068 125.083 344.968 127.108 351.933C127.161 352.167 127.236 352.409 127.297 352.688Z" fill="#FCC659"/>
<path d="M127.108 351.933C127.176 352.174 127.252 352.416 127.312 352.687C128.687 357.985 128.472 363.57 126.692 368.745C124.912 373.92 121.647 378.456 117.305 381.786C112.962 385.115 107.735 387.091 102.277 387.466C96.818 387.84 91.37 386.598 86.6135 383.893C81.8569 381.188 78.0027 377.141 75.5325 372.258C73.0623 367.375 72.0857 361.871 72.7247 356.436C73.3636 351 75.5898 345.874 79.1251 341.697C82.6604 337.52 87.3479 334.477 92.6019 332.95L93.3565 332.746C100.372 330.924 107.822 331.908 114.123 335.491C120.425 339.073 125.083 344.971 127.108 351.933Z" fill="#F49B51"/>
<path d="M124.58 384.891L124.052 384.348C130.016 378.614 133.702 370.914 134.429 362.672C135.156 354.43 132.874 346.204 128.006 339.514L128.617 339.107C131.206 342.65 133.095 346.653 134.186 350.904C135.739 356.912 135.668 363.226 133.98 369.197C132.292 375.169 129.048 380.585 124.58 384.891ZM120.053 331.68C116.804 329.391 113.181 327.687 109.346 326.645L109.542 325.891C113.462 326.959 117.167 328.701 120.491 331.038L120.053 331.68Z" fill="#2E4882"/>
<path d="M104.577 380.615L103.121 375.581C100.423 376.348 97.5639 376.348 94.8658 375.581L95.0997 371.898C97.638 372.665 100.343 372.689 102.894 371.966C106.426 370.939 108.229 368.192 107.422 365.369C106.614 362.546 104.2 361.489 100.08 361.067C94.4206 360.538 90.6176 359.157 89.365 354.825C88.1728 350.689 90.2026 346.696 94.5715 344.62L93.1152 339.593L96.2013 338.695L97.5973 343.533C99.8767 342.891 102.283 342.847 104.585 343.405L104.283 347.051C102.051 346.465 99.7011 346.507 97.4916 347.171C93.6509 348.281 92.8737 350.991 93.4472 352.983C94.2018 355.58 96.4126 356.342 101.264 356.878C107.007 357.489 110.319 359.331 111.625 363.761C112.764 367.701 111.089 372.177 106.207 374.509L107.716 379.695L104.577 380.615Z" fill="#FCC659"/>
<path d="M75.7075 340.328C78.1501 341.575 80.0954 343.617 81.2234 346.117C82.3559 343.615 84.303 341.572 86.7468 340.32C84.3036 339.072 82.3563 337.031 81.2234 334.531C80.0938 337.032 78.1492 339.076 75.7075 340.328Z" fill="#FFE6A6"/>
<path d="M87.0107 349.319C88.4281 350.048 89.5581 351.234 90.2176 352.686C90.8727 351.231 92.0039 350.044 93.4245 349.319C92.0054 348.593 90.8747 347.406 90.2176 345.953C89.5581 347.404 88.4281 348.59 87.0107 349.319Z" fill="#FFE6A6"/>
<path d="M126.935 352.751L126.731 351.996C125.638 348.239 123.756 344.758 121.211 341.787C118.666 338.815 115.516 336.421 111.972 334.765L112.296 334.078C115.938 335.782 119.174 338.243 121.788 341.298C124.402 344.353 126.334 347.931 127.455 351.793C127.531 352.034 127.599 352.283 127.667 352.547L126.935 352.751Z" fill="#2E4882"/>
<path d="M111.971 334.794C106.187 332.076 99.6345 331.465 93.4469 333.065L93.2583 332.311C99.6146 330.662 106.347 331.281 112.296 334.062L111.971 334.794Z" fill="#2E4882"/>
<path d="M73.0591 366.765C72.1136 363.181 71.8895 359.444 72.3998 355.772C72.9102 352.1 74.1448 348.566 76.032 345.375L76.681 345.752C74.847 348.859 73.6466 352.298 73.1492 355.871C72.6519 359.444 72.8675 363.08 73.7834 366.569L73.0591 366.765Z" fill="#2E4882"/>
<path d="M124.679 373.952L124.03 373.575C125.864 370.467 127.067 367.027 127.569 363.453L128.323 363.559C127.806 367.23 126.567 370.762 124.679 373.952Z" fill="#2E4882"/>
<path d="M112.326 229.828C114.769 231.075 116.714 233.117 117.842 235.617C118.971 233.121 120.906 231.077 123.335 229.813C120.898 228.56 118.952 226.524 117.812 224.031C116.687 226.526 114.755 228.568 112.326 229.828Z" fill="#FFE6A6"/>
<path d="M149.579 261.561C150.994 262.288 152.121 263.471 152.778 264.92C153.441 263.468 154.573 262.282 155.993 261.554C154.573 260.825 153.441 259.639 152.778 258.188C152.122 259.64 150.995 260.829 149.579 261.561Z" fill="#FFE6A6"/>
<path d="M302.695 68.2732C305.138 69.5203 307.083 71.562 308.211 74.0623C309.343 71.5586 311.29 69.5125 313.735 68.2581C311.291 67.0113 309.341 64.9734 308.204 62.4766C307.073 64.9748 305.132 67.0175 302.695 68.2732Z" fill="#FFE6A6"/>
<path d="M449.375 370.984C451.814 372.232 453.758 374.27 454.891 376.765C456.03 374.269 457.976 372.227 460.414 370.969C457.974 369.716 456.028 367.676 454.891 365.18C453.759 367.681 451.815 369.727 449.375 370.984Z" fill="#FFE6A6"/>
<path d="M445.647 388.312C447.065 389.041 448.195 390.227 448.854 391.678C449.511 390.223 450.642 389.033 452.061 388.304C450.643 387.58 449.512 386.396 448.854 384.945C448.195 386.397 447.065 387.583 445.647 388.312Z" fill="#FFE6A6"/>
</g>
<defs>
<clipPath id="clip0_1760_45250">
<rect width="632" height="408" fill="white" transform="translate(0.5)"/>
</clipPath>
</defs>
</svg>
