<?xml version="1.0" encoding="utf-8"?>
<!-- Generator: Adobe Illustrator 26.5.0, SVG Export Plug-In . SVG Version: 6.00 Build 0)  -->
<svg version="1.1" id="Layer_1" xmlns="http://www.w3.org/2000/svg" xmlns:xlink="http://www.w3.org/1999/xlink" x="0px" y="0px"
	 viewBox="0 0 500 124.23" style="enable-background:new 0 0 500 124.23;" xml:space="preserve">
<style type="text/css">
	.st0{fill:#F99418;}
	.st1{fill:#FFFFFF;}
	.st2{fill:#211D4F;}
</style>
<g>
	<g>
		<circle class="st0" cx="62.11" cy="62.11" r="62.11"/>
		<g>
			<polygon class="st1" points="19.98,26.86 24.81,72.45 29.17,76.36 43.23,59.97 41.84,58.3 35.96,40.29 29.17,38.67 			"/>
			<path class="st1" d="M39.09,86.15c0,0,9.05,6.7,26.5,9.47c18.38,2.92,34.37,9.91,34.37,9.91s-11.44-14.44-24.5-22.92
				S55.66,70.6,55.66,70.6l-1.73-2.06L39.09,86.15z"/>
			<path class="st1" d="M89.57,17.44l-0.06-5.28L72.89,31.15L45.88,61.44L31.59,78.32l-12.55,21.1l18.13-15.86c0,0,0,0,0,0
				l14.48-17.17l25.37-31.18c0.08-0.09,0.12-0.21,0.13-0.33l0.08,0.07l-0.11-0.32c0,0,0,0,0,0l-1.1-3.24l2.24,0.35l0.6,0.09h0
				l0.86,0.13l-0.25-1.13l-0.56-2.55c0,0,0,0,0,0l2.88,1.21v-0.89v-1.68c0-0.34,0.26-0.57,0.54-0.59l1.57,1.37l0.48-3.66
				c0.02-0.07,0.05-0.15,0.1-0.2"/>
		</g>
	</g>
	<g>
		<path class="st2" d="M168.77,57.96c2.92-3.81,7.48-4.69,12.12-4.34c9.67,0.74,15.84,8.66,15.84,19.29v29.46h-13.04V76.64
			c-0.15-1.68,0.28-8.25-7.08-8.25c-7.73,0-7.66,7.49-7.83,9.83v24.15h-13.04V21.86h13.04"/>
		<path class="st2" d="M250.96,78.04c0,14.16-9.69,24.32-24.04,24.32c-14.35,0-24.04-10.16-24.04-24.32
			c0-14.25,9.78-24.41,24.04-24.41C241.18,53.63,250.96,63.78,250.96,78.04z M216.12,78.04c0,6.15,4.1,12.76,10.81,12.76
			c6.71,0,10.81-6.61,10.81-12.76c0-6.34-4.1-12.86-10.81-12.86C220.22,65.18,216.12,71.7,216.12,78.04z"/>
		<path class="st2" d="M270.15,59.22h0.19c2.52-3.63,6.99-5.59,11.18-5.59c5.68,0,10.15,2.33,13.14,7.17
			c2.8-4.47,4.99-6.95,13.32-7.17c10.95,0.6,14.53,8.76,14.53,18.73v30.02h-13.04V76.82c0.02-3.66-0.74-8.43-6.38-8.43
			c-6.75,0.28-6.6,6.03-6.76,10.01v23.96h-13.04V77.66c0-2.97,0.56-9.28-6.24-9.28c-7.27,0-6.84,6.44-6.89,10.02v23.96h-13.04V55.12
			h13.04V59.22z"/>
		<path class="st2" d="M375.06,102.37H362.2v-5.7h-0.19c-2.79,3.63-7.64,5.68-12.39,5.68c-13.42,0-21.06-12.2-21.06-24.6
			c0-12.11,7.73-24.13,20.87-24.13c4.75,0,9.6,2.05,12.76,5.78V53.6h12.86V102.37z M363.51,77.94c0-6.15-4.19-12.76-10.9-12.76
			s-10.81,6.61-10.81,12.76c0,6.15,4.1,12.86,10.81,12.86S363.51,84.09,363.51,77.94z"/>
		<path class="st2" d="M427.7,102.37h-12.86v-5.7h-0.19c-2.79,3.63-7.64,5.68-12.39,5.68c-13.42,0-21.06-12.2-21.06-24.6
			c0-12.11,7.73-24.13,20.87-24.13c4.75,0,9.6,2.05,12.76,5.78V53.6h12.86V102.37z M416.15,77.94c0-6.15-4.19-12.76-10.9-12.76
			s-10.81,6.61-10.81,12.76c0,6.15,4.1,12.86,10.81,12.86S416.15,84.09,416.15,77.94z"/>
		<path class="st2" d="M450.16,102.37h-13.04V21.86h13.04V102.37z"/>
		<path class="st2" d="M469.91,80.09c0,5.78,2.29,12.34,9.08,12.53c3.41,0.09,6.95-1.4,8.71-5.31l12.02,0.02
			c-3.17,9.13-11.18,15.03-20.78,15.03c-14.16,0-22.83-10.06-22.83-23.94c0-13.88,7.36-24.78,22.17-24.78
			c15,0,21.71,11.09,21.71,24.88v1.58H469.91z M487.7,71.98c-0.65-4.66-3.63-9.22-8.66-9.22c-5.22,0-8.11,4.47-8.76,9.22H487.7z"/>
	</g>
</g>
</svg>
