<svg width="48" height="48" viewBox="0 0 48 48" fill="none" xmlns="http://www.w3.org/2000/svg">
<path d="M29.1758 31.9891L32.0038 29.1621L44.0228 41.1811L41.1948 44.0081L29.1758 31.9891Z" fill="#616161"/>
<path d="M20 36C28.8366 36 36 28.8366 36 20C36 11.1634 28.8366 4 20 4C11.1634 4 4 11.1634 4 20C4 28.8366 11.1634 36 20 36Z" fill="#616161"/>
<path d="M32.4492 35.3397L35.2762 32.5117L43.9722 41.2077L41.1442 44.0357L32.4492 35.3397Z" fill="#37474F"/>
<path d="M20 33C27.1797 33 33 27.1797 33 20C33 12.8203 27.1797 7 20 7C12.8203 7 7 12.8203 7 20C7 27.1797 12.8203 33 20 33Z" fill="#64B5F6"/>
<path d="M26.8984 14.2C25.1984 12.2 22.6984 11 19.9984 11C17.2984 11 14.7984 12.2 13.0984 14.2C12.6984 14.6 12.7984 15.3 13.1984 15.6C13.5984 16 14.2984 15.9 14.5984 15.5C15.9984 13.9 17.8984 13 19.9984 13C22.0984 13 23.9984 13.9 25.3984 15.5C25.5984 15.7 25.8984 15.9 26.1984 15.9C26.3984 15.9 26.6984 15.8 26.7984 15.7C27.1984 15.3 27.1984 14.6 26.8984 14.2Z" fill="#BBDEFB"/>
</svg>
