<svg width="40" height="40" viewBox="0 0 40 40" fill="none" xmlns="http://www.w3.org/2000/svg">
<path d="M21.4408 17.6008C20.4808 17.3608 19.5208 16.8808 18.8008 16.1608C18.0808 15.9208 17.8408 15.2008 17.8408 14.7208C17.8408 14.2408 18.0808 13.5208 18.5608 13.2808C19.2808 12.8008 20.0008 12.3208 20.7208 12.5608C22.1608 12.5608 23.3608 13.2808 24.0808 14.2408L26.2408 11.3608C25.5208 10.6408 24.8008 10.1608 24.0808 9.68078C23.3608 9.20078 22.4008 8.96078 21.4408 8.96078V5.60078H18.5608V8.96078C17.3608 9.20078 16.1608 9.92078 15.2008 10.8808C14.2408 12.0808 13.5208 13.5208 13.7608 14.9608C13.7608 16.4008 14.2408 17.8408 15.2008 18.8008C16.4008 20.0008 18.0808 20.7208 19.5208 21.4408C20.2408 21.6808 21.2008 22.1608 21.9208 22.6408C22.4008 23.1208 22.6408 23.8408 22.6408 24.5608C22.6408 25.2808 22.4008 26.0008 21.9208 26.7208C21.2008 27.4408 20.2408 27.6808 19.5208 27.6808C18.5608 27.6808 17.3608 27.4408 16.6408 26.7208C15.9208 26.2408 15.2008 25.5208 14.7208 24.8008L12.3208 27.4408C13.0408 28.4008 13.7608 29.1208 14.7208 29.8408C15.9208 30.5608 17.3608 31.2808 18.8008 31.2808V34.4008H21.4408V30.8008C22.8808 30.5608 24.0808 29.8408 25.0408 28.8808C26.2408 27.6808 26.9608 25.7608 26.9608 24.0808C26.9608 22.6408 26.4808 20.9608 25.2808 20.0008C24.0808 18.8008 22.8808 18.0808 21.4408 17.6008V17.6008ZM20.0008 0.800781C9.44078 0.800781 0.800781 9.44078 0.800781 20.0008C0.800781 30.5608 9.44078 39.2008 20.0008 39.2008C30.5608 39.2008 39.2008 30.5608 39.2008 20.0008C39.2008 9.44078 30.5608 0.800781 20.0008 0.800781ZM20.0008 36.5608C10.8808 36.5608 3.44078 29.1208 3.44078 20.0008C3.44078 10.8808 10.8808 3.44078 20.0008 3.44078C29.1208 3.44078 36.5608 10.8808 36.5608 20.0008C36.5608 29.1208 29.1208 36.5608 20.0008 36.5608V36.5608Z" fill="#FFCA6A"/>
</svg>
