<svg width="97" height="97" viewBox="0 0 97 97" fill="none" xmlns="http://www.w3.org/2000/svg">
<path d="M61 7L53.125 25.375C52.25 27.375 52.0625 29.4375 52.5625 31.5625C53.0625 33.6875 54.1875 35.4375 55.9375 36.8125L62.3125 42.0625C57.3125 50.5625 50.625 57.3125 42.25 62.3125L37 55.9375C35.625 54.1875 33.875 53.0625 31.75 52.5625C29.625 52.0625 27.5625 52.25 25.5625 53.125L7 61C4.75 62 3.125 63.5625 2.125 65.6875C1 67.6875 0.6875 69.875 1.1875 72.25L5.125 89.3125C5.75 91.6875 6.9375 93.5625 8.6875 94.9375C10.4375 96.3125 12.4375 97 14.6875 97C30.0625 96.875 43.9375 93.125 56.3125 85.75C68.5625 78.375 78.375 68.5625 85.75 56.3125C93.125 43.9375 96.875 30.0625 97 14.6875C97 12.4375 96.3125 10.4375 94.9375 8.6875C93.5625 6.9375 91.6875 5.8125 89.3125 5.3125L72.25 1.375C69.875 0.875 67.6875 1.125 65.6875 2.125C63.5625 3.125 62 4.75 61 7ZM70.1875 10L87.4375 13.9375C87.6875 14.0625 87.875 14.3125 88 14.6875C87.875 28.3125 84.5625 40.625 78.0625 51.625C71.4375 62.625 62.625 71.4375 51.625 78.0625C40.625 84.5625 28.3125 87.875 14.6875 88C14.3125 88 14.0625 87.8125 13.9375 87.4375L10 70.1875C10 70.1875 10 70.125 10 70C10 69.75 10.1875 69.5 10.5625 69.25L28.9375 61.375C29.3125 61.25 29.625 61.3125 29.875 61.5625L37.1875 70.75C38.6875 72.5 40.5 72.9375 42.625 72.0625C49 68.8125 54.6875 64.75 59.6875 59.875C64.6875 54.875 68.75 49.1875 71.875 42.8125C72.75 40.8125 72.3125 39 70.5625 37.375L61.5625 29.875C61.1875 29.625 61.0625 29.3125 61.1875 28.9375L69.0625 10.5625C69.4375 10.1875 69.8125 10 70.1875 10Z" fill="#3EAEFF"/>
</svg>
