<svg width="96" height="96" viewBox="0 0 96 96" fill="none" xmlns="http://www.w3.org/2000/svg">
<path d="M36.75 64.6875C38.5 65.1875 39.25 66.375 39 68.25C38.375 70 37.125 70.75 35.25 70.5L29.25 69C27.5 68.375 26.8125 67.125 27.1875 65.25C27.6875 63.5 28.875 62.8125 30.75 63.1875L36.75 64.6875ZM46.5 65.25C44.75 64.625 44.0625 63.375 44.4375 61.5L45.9375 55.5C46.4375 53.75 47.625 53.0625 49.5 53.4375C51.25 53.9375 52 55.125 51.75 57L50.25 63C49.625 64.75 48.375 65.5 46.5 65.25ZM62.625 31.3125C61.75 32.9375 60.4375 33.375 58.6875 32.625C57.0625 31.75 56.625 30.4375 57.375 28.6875L60.375 22.6875C61.25 21.0625 62.5625 20.625 64.3125 21.375C65.9375 22.25 66.375 23.5625 65.625 25.3125L62.625 31.3125ZM96 48C95.875 57 93.6875 65.0625 89.4375 72.1875C85.1875 79.4375 79.4375 85.1875 72.1875 89.4375C65.0625 93.6875 57 95.875 48 96C39 95.875 30.9375 93.6875 23.8125 89.4375C16.5625 85.1875 10.8125 79.4375 6.5625 72.1875C2.3125 65.0625 0.125 57 0 48C0.125 39 2.3125 30.9375 6.5625 23.8125C10.8125 16.5625 16.5625 10.8125 23.8125 6.5625C30.9375 2.3125 39 0.125 48 0C57 0.125 65.0625 2.3125 72.1875 6.5625C79.4375 10.8125 85.1875 16.5625 89.4375 23.8125C93.6875 30.9375 95.875 39 96 48ZM60.9375 11.25L57.9375 18.9375C57.3125 20.3125 56.25 21.125 54.75 21.375L51.5625 22.3125C49.9375 22.8125 48.875 23.75 48.375 25.125C47.875 26.625 48.125 28.0625 49.125 29.4375L52.125 33.375C53.25 35.125 53.3125 36.875 52.3125 38.625L50.25 41.625C48.625 43.75 46.5625 44.8125 44.0625 44.8125H43.5C42 44.9375 40.8125 45.5625 39.9375 46.6875C39.0625 47.9375 38.8125 49.3125 39.1875 50.8125L40.3125 54.5625C40.6875 55.9375 40.5 57.125 39.75 58.125C38.875 59.25 37.75 59.8125 36.375 59.8125C34.125 59.8125 32.5 58.875 31.5 57L29.8125 53.625C29.0625 52.25 27.9375 51.375 26.4375 51C25.0625 50.75 23.8125 51.25 22.6875 52.5L19.6875 55.3125C18.5625 56.4375 17.1875 56.875 15.5625 56.625L9.75 55.3125C11.625 64.5625 16.0625 72.125 23.0625 78C29.9375 83.75 38.25 86.75 48 87C57.125 86.875 65.125 84.125 72 78.75L70.875 78L67.125 79.3125C65.25 79.9375 63.4375 79.875 61.6875 79.125C59.9375 78.375 58.6875 77.125 57.9375 75.375L56.625 72.9375C56 71.1875 55.9375 69.375 56.4375 67.5C57.0625 65.75 58.1875 64.375 59.8125 63.375L66.75 59.4375C67.25 59.3125 67.625 59.0625 67.875 58.6875L69 56.8125C70.125 54.9375 71.875 53.9375 74.25 53.8125C76.375 53.9375 78.0625 54.9375 79.3125 56.8125L79.6875 57.375C80.5625 58.5 81.6875 58.9375 83.0625 58.6875L85.6875 57.9375C86.5625 54.8125 87 51.4375 87 47.8125C86.875 39.3125 84.4375 31.75 79.6875 25.125C74.9375 18.625 68.6875 14 60.9375 11.25Z" fill="#00D084"/>
</svg>
