<svg width="87" height="39" viewBox="0 0 87 39" fill="none" xmlns="http://www.w3.org/2000/svg">
<g clip-path="url(#clip0_3238_251094)">
<path d="M80.2829 25.4164L80.6467 24.9895C80.2322 24.7428 80.1376 24.7716 80.0997 25.1951C80.0774 25.4452 79.9253 25.4788 79.7427 25.5117C78.368 25.7597 76.9933 26.0078 75.6185 26.2559C73.9553 26.5542 72.2921 26.8511 70.6289 27.1467C70.5686 27.1544 70.5078 27.1587 70.447 27.1597C70.3889 26.8075 70.1725 26.7691 69.8466 26.8651C69.921 26.9939 69.9819 27.0974 70.063 27.2392C69.4579 27.3502 68.867 27.4606 68.2754 27.5661C63.6621 28.3884 59.0489 29.2107 54.4356 30.0331C54.2896 30.0591 54.1286 29.9899 53.9738 29.9755C53.911 29.9695 53.8477 29.9799 53.7899 30.0056C53.6506 30.0742 53.5256 30.1948 53.3843 30.2229C52.5107 30.3908 51.6332 30.5388 50.7569 30.693C50.5454 30.7386 50.3314 30.7718 50.116 30.7923C50.0369 30.7971 49.9503 30.7135 49.8712 30.6628C49.7042 30.5566 49.5399 30.4449 49.375 30.3359L49.3074 30.4339L49.7002 30.8807L44.5327 31.8106L44.1947 31.1891C44.1535 31.2097 44.1122 31.2302 44.0716 31.2515L44.3482 31.8381L40.2916 32.5692C40.1915 32.3575 40.1009 32.1533 40.0002 31.9525C39.8163 31.5927 39.8494 31.5036 40.2314 31.3467C40.3128 31.3043 40.3912 31.2562 40.466 31.2028C40.1895 31.0939 39.9569 31.1158 39.8156 31.2864C39.6533 31.481 39.4667 31.7401 39.4714 31.9676C39.4755 32.1779 39.7175 32.3835 39.8771 32.6275C39.5979 32.6816 39.3214 32.746 39.0415 32.7878C38.41 32.8817 37.7744 32.9454 37.1484 33.0578C36.5101 33.1723 35.8807 33.3422 35.2424 33.4594C35.0626 33.4923 34.8645 33.4224 34.6603 33.3977C34.6941 33.6458 34.423 33.6156 34.2215 33.652C30.718 34.2797 27.214 34.9049 23.7095 35.5275C22.6338 35.7187 21.5588 35.9133 20.4818 36.097C20.3317 36.123 20.1438 36.256 20.0268 36.025C20.0207 36.0134 19.9592 36.0168 19.9355 36.0319C19.2202 36.4828 18.3852 36.4554 17.6003 36.6109C15.9871 36.931 14.3651 37.2016 12.7459 37.4888C12.4078 37.5491 12.0698 37.595 11.7134 37.6498V37.3497C11.6675 37.3551 11.6195 37.3497 11.6127 37.3634C11.3477 37.9219 10.794 37.8232 10.3423 37.9116C9.46338 38.0815 8.56485 38.1857 7.67983 38.3419C6.59807 38.5365 5.51631 38.7613 4.43454 38.9724C4.36693 38.9847 4.29933 38.9902 4.18574 39.0053C4.12827 38.6763 4.06067 38.3577 4.02618 38.0349C4.0201 37.9733 4.14585 37.8979 4.14991 37.8931C4.05661 37.7012 3.93085 37.5422 3.90381 37.3668C3.84228 36.968 3.84567 36.5582 3.78955 36.158C3.76183 35.962 3.63337 35.7811 3.59754 35.5851C3.3271 34.1159 3.0695 32.646 2.8234 31.1733C2.79297 30.989 2.87749 30.7875 2.87749 30.5936C2.87545 30.4408 2.84778 30.2895 2.79568 30.1461C2.74294 30.0015 2.60434 29.8802 2.57933 29.735C2.20409 27.5894 1.84779 25.4404 1.47458 23.2934C1.14464 21.3952 0.770755 19.5039 0.473271 17.6002C0.328585 16.6744 0.0567925 15.7726 0 14.7817L19.2641 11.3389C19.2709 11.463 19.277 11.5658 19.2831 11.6692C19.3209 11.6692 19.3581 11.6754 19.3608 11.6692C19.5833 11.0402 20.1904 11.267 20.617 11.1066C20.928 10.9901 21.2796 10.984 21.6122 10.925C22.0368 10.849 22.4662 10.6633 22.886 11.0511C22.9246 10.9004 22.9482 10.8078 22.9739 10.7085C23.1206 10.5324 23.4066 10.6564 23.5871 10.9867C23.6088 10.9867 23.6426 10.9901 23.6507 10.9785C24.0334 10.3864 24.6648 10.3748 25.2564 10.2692L38.8623 7.83995L54.4971 5.04132C55.8392 4.80147 57.1799 4.55615 58.5226 4.32178C58.6802 4.29437 58.8465 4.32178 59.0791 4.32178C59.1893 4.28067 59.3732 4.17993 59.5686 4.1443C61.5292 3.78476 63.4915 3.43116 65.4554 3.0835C65.5534 3.06637 65.6535 3.06363 65.7508 3.05472L65.8597 3.36104L65.9381 3.35761C65.955 3.24523 65.9712 3.13284 65.9915 2.99579C66.5851 2.88615 67.1923 2.69701 67.8021 2.68536C68.366 2.6744 68.8562 2.42222 69.4004 2.37014C69.9589 2.31737 70.5106 2.18374 71.065 2.08438C74.8457 1.40733 78.6267 0.730747 82.4079 0.0546154C82.5174 0.0347427 82.6283 0.0244643 82.7852 0.00390625C84.1888 8.07157 85.5897 16.1221 86.9987 24.2185L80.2829 25.4164ZM66.4033 13.0028C66.4252 13.0408 66.4423 13.0816 66.454 13.1241C66.5987 14.1807 66.8853 15.2175 66.8792 16.2948C66.8866 16.3513 66.9042 16.4059 66.9313 16.4558C66.9888 16.597 67.0733 16.7299 67.103 16.88C67.195 17.3378 67.2903 17.7976 67.3403 18.2615C67.435 19.1483 67.8075 19.9987 67.6784 20.9149C67.6737 20.9526 67.7122 20.9951 67.7278 21.0369C67.7951 21.1996 67.8531 21.3662 67.9015 21.5357C67.9786 21.864 68.0367 22.197 68.1043 22.5534C68.6412 22.4574 69.1306 22.3416 69.6262 22.2909C69.9481 22.2587 70.2888 21.9777 70.6052 22.3115C70.7621 22.0147 70.9981 21.962 71.3293 22.1209C71.3841 22.1477 71.4929 22.0771 71.5687 22.0353C71.6079 22.014 71.6228 21.9291 71.6586 21.9222C72.0913 21.8338 72.526 21.7543 73.0108 21.6632C73.092 21.5934 73.1812 21.5338 73.2765 21.4857C75.0384 20.7415 75.8227 19.3854 75.5171 17.5543C75.2331 15.8555 74.9275 14.1609 74.6307 12.4648C74.5739 12.1407 74.6618 12.0283 74.987 12.0331C75.0721 12.04 75.1566 12.0528 75.2399 12.0715C75.3494 11.8837 75.4495 11.711 75.5563 11.5233L75.3616 11.3862L74.5503 11.9666C74.4272 11.2944 74.3278 10.6557 74.1913 10.0253C73.8593 8.49644 72.7965 7.47882 71.3145 7.36712C70.593 7.31229 69.8575 7.39864 69.1327 7.46785C68.4816 7.52952 67.8366 7.65561 67.1882 7.75292L67.1544 7.66932L67.5398 7.44318V7.34793L66.7542 7.27255C67.0246 7.78102 67.0009 7.83379 66.5114 7.9215C66.2774 7.95389 66.0454 7.99965 65.8164 8.05855C65.7319 8.08459 65.6136 8.21342 65.6176 8.28469C65.6429 8.61478 65.6989 8.94173 65.7846 9.2612C65.8725 9.5634 65.8205 9.86766 65.9016 10.1829C66.1396 11.1059 66.2471 12.0639 66.4046 13.0076L66.0503 12.8602C66.0503 12.9651 66.0274 13.0761 66.0551 13.172C66.0706 13.2262 66.168 13.2556 66.2288 13.2961L66.4033 13.0028ZM45.6517 11.6617C46.4921 16.4935 47.3257 21.2849 48.1661 26.1147L50.7867 25.6439C50.4324 23.597 50.0849 21.5905 49.7326 19.5546C50.0531 19.4943 50.3411 19.4463 50.6224 19.3847C50.8131 19.3429 50.9368 19.3901 51.0281 19.5759C51.2309 19.9815 51.4723 20.3708 51.6683 20.7812C51.7691 20.9923 51.7954 21.2383 51.8786 21.4597C51.9404 21.6285 52.0251 21.7879 52.1301 21.9332C52.2498 22.0949 52.4384 22.2073 52.5357 22.3807C52.8934 22.9974 53.2152 23.6429 53.5736 24.2631C53.7088 24.5002 53.7473 24.7106 53.6135 24.9484L53.2436 24.9758L53.2308 25.0724C53.3491 25.1121 53.4918 25.2094 53.581 25.1766C53.7014 25.1279 53.7838 24.9751 53.8785 24.8668L53.8629 24.9545C54.0049 24.9765 54.1516 25.0333 54.2875 25.0148C54.7561 24.9463 55.2212 24.8606 55.6871 24.7764C56.0332 24.7133 56.378 24.6434 56.7546 24.5708C56.6728 24.4166 56.6194 24.3159 56.5673 24.2179C56.1833 23.547 55.7939 22.8782 55.418 22.2032C55.3335 22.0517 55.3328 21.8283 55.2151 21.7235C54.9981 21.5275 54.869 21.3356 54.9603 21.1019C54.8372 21.0197 54.7439 20.9834 54.6898 20.9149C54.6169 20.8135 54.5526 20.706 54.4978 20.5935C54.0881 19.8753 53.679 19.1544 53.2612 18.4226C54.3666 17.6002 54.7277 16.4887 54.5708 15.1805C54.5154 14.7166 54.4261 14.2561 54.3349 13.7984C53.9779 12.0125 52.9827 11.0888 51.1883 10.8887C50.7684 10.8414 50.3093 10.9524 49.9679 10.5605C50.0125 10.6578 50.0578 10.7544 50.1099 10.8675L45.6517 11.6617ZM23.6108 30.6375C23.7501 30.5689 23.8812 30.4497 24.0165 30.4387C24.3701 30.412 24.4498 30.1852 24.4823 29.896C24.4945 29.7836 24.5066 29.6699 24.5296 29.5589C24.8145 28.1632 25.1007 26.7673 25.3883 25.3712C25.414 25.2471 25.4511 25.1258 25.5079 24.9059C25.725 25.3684 26.0799 25.6336 26.1164 26.0612C26.2138 26.1544 26.3348 26.2339 26.4072 26.3456C27.0197 27.2886 27.637 28.2294 28.2225 29.1902C28.4253 29.5287 28.6322 29.6555 29.0338 29.5417C29.478 29.4156 29.9465 29.3766 30.4793 29.2875C30.2765 29.7206 30.2765 30.0413 30.7268 30.2804C30.6801 30.0797 30.6456 29.931 30.603 29.7487C30.9127 29.6925 30.9533 29.4972 30.7673 29.195C30.8567 29.201 30.9457 29.2125 31.0337 29.2292C31.1148 29.2505 31.1926 29.2847 31.2717 29.3135C31.2568 29.2265 31.2663 29.123 31.223 29.0545C30.96 28.6433 30.6821 28.2383 30.4117 27.8313C30.385 27.7833 30.3609 27.7339 30.3394 27.6833L30.5841 27.5633L30.5057 27.4763L30.2434 27.5791L28.5484 25.0436L28.8864 24.4488L28.8134 24.3803C28.7458 24.396 28.6579 24.3912 28.6106 24.4324C28.3442 24.6496 28.1961 24.5509 28.0318 24.2823C27.7258 23.7623 27.387 23.2629 27.0177 22.787C26.6999 22.3909 26.7006 22.0223 26.8825 21.67L27.3219 21.4967L27.2955 21.3966L26.9575 21.3055C27.0386 20.9697 27.1008 20.6346 27.2016 20.3111C27.3023 19.9877 27.4382 19.6889 27.5782 19.3298C27.4172 19.1044 27.5613 18.5075 27.8966 18.33C28.1407 18.1992 28.3219 18.0258 28.405 17.6448L27.7289 18.1443C28.0095 16.9876 28.2773 15.8871 28.5538 14.7488C28.4363 14.7499 28.319 14.757 28.2022 14.7701C27.5261 14.8893 26.85 15.027 26.1739 15.1292C25.9183 15.1675 25.8142 15.2827 25.7682 15.5266C25.5904 16.4325 25.3984 17.3364 25.2084 18.2396C25.0813 18.8488 24.9488 19.4559 24.8028 20.1323C24.6885 19.9596 24.6128 19.8493 24.5411 19.7369C23.7785 18.5377 23.0131 17.3385 22.2586 16.1372C22.1328 15.9371 22.0037 15.859 21.7657 15.9158C21.4189 15.9994 21.0639 16.0467 20.6934 16.1125C20.7347 15.9755 20.7685 15.8631 20.8016 15.7521L20.7387 15.6678C20.3966 16.1475 19.9085 16.3167 19.3094 16.353L19.5623 16.7347C20.8401 18.6412 22.1193 20.5467 23.3999 22.4512C23.5432 22.6637 23.5912 22.8521 23.5256 23.1125C23.0523 24.9915 22.5987 26.8753 22.1389 28.7571C21.9746 29.4286 21.813 30.1002 21.6386 30.8218C21.811 30.8026 21.9314 30.7958 22.049 30.7752C22.4479 30.7067 22.8448 30.621 23.2457 30.5628C23.3633 30.5539 23.4823 30.6114 23.6061 30.6375H23.6108ZM34.4501 22.4142C34.6529 22.3766 34.8158 22.3539 34.9774 22.3135C35.6751 22.1388 36.3972 22.0243 37.0639 21.7653C38.6966 21.1396 39.437 19.9205 39.295 18.1608C39.24 17.5587 39.1401 16.9618 38.9961 16.375C38.6027 14.7009 37.6737 13.8395 35.9916 13.6462C35.4399 13.5818 34.8699 13.6572 34.3094 13.6887C34.039 13.7038 33.7767 13.7648 33.5103 13.8052C33.2067 13.257 33.1898 13.9423 32.9775 13.9491C32.3981 13.9745 31.8234 14.1245 31.2474 14.2294C30.9539 14.2835 30.6619 14.3466 30.3454 14.4096C31.0844 18.6638 31.816 22.8734 32.5536 27.1179L32.2771 26.9445C32.1702 27.3146 32.2771 27.5078 32.6395 27.6038C32.6942 27.9259 32.7557 28.2507 32.8024 28.5775C32.8308 28.7783 32.9133 28.8475 33.1195 28.8078C33.7956 28.6769 34.4717 28.5474 35.1478 28.446C35.4182 28.4049 35.475 28.2986 35.4277 28.0403C35.2167 26.8849 35.022 25.7268 34.8192 24.5687C34.7516 24.1781 34.5521 23.7752 34.9592 23.3969L34.5968 23.3339C34.5488 23.0303 34.5001 22.7322 34.448 22.4129L34.4501 22.4142ZM61.4265 8.84593L61.2088 8.6054C61.1662 8.6744 61.1163 8.7385 61.06 8.79659C60.9887 8.86788 60.9015 8.92075 60.8058 8.95077C59.8099 9.13785 58.8127 9.32013 57.8134 9.48802C57.6653 9.51269 57.5031 9.45719 57.332 9.43731C57.067 9.83614 56.5275 9.59218 56.138 9.84847C56.1475 9.93139 56.1556 10.0308 56.1725 10.1287C56.618 12.7019 57.069 15.2744 57.5085 17.849C57.5761 18.2601 57.6011 18.6782 57.6505 19.1462C57.7181 19.3792 57.8215 19.6725 57.8763 19.9754C58.1136 21.2863 58.3333 22.6006 58.5666 23.9122C58.6003 24.0469 58.6455 24.1783 58.7018 24.3049C59.4191 24.0548 60.1135 24.0048 60.7335 23.8889L61.2345 24.6955L61.3697 24.6475C61.3582 24.5009 61.3697 24.3474 61.3291 24.2083C61.2737 24.0178 61.3034 23.8965 61.5049 23.8506C62.1567 23.7012 62.8084 23.5511 63.4656 23.4086C63.5643 23.3866 63.6752 23.4209 63.7732 23.3962C63.9713 23.3469 64.1647 23.2749 64.4115 23.1954C64.3831 23.3572 64.3675 23.4456 64.3526 23.5333L64.4365 23.5929L64.7705 23.1619L65.9388 22.9364C65.8779 22.589 65.8157 22.2984 65.7792 22.0051C65.7393 21.6885 65.5041 21.3315 65.9496 21.1143C65.7556 21.0458 65.5886 20.932 65.4297 20.943C64.8313 20.9848 64.2323 21.0471 63.64 21.1424C63.2621 21.2034 62.8963 21.3555 62.5211 21.4261C62.3784 21.4528 62.2148 21.3658 62.0235 21.3212C61.797 21.6639 61.7057 21.6831 61.1993 21.4994C61.1026 21.4638 60.983 21.4939 60.8944 21.4939C60.5624 21.1814 61.1107 20.712 60.6841 20.3975L60.8423 20.3488C60.3515 19.4532 60.3839 18.4575 60.1568 17.4906C60.3596 17.4515 60.511 17.4221 60.6638 17.3926C61.6726 17.2124 62.682 17.0369 63.6887 16.8444C63.7753 16.8279 63.9159 16.6964 63.9071 16.6388C63.8158 16.0221 63.6989 15.4094 63.5826 14.7584L59.8011 15.4231C59.5686 14.0526 59.3427 12.73 59.1142 11.3848L60.2521 11.1793L60.3319 11.4383C60.3711 11.4143 60.3961 11.4081 60.4056 11.3917C60.5273 11.1909 60.6084 10.8702 60.9005 11.2505C60.9133 11.2677 61.0357 11.2403 61.0614 11.2019C61.3183 10.8592 61.6408 10.864 61.8511 11.2149C61.919 11.309 61.9961 11.3959 62.081 11.4746L62.1722 11.4218L61.9822 10.8736L63.7834 10.5413C63.6596 9.84231 63.5433 9.18719 63.4216 8.50124L61.4265 8.84593ZM18.6475 24.8867C18.536 24.2295 18.4332 23.6025 18.3142 22.9796C18.3048 22.9302 18.179 22.8631 18.1114 22.8727C17.5239 22.9638 16.9377 23.0687 16.3535 23.1735C15.745 23.2818 15.1447 23.3942 14.5105 23.51L13.81 19.482C13.9142 19.4587 13.9777 19.4415 14.0426 19.4299C15.4171 19.1832 16.7896 18.9297 18.1668 18.696C18.4373 18.6507 18.5002 18.5589 18.4427 18.2944C18.3433 17.838 18.2649 17.3755 18.2047 16.9122C18.1689 16.6381 18.0573 16.5833 17.8024 16.6306C16.5178 16.8711 15.2332 17.0966 13.9486 17.3254C13.8662 17.3398 13.7816 17.3378 13.6295 17.348L13.9 16.8122L13.8371 16.7553C13.7235 16.8629 13.6133 16.9746 13.4943 17.0753C13.3212 17.2226 13.161 17.4125 12.9595 17.4906C12.7026 17.5906 12.4092 17.5941 12.1326 17.6448C11.706 17.7236 11.2807 17.8079 10.8413 17.8922C10.8663 18.0724 10.8818 18.2067 10.9048 18.3403C11.2875 20.5421 11.6729 22.7439 12.0474 24.947C12.0584 25.0791 12.0235 25.211 11.9487 25.3198C11.8135 25.5206 11.8473 25.6419 12.0474 25.7618C12.1364 25.8138 12.2026 25.898 12.2327 25.9975C12.4666 27.2879 12.6891 28.581 12.9142 29.8727C13.0555 30.6793 13.1975 31.4851 13.3415 32.3068C13.4054 32.3114 13.4696 32.3114 13.5335 32.3068C15.8282 31.8984 18.1231 31.4895 20.4183 31.0801C20.6082 31.0466 20.6515 30.9568 20.6157 30.7718C20.5203 30.2791 20.427 29.7857 20.3594 29.2882C20.3222 29.0195 20.1958 28.988 19.968 29.0305C18.7828 29.2505 17.5969 29.4622 16.4103 29.6733C16.1507 29.7199 15.8897 29.7535 15.6125 29.7953C15.5679 29.5561 15.5341 29.3711 15.4996 29.1854L15.549 29.1648C15.6538 29.3286 15.7579 29.4931 15.887 29.6952C16.027 29.4567 16.0479 29.2642 15.8539 29.147C15.4732 28.912 15.3603 28.5536 15.313 28.141C15.2812 27.8669 15.2211 27.6017 15.1778 27.3317C15.0791 26.752 14.9817 26.1722 14.8796 25.5713L18.6475 24.8867ZM45.3894 26.6095C45.3779 26.4724 45.3779 26.36 45.3589 26.2517C44.6617 22.2397 43.963 18.2282 43.263 14.2171C43.2062 13.8916 43.0602 13.5558 43.4151 13.2995C43.4307 13.2878 43.4206 13.2399 43.4246 13.172L43.1129 13.3296C43.0413 12.9377 42.9723 12.5615 42.8973 12.1523C42.117 12.2935 41.3794 12.445 40.6357 12.5525C40.3247 12.5978 40.2902 12.7074 40.3416 12.998C41.0583 17.0639 41.7668 21.1316 42.4673 25.2012C42.5741 25.818 42.6863 26.4272 42.8019 27.0734L45.3894 26.6095ZM66.2444 22.3162L66.1024 23.0968C66.2964 23.0282 66.5689 23.0899 66.5351 22.6993C66.5175 22.4992 66.6284 22.4067 66.8339 22.4547C66.8783 22.4658 66.9236 22.4725 66.9692 22.4745L67.7805 21.5035C67.1335 21.5385 67.1165 21.5241 67.197 21.0759C67.0679 21.1876 66.9016 21.3055 66.8678 21.4549C66.7765 21.8756 66.5473 22.1662 66.2444 22.3162ZM62.5995 17.102C62.5583 17.7229 62.5211 18.2882 62.4832 18.8543L62.5901 18.8618C63.1012 18.3355 63.3324 17.7873 62.5995 17.102ZM77.6367 5.42644C77.5346 5.30994 77.5015 5.26883 77.4643 5.23114C77.2351 4.98855 76.9944 4.75624 76.7787 4.50201C76.63 4.32658 76.7165 4.10592 76.9234 4.07372C77.1823 4.0326 77.2615 3.90103 77.0931 3.71669C76.9146 3.5207 76.6874 3.37406 76.4684 3.21576C76.4217 3.18218 76.3332 3.21096 76.2608 3.21096C76.7449 3.57689 76.7665 3.67146 76.5258 4.20118C76.4873 4.28546 76.4819 4.44033 76.5326 4.50132C76.7956 4.81381 77.0789 5.10984 77.3635 5.40314C77.3953 5.43672 77.4791 5.41616 77.6367 5.42781V5.42644ZM52.2728 24.0575C52.3406 24.1548 52.4132 24.2486 52.4905 24.3385C52.6865 24.5475 52.8616 24.8469 53.2112 24.6811C53.414 24.5845 53.3748 24.1617 53.1564 23.8053C53.1476 23.7903 53.1213 23.7861 53.0692 23.7601C52.9603 24.2727 52.6331 24.1603 52.2728 24.0575ZM71.5247 22.8693L71.7661 23.0632C71.6897 23.2557 71.5964 23.4127 71.57 23.5806C71.5457 23.7341 71.593 23.8999 71.618 24.15C71.71 24.1219 71.9865 24.1021 72.0048 24.0212C72.0627 23.7441 72.0721 23.4587 72.0325 23.1783C72.0034 22.9659 71.8513 22.822 71.5213 22.8693H71.5247ZM66.3093 17.7661C66.1585 17.7174 66.0341 17.629 65.9746 17.666C65.8516 17.7345 65.763 17.8675 65.6602 17.973L66.2092 18.4472C66.3884 18.2115 66.5189 18.0518 66.6345 17.8819C66.6758 17.8044 66.708 17.7223 66.7305 17.6372C66.6392 17.6331 66.5392 17.603 66.4601 17.6318C66.3988 17.6634 66.3459 17.7094 66.3059 17.7661H66.3093ZM75.6131 2.82721C75.2115 2.55311 75.1033 2.58326 74.9931 3.00264C74.9397 3.20822 74.9837 3.45423 74.6875 3.53784C74.6341 3.55291 74.6416 3.78933 74.6199 3.92364C74.7247 3.88801 74.8775 3.88458 74.9255 3.81126C75.0966 3.5488 75.2318 3.26304 75.3805 2.98414L75.3028 2.92932L75.6131 2.82721ZM67.3566 23.6217C67.3248 23.695 67.289 23.7834 67.2491 23.8725C67.3467 23.8604 67.4432 23.8405 67.5378 23.8129C67.7176 23.7444 67.892 23.6607 68.107 23.5669C68.0624 23.2544 67.748 23.4682 67.5371 23.377C67.5253 23.2049 67.5041 23.0335 67.4735 22.8638C67.4221 22.6356 67.3072 22.6102 67.1355 22.7473C67.2146 23.0543 67.2876 23.3476 67.3566 23.6217ZM0.895834 19.5992C1.02565 19.5854 1.07229 19.595 1.08852 19.5765C1.40696 19.214 1.72473 18.8502 2.02763 18.4746C2.04453 18.4541 1.93162 18.3259 1.87889 18.2478C1.76057 18.3307 1.60845 18.3903 1.53137 18.502C1.37587 18.7206 1.26093 18.9687 1.12571 19.2038C1.06554 19.3168 0.997926 19.4278 0.897187 19.5992H0.895834ZM17.2507 35.0026L17.3575 34.9341C17.4928 35.0842 17.6118 35.2438 17.7551 35.3809C17.8227 35.4439 17.9302 35.4624 18.0194 35.5015C18.0194 35.4014 18.0532 35.2897 18.0194 35.2027C17.9518 35.0198 17.8883 34.7559 17.7531 34.7004C17.607 34.6394 17.3778 34.7689 17.1905 34.8375C17.1081 34.8656 16.9715 34.9547 16.9789 34.9875C17.0039 35.0951 17.0844 35.1931 17.1432 35.2897L17.2325 35.2514L17.2507 35.0026ZM77.8841 14.6255H78.3615C77.9416 15.0051 78.1356 15.3889 78.2627 15.761C78.2817 15.8172 78.398 15.8391 78.4723 15.8768L78.5366 15.8083C78.4834 15.6643 78.4229 15.5231 78.3554 15.3854C78.2621 15.2162 78.2391 15.0784 78.4115 14.9407C78.5839 14.803 78.6319 14.6035 78.4358 14.4542C78.235 14.2965 78.0484 14.3767 77.8868 14.6255H77.8841ZM70.6302 3.16368L70.495 3.15477C70.6147 3.55839 70.3855 3.53098 70.1705 3.54743C70.0768 3.56358 69.9896 3.60635 69.919 3.67078C69.9007 3.68585 69.9312 3.80783 69.9717 3.84415C70.1279 3.97435 70.2983 4.08811 70.5322 4.25874C70.5038 4.04631 70.4844 3.90148 70.4741 3.82428C70.6242 3.69339 70.7756 3.60431 70.8527 3.47068C70.8784 3.42751 70.71 3.26989 70.6302 3.16368ZM42.5646 30.314L42.6653 30.3099C42.7134 30.1783 42.733 30.0228 42.8141 29.9186C43.0548 29.6144 43.0555 29.4122 42.7546 29.1772C42.6755 29.1148 42.5437 29.0559 42.4632 29.0819C42.399 29.1025 42.3746 29.2539 42.3185 29.3779C42.6782 29.4156 42.8073 29.4999 42.545 29.8062C42.4652 29.8994 42.5531 30.1406 42.5646 30.314ZM28.9899 13.7305C28.9574 14.0485 28.9283 14.324 28.8999 14.5994L28.9736 14.6433C29.0548 14.5384 29.1805 14.4446 29.2069 14.3274C29.254 14.0979 29.2728 13.8633 29.263 13.6291C29.2611 13.5709 29.2474 13.5138 29.2227 13.4612C29.198 13.4086 29.163 13.3617 29.1197 13.3235C29.0649 13.2865 28.906 13.3509 28.8323 13.4153C28.7478 13.4886 28.7059 13.6113 28.6119 13.7703L28.9899 13.7305ZM53.3545 6.62703C53.3423 6.75928 53.3011 6.88195 53.3349 6.9772C53.3505 7.02106 53.5242 7.04572 53.6053 7.01968C53.7683 6.95286 53.9264 6.87455 54.0786 6.78532C54.0739 6.75175 54.0698 6.71679 54.0651 6.6839L54.4897 6.97788C54.4599 6.63525 54.4376 6.3817 54.4221 6.18297C54.1557 6.41048 53.9184 6.62428 53.6635 6.8141C53.6324 6.83603 53.506 6.72296 53.3545 6.62703ZM34.4913 30.0906L34.254 29.9536C34.2831 29.7788 34.3094 29.6192 34.348 29.3848C34.0464 29.5623 33.8977 29.7274 33.9477 30.0187C33.972 30.1557 33.9984 30.2969 34.0336 30.4853C34.3175 30.634 34.3716 30.6018 34.4852 30.0906H34.4913ZM76.6989 15.7233C76.9653 15.8603 77.1012 15.9631 77.252 16.0049C77.3507 16.033 77.5224 16.0173 77.5718 15.9515C77.6471 15.8355 77.6817 15.6972 77.6698 15.5588C77.6698 15.5136 77.4846 15.4259 77.4068 15.4464C77.1783 15.5061 76.9673 15.6116 76.6928 15.7233H76.6989ZM64.0369 17.8558C64.0241 17.814 64.0112 17.7722 63.999 17.7311C63.7644 17.7996 63.5258 17.8627 63.3 17.9518C63.2601 17.9669 63.2276 18.1478 63.2533 18.1669C63.4087 18.2732 63.5696 18.3709 63.7354 18.4596L63.9044 18.1245C63.9517 18.0361 63.9957 17.9463 64.0369 17.8558ZM28.4956 31.9107C28.6308 32.2705 28.8404 32.5733 29.2062 32.7275L29.2914 32.6727C29.1785 32.3589 29.0649 32.045 28.9567 31.7462L28.4956 31.9107ZM69.1624 23.2695C69.2186 23.732 69.6458 24.0849 70.0008 24.087C69.9704 23.9794 69.9136 23.8656 69.9142 23.7533C69.9149 23.6409 69.9724 23.5162 70.0055 23.3983L69.898 23.3298C69.8372 23.436 69.7763 23.5422 69.7425 23.5998L69.1624 23.2695ZM67.7027 26.0105C67.6027 25.8611 67.5283 25.7899 67.4999 25.7028C67.3762 25.3068 67.2923 25.2485 66.8076 25.3054C66.9989 25.5678 67.1632 25.818 67.3586 26.0414C67.3998 26.0859 67.556 26.0263 67.7027 26.0105ZM78.7117 5.17837L79.5196 6.17954C79.6548 5.89105 79.6048 5.49428 79.4182 5.41821C79.2046 5.33187 78.9842 5.26745 78.7117 5.17837ZM68.4519 4.08948C68.5803 4.00519 68.6236 3.99354 68.633 3.96819C68.7304 3.69888 68.8318 3.46108 69.1557 3.75918C69.1834 3.78453 69.2774 3.75095 69.3315 3.72491C69.3415 3.70746 69.3476 3.68796 69.3494 3.66782C69.3512 3.64768 69.3485 3.62739 69.3416 3.60842C69.2016 3.52482 69.0556 3.39187 68.9116 3.39256C68.741 3.40401 68.5812 3.48096 68.4647 3.60773C68.3964 3.68586 68.4519 3.87636 68.4519 4.08948ZM47.5711 10.5235L47.49 10.592C47.5948 10.7619 47.6705 11.0306 47.8132 11.0717C47.9558 11.1128 48.1763 10.947 48.3541 10.8743C48.2053 10.359 47.7848 10.7482 47.5711 10.5235ZM52.8258 26.2284L52.5479 26.371C52.5966 26.4505 52.648 26.5286 52.6919 26.6101C52.7145 26.6563 52.7319 26.7047 52.744 26.7547C52.8116 27.0124 52.9556 26.9665 53.0712 26.8116C53.1456 26.7129 53.2261 26.532 53.1841 26.4525C53.128 26.3532 52.9563 26.3066 52.8258 26.2312V26.2284ZM30.4063 11.0367C30.4435 11.1258 30.4739 11.2094 30.5138 11.2896C30.5537 11.3698 30.6017 11.4527 30.649 11.5342C30.7349 11.4719 30.841 11.426 30.9005 11.3444C30.9651 11.2519 31.0049 11.144 31.0161 11.0312C31.0242 10.9559 30.9668 10.8729 30.9391 10.7928C30.8714 10.8195 30.8038 10.8435 30.7423 10.8729C30.6314 10.9264 30.5253 10.9805 30.4063 11.0395V11.0367ZM36.0619 30.5669C36.1207 30.6827 36.1572 30.7533 36.2248 30.8855L36.4811 30.0632L35.7211 30.4257C35.7468 30.5025 35.7975 30.6573 35.8563 30.843L36.0619 30.5669ZM75.5604 15.3203C75.6456 15.5787 75.7003 15.7637 75.7686 15.9439C75.7936 16.0125 75.8457 16.1063 75.8937 16.1118C75.9299 16.1088 75.9647 16.0964 75.9948 16.0758C76.0249 16.0551 76.0492 16.0269 76.0654 15.994C76.0958 15.8459 76.1526 15.6294 76.0803 15.5499C75.9708 15.4286 75.7618 15.4005 75.5604 15.3203ZM70.3152 23.608C70.8615 23.2509 70.9318 22.7966 70.5268 22.6054C70.4551 22.9433 70.3855 23.2756 70.3152 23.6073V23.608ZM22.1038 14.8016C21.9564 14.4501 21.521 14.2746 21.7481 13.8333C21.5724 13.9937 21.3743 14.1835 21.404 14.326C21.4642 14.6193 21.7596 14.7036 22.1038 14.8009V14.8016ZM62.4569 17.2507C61.916 17.3947 61.7551 17.8942 62.0634 18.1957C62.1972 17.8723 62.327 17.5612 62.4569 17.2501V17.2507ZM46.7287 24.3207L46.7619 24.4468C47.1466 24.0959 47.438 24.4714 47.7976 24.494C47.6198 24.2713 47.4278 24.05 47.1892 23.9746C47.0823 23.9403 46.8849 24.1959 46.7287 24.3207ZM40.0488 30.7807L40.4072 29.8501C39.771 30.229 39.7277 30.3359 40.0482 30.7807H40.0488ZM82.6074 16.2359C82.5783 16.4031 82.556 16.5175 82.5445 16.6326C82.5445 16.6374 82.6696 16.6779 82.6865 16.658C82.7757 16.5552 82.8771 16.4476 82.9197 16.3229C82.9623 16.1982 82.942 16.0454 82.9488 15.9117L82.3403 16.0645L82.6074 16.2359ZM46.7625 29.6918L46.8112 29.8412C47.014 29.9227 47.2216 30.1386 47.4231 29.885C47.4751 29.8165 47.3298 29.5924 47.2757 29.4403L46.7625 29.6918ZM54.0705 26.3689C53.9901 26.1099 53.5438 25.7426 53.3559 25.7679C53.3248 25.7727 53.2952 25.7845 53.2693 25.8025C53.2434 25.8206 53.2219 25.8444 53.2065 25.8721C53.1889 25.9201 53.2152 26.0304 53.2517 26.0462C53.5127 26.1606 53.7818 26.2586 54.0698 26.3689H54.0705ZM56.2577 13.6455C56.186 13.7984 56.1096 13.8847 56.1225 13.9464C56.1512 14.0682 56.2128 14.1794 56.3003 14.2678C56.4078 14.3678 56.5531 14.4261 56.6823 14.5021C56.6476 14.3667 56.6036 14.2339 56.5504 14.1047C56.4611 13.9462 56.3631 13.793 56.257 13.6455H56.2577ZM65.5683 25.437L65.6508 25.5137L66.6108 25.1711C66.289 24.7106 66.0476 25.2341 65.7657 25.2074C65.7069 25.1999 65.6339 25.3554 65.5676 25.437H65.5683ZM79.7056 11.1573C79.8482 11.4266 79.5541 11.7487 79.9861 11.8426L80.3357 11.2574L79.7056 11.1573ZM45.5016 29.848C45.8944 29.6068 45.962 29.158 46.1628 28.7927C45.8667 29.0942 45.5557 29.3841 45.5016 29.848ZM6.02744 34.7607C6.14508 34.2934 6.24244 33.9096 6.33912 33.5272L6.24785 33.5033C5.93076 33.8267 5.80906 34.3496 6.02744 34.7607ZM57.0325 21.5439L56.9602 21.535C56.9994 21.7105 57.0034 21.9051 57.0859 22.0565C57.2036 22.2717 57.424 22.3361 57.7147 22.3498L57.0325 21.5439ZM65.2133 11.9872L65.385 12.2613L65.5027 12.1976L65.1964 11.5486L64.7847 12.0201C64.8533 12.0562 64.9332 12.0636 65.0071 12.0406L65.2133 11.9872ZM82.4539 11.7631C82.1956 11.6158 81.9806 11.489 81.7582 11.3718C81.7375 11.3683 81.7162 11.3703 81.6965 11.3775C81.6767 11.3847 81.6591 11.3969 81.6453 11.4129C81.6229 11.474 81.6199 11.5406 81.6365 11.6034C81.7271 11.8652 82.1199 11.9625 82.4525 11.7631H82.4539ZM3.15537 25.2985L3.2534 25.2341C3.22094 24.8305 2.99581 24.5187 2.58271 24.47L3.15537 25.2985ZM54.8149 15.2731C55.0279 15.2045 55.1888 15.1874 55.3125 15.1079C55.3767 15.0668 55.4207 14.9023 55.3929 14.8283C55.3652 14.7543 55.2381 14.6913 55.155 14.6275C55.1083 14.7022 55.0563 14.7742 55.0157 14.8523C54.9596 14.9585 54.9095 15.0688 54.8149 15.2731ZM6.36549 23.8382L6.28233 23.7697L6.06531 23.8787C6.05787 23.7738 6.05178 23.6854 6.04231 23.5511C5.81852 23.7341 5.71982 23.9116 5.83272 24.1363C5.86585 24.2048 6.0457 24.2734 6.06463 24.2542C6.17476 24.1231 6.27531 23.9841 6.36549 23.8382ZM67.2504 4.60891C67.0591 5.05845 67.2038 5.49496 67.5959 5.67108L67.2504 4.60891ZM22.3695 24.7901L21.6934 25.315C21.6934 25.3609 21.7015 25.4712 21.7069 25.5809C21.9435 25.2965 22.4959 25.3061 22.3702 24.7901H22.3695ZM68.4052 24.6969C68.3836 25.0059 68.368 25.2252 68.3471 25.5295L68.9021 25.3109L68.4052 24.6969ZM28.9635 10.9346L28.6254 11.1073C28.6998 11.3355 28.7607 11.5274 28.8208 11.7103C29.073 11.5712 29.1318 11.3348 28.9635 10.9346ZM55.8047 20.9937C55.4497 21.4227 55.5065 21.7776 55.9636 21.9352C55.9061 21.6132 55.8561 21.326 55.8013 20.9923L55.8047 20.9937ZM23.7386 33.7671C23.5662 33.5012 23.5189 33.2607 23.7778 32.9873H23.2498C23.5019 33.2477 23.264 33.6855 23.7352 33.7657L23.7386 33.7671ZM73.094 6.92101L73.2069 7.0094C73.3144 6.87715 73.4773 6.7586 73.5131 6.60852C73.549 6.45845 73.4611 6.2796 73.4273 6.11308L73.315 6.12952L73.094 6.92101ZM44.7653 29.4047C44.96 29.0524 44.9141 28.8564 44.6551 28.7249C44.4699 28.633 44.3171 28.6385 44.2407 28.9174L44.6024 28.9688L44.7653 29.4047ZM58.0872 25.2704L57.9946 25.1587C57.8499 25.1656 57.6653 25.1176 57.5707 25.1903C57.424 25.304 57.5747 25.6987 57.8087 25.8755C58.0155 25.7063 57.5152 25.3205 58.0872 25.2704ZM63.8287 5.08449L63.5109 4.35673L63.0647 4.66168L63.8287 5.08449ZM25.4795 32.3445C25.4572 32.3856 25.4342 32.426 25.4119 32.4664C25.5431 32.5404 25.6716 32.6631 25.8068 32.672C25.9163 32.6789 26.0434 32.559 26.1448 32.4726C26.1678 32.4527 26.1124 32.3404 26.0934 32.267L25.704 32.4041L25.4795 32.3445ZM40.8183 32.034C40.9749 32.0913 41.1347 32.1391 41.2969 32.1773C41.3159 32.1773 41.4092 32.0162 41.3868 31.9655C41.3294 31.8285 41.2273 31.714 41.1265 31.5667L40.8183 32.034ZM48.2554 28.8338L48.849 28.546C48.8361 28.5138 48.8226 28.4823 48.8098 28.4508L48.2216 28.2452C48.2141 28.3857 48.2053 28.5104 48.202 28.6351C48.2142 28.7028 48.2321 28.7692 48.2554 28.8338ZM17.3129 14.8016C17.2899 14.511 17.102 14.2849 16.9073 14.3308C16.8505 14.3445 16.7653 14.4638 16.7781 14.5104C16.8572 14.7803 17.0479 14.8715 17.3129 14.8016ZM20.4608 14.8797C20.5285 15.1662 20.1052 15.4745 20.4933 15.7706L20.7157 15.0675L20.4608 14.8797ZM76.0039 11.0031L76.3534 11.8522C76.5705 11.4828 76.4481 11.2526 76.2973 11.045C76.2615 10.9977 76.1276 11.0203 76.0039 11.0031ZM73.1873 21.8619L73.0892 21.9702C73.3008 22.2443 73.4949 22.5376 73.8329 22.6753L73.9343 22.5636L73.1873 21.8619ZM27.4152 31.7174L27.4828 31.5578C27.2232 31.5221 27.1968 30.9088 26.6925 31.3316L27.4152 31.7174ZM58.2522 25.5363L58.4131 25.5288C58.4334 25.3746 58.4807 25.217 58.4631 25.0676C58.453 24.9847 58.3279 24.9162 58.2603 24.8415C58.2177 24.9305 58.1373 25.0217 58.1427 25.108C58.1548 25.2567 58.215 25.3938 58.2549 25.5391L58.2522 25.5363ZM10.7108 14.8968C11.0813 14.4994 11.0238 14.3185 10.4911 14.1568C10.5695 14.413 10.6337 14.6303 10.7135 14.8996L10.7108 14.8968ZM53.8312 8.9261C53.84 8.95557 53.8487 8.98435 53.8568 9.01381C54.0374 8.94529 54.2328 8.89938 54.3903 8.79522C54.4579 8.75205 54.4383 8.5821 54.4579 8.46972C54.3903 8.46972 54.2902 8.43956 54.2551 8.47451C54.105 8.61704 53.9732 8.77671 53.8339 8.92884L53.8312 8.9261ZM7.17005 34.93L6.97331 35.0383C7.06728 35.1349 7.1998 35.3288 7.24781 35.3124C7.39723 35.2521 7.64062 35.0766 7.62236 35.0054C7.52974 34.6449 7.33299 35.163 7.17005 34.93ZM63.7712 28.0218L63.8942 28.1006C63.9862 27.9677 64.1174 27.8457 64.1566 27.6983C64.1877 27.5839 64.1038 27.4386 64.0707 27.3064L63.9632 27.3242C63.8992 27.5563 63.8352 27.7888 63.7712 28.0218ZM20.7888 28.4809L20.9341 28.4535C20.83 28.1458 20.7252 27.8368 20.6055 27.4859C20.306 27.9293 20.7232 28.165 20.7888 28.4809ZM72.1839 23.3914L72.2678 23.4661C72.3827 23.3524 72.5145 23.2503 72.6058 23.1187C72.6565 23.0454 72.6383 22.9234 72.6511 22.8227C72.5368 22.8617 72.3753 22.8672 72.3191 22.9474C72.2346 23.0673 72.2252 23.2407 72.1839 23.3914ZM51.2796 25.354C51.575 25.0751 51.5317 24.6222 51.1863 24.3762C51.218 24.7085 51.2471 25.0128 51.2796 25.354ZM50.5636 9.80256C50.4791 9.93276 50.2931 10.1212 50.3303 10.1829C50.4047 10.3158 50.5926 10.3837 50.736 10.4776L50.7921 10.4172C50.7238 10.2384 50.6575 10.0595 50.5636 9.80256ZM76.0715 10.5728C75.9214 10.47 75.818 10.3563 75.7727 10.3761C75.6726 10.4207 75.5536 10.5235 75.536 10.6201C75.5232 10.692 75.6571 10.7907 75.726 10.8777L76.0715 10.5728ZM14.8945 22.3594C15.2704 22.2813 15.3002 21.9935 14.9621 21.5467C14.9391 21.8139 14.9188 22.0743 14.8965 22.3587L14.8945 22.3594ZM22.5101 32.5699C22.8766 32.3917 22.9259 32.0662 22.6501 31.6866C22.6027 31.995 22.5622 32.2513 22.5121 32.5658L22.5101 32.5699ZM16.4752 22.2416L16.3711 22.3478L16.772 22.7589C16.82 22.6829 16.9221 22.5924 16.9073 22.5328C16.8511 22.3162 16.7031 22.1991 16.4752 22.2416ZM75.5779 8.6472L75.4536 8.45669L74.9755 8.77055C75.0256 8.83907 75.1141 8.97133 75.1196 8.9679C75.2778 8.86922 75.4272 8.75684 75.5779 8.6472ZM81.579 16.8314C81.5047 17.0294 81.433 17.2178 81.3613 17.4063C81.4242 17.4269 81.5128 17.4851 81.5452 17.4618C81.7447 17.3206 81.8474 17.1384 81.696 16.8951C81.6587 16.8708 81.6196 16.8495 81.579 16.8314ZM5.25736 23.3544L5.37297 23.4572C5.48453 23.3633 5.6157 23.2845 5.69886 23.1701C5.73942 23.1139 5.69075 22.9906 5.68263 22.896C5.59677 22.9207 5.47642 22.9179 5.43247 22.9755C5.35134 23.0844 5.31348 23.227 5.25736 23.3544ZM24.5425 31.8017L25.0157 32.3081C25.059 32.2547 25.1428 32.1588 25.1388 32.1546C24.9907 32.008 24.8352 31.8703 24.679 31.7325C24.6319 31.7522 24.5863 31.7753 24.5425 31.8017ZM80.7941 12.8883C80.9834 12.8623 81.1227 12.8609 81.2484 12.8198C81.3113 12.7992 81.4012 12.6944 81.3904 12.6471C81.3589 12.5646 81.3044 12.4931 81.2335 12.4415C81.0605 12.5546 80.811 12.6074 80.7961 12.8897L80.7941 12.8883ZM9.60063 13.9299L9.4742 13.9368C9.44919 14.0499 9.36671 14.2068 9.41133 14.2664C9.53573 14.435 9.72166 14.4994 9.95694 14.3466L9.60063 13.9299ZM78.9774 21.6049L79.0666 21.6735L79.4662 21.3576C79.4527 21.3226 79.4398 21.289 79.4263 21.2534L78.999 21.141L78.9774 21.6049ZM59.3367 28.3247C59.4381 28.7948 59.5868 28.9784 59.8363 28.9414C59.5564 28.3144 59.5564 28.3144 59.3367 28.3226V28.3247ZM20.757 11.8207C21.1985 11.7309 21.2411 11.5425 20.9551 11.1142C20.8875 11.3567 20.8293 11.563 20.757 11.8207ZM31.148 23.7546C31.029 23.8396 30.912 23.9424 31.0459 24.1418C31.1622 24.3159 31.2927 24.4351 31.4772 24.3618L31.148 23.7546ZM67.1105 26.9377C67.1931 27.0666 67.2853 27.1889 67.3863 27.3036C67.439 27.355 67.5378 27.3585 67.6155 27.3838C67.6243 27.3077 67.6588 27.2221 67.6365 27.1563C67.5465 26.8897 67.3626 26.8329 67.1105 26.9377ZM7.96177 38.2446C8.06724 38.0665 8.15716 37.9705 8.18015 37.8561C8.19299 37.7923 8.09699 37.7053 8.04966 37.6293C7.95543 37.729 7.87159 37.8383 7.7995 37.9554C7.78057 37.9925 7.87117 38.0877 7.96177 38.2433V38.2446ZM25.5228 14.287L25.5904 14.2349C25.5289 14.0451 25.4782 13.8498 25.3991 13.6682C25.3727 13.6079 25.274 13.5798 25.2084 13.5366C25.1942 13.6161 25.1408 13.7168 25.1719 13.771C25.2747 13.9498 25.4045 14.115 25.5228 14.2856V14.287ZM62.3183 25.0566C62.0553 24.6496 61.8092 24.629 61.5746 24.9388L62.3183 25.0566ZM28.2806 31.1411V31.3357H28.7769L28.7728 31.0856L28.2806 31.1411ZM6.17213 23.2078C6.62782 23.3208 6.84823 23.1879 6.84823 22.8048L6.17213 23.2078ZM68.0354 4.95977L68.2281 5.04611L68.4593 4.57259C68.3815 4.54792 68.2423 4.48899 68.2348 4.50406C68.1616 4.65177 68.0963 4.80345 68.0394 4.9584L68.0354 4.95977ZM26.2314 26.4423C25.9156 26.5718 25.7317 26.754 25.8548 27.059L25.9765 27.1076C26.0639 26.8852 26.1502 26.6629 26.2354 26.4409L26.2314 26.4423ZM30.626 17.6969C30.4969 17.4988 30.4313 17.3837 30.3509 17.2809C30.313 17.2329 30.2427 17.1774 30.1947 17.1836C30.1467 17.1897 30.1007 17.2706 30.0865 17.3275C30.0753 17.4063 30.0737 17.4861 30.0818 17.5653L30.626 17.6969ZM60.1561 28.361L60.2676 28.3233C60.2676 28.1177 60.271 27.9121 60.2676 27.7066C60.2606 27.6333 60.248 27.5606 60.2298 27.4893C60.1696 27.5421 60.0547 27.599 60.058 27.6476C60.0756 27.8868 60.1236 28.1232 60.1601 28.3596L60.1561 28.361ZM77.2209 21.8071L77.2959 21.8174C77.3935 21.6741 77.4837 21.5259 77.5664 21.3733C77.59 21.326 77.542 21.2424 77.5265 21.1746C77.4589 21.1904 77.3432 21.1924 77.3345 21.2239C77.2817 21.4144 77.2547 21.6118 77.2209 21.8071ZM53.057 27.9533L53.1977 27.8162C53.0935 27.6946 52.9832 27.5786 52.867 27.4688C52.8562 27.4592 52.7453 27.5647 52.6811 27.6175C52.806 27.728 52.9308 27.84 53.0557 27.9533H53.057ZM59.8282 24.9381L59.4536 25.5548C59.8099 25.6186 59.8099 25.6186 59.8268 24.9388L59.8282 24.9381ZM55.6891 28.2274C55.587 28.5309 55.8169 28.5549 55.9839 28.607C56.0339 28.6221 56.1089 28.5556 56.1725 28.5268C56.1367 28.4638 56.1157 28.372 56.0616 28.3432C55.9407 28.2935 55.8155 28.255 55.6877 28.2281L55.6891 28.2274ZM51.1126 22.4026C51.2606 22.4711 51.3911 22.5396 51.5277 22.5862C51.5573 22.595 51.5883 22.5978 51.6189 22.5944C51.6495 22.5909 51.6792 22.5814 51.7062 22.5664C51.7204 22.5455 51.7298 22.5217 51.7339 22.4967C51.738 22.4718 51.7366 22.4462 51.7298 22.4218C51.5852 22.3382 51.4324 22.269 51.287 22.1977L51.1126 22.4026ZM75.3501 25.5199V26.1894C75.6922 25.8906 75.6963 25.7015 75.3488 25.5192L75.3501 25.5199ZM74.9134 25.72L74.864 25.6514C74.7457 25.7631 74.5814 25.857 74.5259 25.9941C74.4996 26.0626 74.676 26.212 74.7801 26.3518C74.8383 26.0791 74.8755 25.8981 74.912 25.7193L74.9134 25.72ZM38.7007 31.7983L38.6061 31.6236L38.3762 31.3789C38.3167 31.4591 38.1984 31.5523 38.2119 31.6174C38.2278 31.6719 38.2548 31.7224 38.2909 31.7658C38.3271 31.8092 38.3718 31.8445 38.4221 31.8696C38.4911 31.8997 38.6054 31.825 38.6993 31.7976L38.7007 31.7983ZM25.4586 13.4167C25.4823 13.3598 25.5059 13.3029 25.5302 13.246L25.036 13.0233C25.012 13.0785 24.9926 13.1356 24.9779 13.194C25.1347 13.2748 25.2963 13.3447 25.4586 13.4167ZM83.0178 12.1592L82.8237 12.1955C82.84 12.354 82.856 12.5126 82.8717 12.6711C82.9448 12.6382 83.0793 12.6067 83.08 12.5731C83.0718 12.4335 83.051 12.2949 83.0178 12.1592ZM37.2126 11.3252L36.9476 11.6679C37.0105 11.7158 37.1146 11.8152 37.1281 11.8049C37.2232 11.7238 37.3058 11.6286 37.3728 11.5226C37.3837 11.5082 37.2958 11.4266 37.2126 11.3252ZM34.2046 13.0727L33.8531 13.2686C33.8531 13.3015 33.8531 13.3372 33.8531 13.368L34.4534 13.5421C34.35 13.3461 34.2885 13.2289 34.2046 13.0727ZM82.7122 21.0485C83.1699 21.4466 83.2686 21.4884 83.4904 21.3829C83.1144 21.0403 82.9407 20.9656 82.7122 21.0485ZM66.621 26.8274C66.9658 26.4964 66.959 26.2935 66.621 26.1818V26.8274ZM74.0371 24.9018L73.9979 25.0025L74.3752 25.4733L74.4691 25.4397C74.4468 25.3383 74.4549 25.2074 74.3948 25.1423C74.2981 25.0388 74.1575 24.9826 74.0358 24.9018H74.0371ZM69.7304 22.5218C69.7547 22.7719 69.7716 22.9494 69.798 23.1948C70.0894 22.8802 70.0799 22.7719 69.729 22.5218H69.7304ZM39.3592 18.3191C39.4944 18.3712 39.6526 18.4445 39.6608 18.4308C39.7422 18.2774 39.8152 18.1196 39.8791 17.9579L39.796 17.9168C39.675 18.0278 39.5546 18.1382 39.3592 18.3191ZM45.267 15.0668L44.9965 14.5604C44.9337 14.6001 44.8174 14.6385 44.816 14.681C44.8099 14.8934 44.9073 15.0373 45.2656 15.0668H45.267ZM39.27 21.8304C38.9928 21.9722 38.9745 22.221 38.9475 22.4595C38.9434 22.4958 39.0049 22.5396 39.036 22.5801C39.0813 22.5417 39.1577 22.5115 39.1713 22.4643C39.2098 22.2744 39.2321 22.0785 39.27 21.8304ZM6.03962 36.3293L6.05516 36.2169L5.43856 36.0113C5.45952 36.1059 5.46289 36.258 5.50008 36.2669C5.67816 36.3016 5.85848 36.3231 6.03962 36.3314V36.3293ZM35.7035 10.69C35.8293 10.3659 35.8286 10.1637 35.5791 10.0136C35.3121 10.2912 35.5764 10.433 35.7035 10.692V10.69ZM33.8348 10.396L33.9477 10.4282L34.2181 10.0397L34.1708 9.96428C34.0599 9.98279 33.8896 9.96428 33.8524 10.028C33.7942 10.1226 33.8348 10.2727 33.8348 10.3981V10.396ZM61.4197 7.40892L61.63 7.36232C61.5887 7.1958 61.5482 7.02859 61.5069 6.86207C61.4583 6.87646 61.3656 6.8936 61.3663 6.90456C61.3744 7.07519 61.4001 7.24308 61.417 7.41097L61.4197 7.40892ZM4.3764 36.7761C4.25741 36.7014 4.17357 36.6116 4.13165 36.6294C4.04376 36.6706 3.98021 36.7665 3.90719 36.835C3.9748 36.8988 4.05323 37.0235 4.10326 37.0125C4.18575 36.9968 4.252 36.8912 4.3737 36.7782L4.3764 36.7761ZM38.1483 23.0577L38.2159 23.1009C38.2883 22.9995 38.387 22.9063 38.4235 22.7925C38.4438 22.7295 38.3613 22.6322 38.3255 22.5506C38.2673 22.6089 38.1774 22.6582 38.1578 22.7281C38.124 22.8323 38.1456 22.9494 38.1456 23.0598L38.1483 23.0577ZM36.8563 22.4314L36.7731 22.5253C36.8529 22.6328 36.9165 22.7644 37.0206 22.835C37.0564 22.859 37.1923 22.7315 37.3512 22.6294L36.8563 22.4314ZM51.8955 25.1039L51.8056 25.18C51.8867 25.3328 51.9611 25.4904 52.0537 25.6357C52.0814 25.6789 52.1625 25.6857 52.2193 25.709C52.2349 25.6405 52.287 25.5473 52.2592 25.5117C52.1443 25.369 52.022 25.2327 51.8928 25.1032L51.8955 25.1039ZM65.2147 23.6998L65.3729 24.3453C65.3729 24.3453 65.5081 24.3323 65.5081 24.3186C65.5081 24.1816 65.5149 24.0267 65.4621 23.9033C65.4209 23.8177 65.2958 23.7656 65.21 23.6991L65.2147 23.6998ZM7.62845 20.3461C7.333 20.0967 7.13625 20.1892 7.01996 20.5818L7.62845 20.3461ZM56.9378 24.1603C57.0095 24.3488 57.0595 24.4817 57.1332 24.6749L57.3881 24.0883L56.9378 24.1603ZM61.7294 8.31484L61.8551 8.25043C61.7348 8.075 61.6147 7.8998 61.4948 7.72482L61.3893 7.79335C61.3508 8.06198 61.5103 8.20725 61.7267 8.3169L61.7294 8.31484ZM9.33695 15.6232L9.41944 15.5184C9.35657 15.2779 9.2085 15.1648 8.89614 15.2922L9.33695 15.6232ZM44.8478 8.47451L44.9742 8.4375C45.0757 8.20863 44.9742 8.03799 44.8039 7.88929L44.6896 7.92218L44.8478 8.47451ZM6.22081 35.5152L6.12953 35.4652C6.05449 35.581 5.94902 35.6899 5.91859 35.8174C5.90507 35.8743 6.04367 35.9682 6.17281 36.11C6.19512 35.8366 6.20796 35.6728 6.22081 35.5152ZM6.63526 35.8825L6.58184 35.9606C6.67785 36.0339 6.78468 36.1792 6.86649 36.1662C6.96925 36.1456 7.04633 35.9976 7.18087 35.8551L6.63526 35.8825ZM69.7405 4.81038H69.8757C69.9089 4.71787 69.9481 4.62741 69.9738 4.53627C70.0535 4.2464 69.8865 4.2464 69.7513 4.39031C69.681 4.46089 69.7405 4.66442 69.7405 4.81038ZM59.1149 27.8998C59.5983 27.8354 59.7092 27.7347 59.6592 27.3968L59.1149 27.8998ZM61.6915 12.7293L61.5563 12.6122L61.1702 13.1056L61.2865 13.2035C61.4213 13.0455 61.5563 12.8874 61.6915 12.7293ZM74.7321 24.6359L74.5699 24.6948L74.7937 25.3116L74.935 25.2608L74.7321 24.6359ZM40.9271 29.0805L40.8649 29.2519C41.1854 29.0223 41.1718 29.7178 41.5552 29.3122L40.9271 29.0805ZM18.4129 14.4939L18.1973 14.5316C18.2236 14.6687 18.248 14.8112 18.2858 14.9476C18.3475 14.943 18.4085 14.9315 18.4677 14.9133C18.4555 14.7721 18.4312 14.6351 18.4102 14.4939H18.4129ZM37.0666 24.0191L37.2248 24.0041V23.5723L36.9827 23.6121L37.0666 24.0191ZM71.8858 6.47627L71.7553 6.44474C71.5524 6.58933 71.5666 6.78738 71.7431 7.01694L71.8858 6.47627ZM82.7649 9.66893L82.6845 9.51063L82.3505 9.64769L82.4519 9.87725L82.7649 9.66893ZM22.3215 32.694L22.1754 32.5973L21.878 33.0585L22.0213 33.1531L22.3215 32.694ZM54.4721 26.2524L54.5296 26.1928C54.4484 26.0215 54.3761 25.8447 54.2801 25.6816C54.2524 25.6343 54.1584 25.6268 54.0948 25.6007C54.0894 25.6624 54.0563 25.7446 54.0834 25.7817C54.2003 25.942 54.3376 26.0955 54.4687 26.2511L54.4721 26.2524ZM21.7123 33.8692C22.0727 33.652 22.0754 33.5601 21.7671 33.3128C21.7454 33.4957 21.7306 33.6465 21.7089 33.8678L21.7123 33.8692ZM16.6483 27.2584L16.4671 27.3105C16.4989 27.4558 16.5347 27.6017 16.5631 27.747C16.6307 27.7127 16.7511 27.6716 16.7484 27.6456C16.7233 27.5134 16.6878 27.3835 16.6422 27.257L16.6483 27.2584ZM79.6839 14.4295L79.4446 13.8415C79.262 14.1999 79.3033 14.324 79.6839 14.4295ZM61.3068 7.71386L60.8268 7.35958C60.816 7.76594 60.8849 7.82145 61.3068 7.71386ZM29.1291 30.6018L29.1805 30.6621C29.3076 30.5468 29.4286 30.4246 29.5429 30.2962C29.5571 30.2791 29.4679 30.1742 29.4077 30.0831C29.2975 30.2907 29.2136 30.4463 29.1291 30.6018ZM58.5355 25.6371L58.4679 25.6905C58.5064 25.7816 58.5226 25.9208 58.5889 25.953C58.6829 25.9982 58.814 25.9646 58.9269 25.9646C58.9317 25.9297 58.9364 25.8961 58.9418 25.8598L58.5355 25.6371ZM49.9456 10.1123L50.1227 10.0726C50.0856 9.90809 50.0477 9.74431 50.0098 9.57985L49.8449 9.61617C49.8787 9.77858 49.9125 9.94441 49.9456 10.1123ZM29.5348 10.7407L29.7255 10.7839L29.8106 10.2857L29.6491 10.2542C29.6112 10.4138 29.5727 10.5762 29.5348 10.738V10.7407ZM34.2303 32.5007L34.0951 32.6439C34.1984 32.7393 34.3065 32.8292 34.419 32.9132C34.4365 32.9256 34.5116 32.8516 34.5596 32.8173L34.2303 32.5007ZM39.9535 17.0068L40.0265 17.0801C40.1449 16.9926 40.2589 16.899 40.368 16.7998C40.4018 16.7669 40.393 16.6881 40.4031 16.6306C40.3355 16.6354 40.2463 16.6148 40.2138 16.6504C40.1192 16.7622 40.0322 16.8803 39.9535 17.004V17.0068Z" fill="#FE5050"/>
<path d="M66.4129 13.0091C66.2547 12.0648 66.1472 11.1068 65.9092 10.1838C65.8281 9.86855 65.8802 9.56703 65.7923 9.26209C65.7065 8.94262 65.6506 8.61567 65.6253 8.28558C65.6185 8.21705 65.7395 8.08548 65.824 8.05944C66.053 8.00054 66.285 7.95478 66.5191 7.92239C67.0086 7.83467 67.0356 7.78191 66.7618 7.27344L67.5474 7.34882V7.44407L67.162 7.67021L67.1959 7.75381C67.8442 7.6565 68.4892 7.53041 69.1403 7.46874C69.8651 7.40021 70.6007 7.31318 71.3221 7.368C72.8041 7.4797 73.8669 8.49733 74.1989 10.0262C74.3341 10.6566 74.4349 11.2953 74.5579 11.9675L75.3692 11.3871L75.564 11.5242C75.4571 11.7085 75.3571 11.8812 75.2475 12.0724C75.1633 12.0515 75.0776 12.0366 74.9913 12.0278C74.6661 12.023 74.5782 12.1354 74.635 12.4595C74.9318 14.1556 75.2374 15.8503 75.5214 17.549C75.827 19.3801 75.0427 20.7362 73.2808 21.4804C73.1855 21.5285 73.0963 21.5881 73.0151 21.6579C72.5316 21.7491 72.0969 21.8285 71.6629 21.9169C71.627 21.9238 71.6121 22.0088 71.5729 22.03C71.4972 22.0718 71.3884 22.1424 71.3336 22.1157C71.0023 21.9567 70.7663 22.0095 70.6095 22.3062C70.2931 21.9724 69.9523 22.2534 69.6305 22.2856C69.1349 22.3363 68.6454 22.4521 68.1086 22.5481C68.041 22.1917 67.9808 21.8587 67.9058 21.5305C67.8573 21.3609 67.7993 21.1943 67.732 21.0316C67.7164 20.9898 67.6779 20.9473 67.6826 20.9096C67.8111 19.9934 67.4386 19.143 67.3446 18.2562C67.2946 17.7923 67.1992 17.3325 67.1073 16.8747C67.0775 16.7274 66.993 16.5917 66.9356 16.4506C66.9085 16.4006 66.8908 16.346 66.8835 16.2895C66.8896 15.2123 66.6029 14.1755 66.4582 13.1188C66.4465 13.0763 66.4295 13.0356 66.4075 12.9975L66.4129 13.0091ZM70.3735 20.0386C70.8799 19.9331 71.3613 19.833 71.8413 19.7303C72.0699 19.6809 72.2274 19.5747 72.222 19.2937C72.222 19.1567 72.2423 18.9552 72.5235 19.0559C72.4708 19.193 72.4248 19.3116 72.366 19.4671C72.7338 19.193 72.9123 18.836 72.8886 18.4193C72.8433 17.6422 72.821 16.8542 72.4424 16.1408C72.4154 16.0901 72.4323 16.012 72.437 15.9476C72.4458 15.818 72.4843 15.6858 72.4667 15.5618C72.4093 15.1554 72.3193 14.7531 72.2639 14.3468C72.1875 13.767 72.0428 13.2236 71.5506 12.7892L71.9407 12.5192C71.8251 11.8826 71.7332 11.2274 71.5811 10.5867C71.435 9.97408 71.0611 9.50399 70.4053 9.48411C69.8002 9.4663 69.1883 9.58074 68.5562 9.63967L69.7657 16.6109L69.9091 16.6835L70.1572 16.2415C70.3059 16.8507 70.1842 17.4161 69.9131 17.4805C70.0645 18.3131 70.2146 19.1505 70.3735 20.0386Z" fill="white"/>
<path d="M45.6562 11.6612L50.1185 10.8656C50.0665 10.7525 50.0212 10.6559 49.9765 10.5586C50.32 10.9506 50.777 10.8396 51.1969 10.8868C52.9886 11.0869 53.9865 12.0107 54.3435 13.7965C54.4347 14.2542 54.524 14.7147 54.5794 15.1787C54.7363 16.4869 54.3766 17.5956 53.2698 18.4207C53.6876 19.1553 54.0967 19.8735 54.5064 20.5916C54.5612 20.7041 54.6255 20.8116 54.6984 20.913C54.7545 20.9815 54.8478 21.0178 54.9689 21.1001C54.8776 21.3338 55.0067 21.5256 55.2238 21.7216C55.3394 21.8258 55.34 22.0492 55.4266 22.2013C55.8039 22.8763 56.1933 23.5451 56.576 24.216C56.6314 24.314 56.6814 24.4147 56.7632 24.5689C56.3867 24.6415 56.0418 24.7114 55.6957 24.7745C55.2298 24.8588 54.7647 24.9479 54.2961 25.013C54.1609 25.0315 54.0135 24.9746 53.8716 24.9527L53.8871 24.8649C53.7897 24.9732 53.71 25.126 53.5896 25.1747C53.5004 25.2103 53.3577 25.1103 53.2394 25.0705L53.2522 24.9739L53.6221 24.9465C53.7573 24.7108 53.7194 24.5004 53.5822 24.2612C53.2238 23.6445 52.902 22.999 52.5444 22.3788C52.4456 22.2082 52.257 22.093 52.1387 21.9313C52.0337 21.786 51.949 21.6266 51.8872 21.4578C51.804 21.2364 51.7777 20.9904 51.6769 20.7794C51.4808 20.3682 51.2422 19.9797 51.0367 19.574C50.9427 19.3883 50.8189 19.341 50.631 19.3828C50.3477 19.4445 50.0617 19.4924 49.7412 19.5527C50.0935 21.5887 50.441 23.5958 50.7953 25.642L48.1747 26.1128C47.3303 21.2817 46.4966 16.493 45.6562 11.6612ZM48.6311 13.2154C48.8894 14.6956 49.1321 16.0832 49.3802 17.5031C49.9008 17.3989 50.3815 17.3325 50.8453 17.203C51.61 16.9905 51.9839 16.4875 51.9271 15.6865C51.8834 15.1183 51.7854 14.5558 51.6343 14.0069C51.4612 13.3716 50.9981 13.0077 50.3673 13.0208C49.7974 13.0317 49.2342 13.1434 48.6304 13.2154H48.6311Z" fill="white"/>
<path d="M23.6037 30.6364C23.4773 30.6103 23.3583 30.5528 23.2488 30.5678C22.8478 30.6261 22.451 30.7104 22.0521 30.7803C21.9344 30.8008 21.8141 30.8077 21.6417 30.8269C21.8161 30.1053 21.9797 29.4337 22.142 28.7622C22.6017 26.8804 23.0567 24.9932 23.5287 23.1176C23.5963 22.8572 23.5462 22.6688 23.4029 22.4563C22.1192 20.554 20.84 18.6485 19.5654 16.7398L19.3125 16.3581C19.9115 16.3204 20.3997 16.1525 20.7418 15.6729L20.8047 15.7571C20.7715 15.8682 20.737 15.9785 20.6965 16.1176C21.067 16.0491 21.4219 16.0045 21.7688 15.9209C22.0068 15.864 22.1359 15.9422 22.2617 16.1423C23.0162 17.3463 23.7815 18.5407 24.5442 19.742C24.6158 19.8544 24.6916 19.9647 24.8058 20.1374C24.9505 19.461 25.083 18.8539 25.2115 18.2447C25.4015 17.3415 25.5935 16.4376 25.7713 15.5317C25.8193 15.2877 25.9234 15.1726 26.177 15.1342C26.8531 15.0321 27.5292 14.8944 28.2053 14.7751C28.322 14.7621 28.4394 14.755 28.5568 14.7539C28.2803 15.8921 28.016 16.9927 27.732 18.1494L28.4081 17.6499C28.3249 18.0274 28.1437 18.1981 27.8997 18.3351C27.5616 18.5153 27.4203 19.1095 27.5812 19.3349C27.4413 19.694 27.304 19.999 27.2046 20.3162C27.1052 20.6335 27.0417 20.9748 26.9606 21.3106L27.2986 21.4017L27.325 21.5017L26.8855 21.6751C26.703 22.0273 26.7023 22.396 27.0207 22.7921C27.3901 23.2679 27.7289 23.7674 28.0349 24.2874C28.1992 24.556 28.3472 24.6547 28.6136 24.4374C28.6636 24.3963 28.7488 24.4011 28.8164 24.3854L28.8895 24.4539L28.5514 25.0487L30.2464 27.5842L30.5087 27.4814L30.5872 27.5684L30.3424 27.6883C30.3639 27.7389 30.3881 27.7884 30.4148 27.8364C30.6852 28.2434 30.9597 28.647 31.2261 29.0596C31.2693 29.1281 31.2599 29.2316 31.2748 29.3186C31.1956 29.2898 31.1179 29.2556 31.0368 29.2343C30.9487 29.2176 30.8598 29.2061 30.7704 29.2001C30.9563 29.5023 30.9157 29.6976 30.6061 29.7537C30.6487 29.936 30.6832 30.0847 30.7298 30.2855C30.2829 30.045 30.2768 29.7257 30.4824 29.2926C29.9496 29.3816 29.4811 29.4207 29.0369 29.5468C28.6366 29.6606 28.4331 29.5338 28.2255 29.1953C27.64 28.2359 27.0228 27.2936 26.4102 26.3507C26.3379 26.239 26.2168 26.1595 26.1195 26.0663C26.0843 25.6387 25.7294 25.3735 25.511 24.911C25.4542 25.1309 25.417 25.2536 25.3913 25.3763C25.1042 26.7719 24.818 28.1678 24.5327 29.5639C24.5097 29.6749 24.4975 29.7887 24.4853 29.9011C24.4529 30.1903 24.3731 30.4171 24.0195 30.4438C23.8742 30.4486 23.7457 30.5658 23.6037 30.6364Z" fill="white"/>
<path d="M34.4528 22.4116C34.5049 22.7309 34.5535 23.0284 34.6029 23.334L34.9653 23.397C34.5596 23.7753 34.7624 24.1782 34.8253 24.5688C35.0221 25.7269 35.2202 26.885 35.4338 28.0404C35.4811 28.2988 35.425 28.405 35.1539 28.4461C34.4778 28.5475 33.8017 28.677 33.1256 28.8079C32.9228 28.8477 32.8369 28.7784 32.8085 28.5777C32.7619 28.2508 32.7003 27.926 32.6456 27.6039C32.2866 27.508 32.1764 27.3147 32.2832 26.9447L32.5597 27.118C31.8221 22.8735 31.0905 18.6639 30.3516 14.4097C30.668 14.3467 30.9601 14.2836 31.2535 14.2295C31.8295 14.1247 32.4029 13.9746 32.9836 13.9492C33.1959 13.9403 33.2128 13.2598 33.5164 13.8053C33.7828 13.7649 34.0478 13.7039 34.3155 13.6888C34.876 13.6573 35.446 13.5819 35.9977 13.6463C37.6798 13.843 38.6088 14.701 39.0023 16.3751C39.1462 16.9619 39.2461 17.5588 39.3011 18.1609C39.4431 19.9207 38.7028 21.1398 37.07 21.7654C36.402 22.0217 35.6813 22.1361 34.9835 22.3136C34.8186 22.3513 34.6529 22.3773 34.4528 22.4116ZM34.16 20.3723C34.7341 20.2256 35.3202 20.1173 35.8767 19.9213C36.3351 19.7603 36.6447 19.3485 36.6204 18.8708C36.5791 18.1273 36.4304 17.3872 36.2823 16.654C36.2315 16.4317 36.103 16.2355 35.9206 16.1017C35.6684 15.9331 35.354 15.7686 35.0653 15.7673C34.4994 15.7673 33.9329 15.8762 33.3142 15.9468C33.609 17.4318 33.7611 18.8729 34.158 20.3723H34.16Z" fill="white"/>
<path d="M61.4253 8.83893L63.4158 8.49219C63.5375 9.17746 63.6538 9.83326 63.7775 10.5322L61.9763 10.8639L62.1663 11.4121L62.0751 11.4649C61.9902 11.3862 61.9132 11.2992 61.8452 11.2052C61.6349 10.8543 61.3124 10.8481 61.0555 11.1921C61.0271 11.2305 60.9074 11.2607 60.8946 11.2408C60.6052 10.8605 60.5214 11.1812 60.3997 11.382C60.3902 11.3984 60.3652 11.4046 60.326 11.4286L60.2462 11.1695L59.1083 11.3751C59.3369 12.7203 59.5627 14.0477 59.7952 15.4134L63.5767 14.7487C63.693 15.3997 63.8099 16.0123 63.9012 16.6291C63.91 16.688 63.7694 16.8196 63.6828 16.8346C62.6761 17.0258 61.6667 17.2013 60.658 17.3829C60.5052 17.4103 60.353 17.4418 60.1509 17.4809C60.378 18.4478 60.3456 19.4435 60.8365 20.3391L60.6782 20.3878C61.1049 20.6996 60.5565 21.169 60.8885 21.4842C60.9771 21.4842 61.0967 21.454 61.1934 21.4897C61.6998 21.6733 61.7911 21.6528 62.0176 21.3115C62.2089 21.356 62.3725 21.4431 62.5152 21.4163C62.8925 21.3478 63.2589 21.1936 63.6341 21.1326C64.2264 21.0374 64.8254 20.975 65.4238 20.9332C65.5827 20.9223 65.7497 21.0367 65.9437 21.1045C65.4982 21.3252 65.7335 21.6822 65.7733 21.9954C65.8099 22.2887 65.872 22.5793 65.9329 22.9267L64.7646 23.1521L64.4306 23.5832L64.3468 23.5236C64.3616 23.4358 64.3772 23.3474 64.4056 23.1857C64.1588 23.2652 63.9654 23.3372 63.7673 23.3865C63.6693 23.4112 63.5584 23.3769 63.4597 23.3988C62.8059 23.5414 62.1542 23.6914 61.499 23.8408C61.2962 23.8867 61.2678 24.008 61.3232 24.1985C61.3631 24.3356 61.3523 24.4911 61.3638 24.6378L61.2286 24.6858L60.7283 23.884C60.1083 23.9998 59.4139 24.0498 58.6966 24.3C58.6403 24.1733 58.5951 24.0419 58.5614 23.9073C58.3281 22.5957 58.1084 21.2814 57.8711 19.9704C57.8163 19.6675 57.7101 19.3743 57.6452 19.1413C57.5959 18.6732 57.5736 18.2545 57.5033 17.844C57.0638 15.2695 56.6128 12.697 56.1673 10.1238C56.1504 10.0258 56.1423 9.92645 56.1328 9.84353C56.5222 9.58862 57.0618 9.83257 57.3268 9.43237C57.4979 9.45225 57.6601 9.50775 57.8082 9.48308C58.8075 9.31519 59.8047 9.13291 60.8006 8.94583C60.8963 8.91582 60.9835 8.86294 61.0548 8.79165C61.1111 8.73357 61.161 8.66946 61.2036 8.60046L61.4253 8.83893Z" fill="white"/>
<path d="M18.6469 24.8846L14.8743 25.5651C14.9764 26.166 15.0771 26.7458 15.1725 27.3255C15.2184 27.5955 15.2786 27.8635 15.3077 28.1348C15.3563 28.546 15.4693 28.9057 15.8486 29.1408C16.0426 29.2614 16.0216 29.454 15.8817 29.689C15.7519 29.4834 15.6477 29.3224 15.5436 29.1586L15.4943 29.1792C15.5288 29.3649 15.5619 29.5499 15.6072 29.7891C15.8844 29.7473 16.1481 29.7137 16.405 29.6671C17.5915 29.456 18.7774 29.2443 19.9626 29.0243C20.1905 28.9818 20.3169 29.0133 20.3541 29.282C20.4217 29.7795 20.515 30.2729 20.6103 30.7656C20.6462 30.9506 20.6029 31.0397 20.4129 31.0739C18.1178 31.481 15.8229 31.8899 13.5282 32.3006C13.4642 32.3051 13.4001 32.3051 13.3362 32.3006C13.1921 31.4782 13.0502 30.6731 12.9089 29.8665C12.6837 28.5748 12.4613 27.2817 12.2274 25.9913C12.1973 25.8918 12.1311 25.8075 12.0421 25.7556C11.8393 25.6356 11.8088 25.5143 11.9434 25.3136C12.0182 25.2048 12.0531 25.0729 12.0421 24.9408C11.6675 22.7376 11.2822 20.5359 10.8995 18.3341C10.8765 18.1971 10.861 18.0662 10.8359 17.8859C11.2754 17.8017 11.7007 17.7174 12.1273 17.6386C12.4038 17.5878 12.6972 17.5844 12.9542 17.4844C13.157 17.4063 13.3159 17.2164 13.489 17.0691C13.608 16.9684 13.7182 16.8567 13.8317 16.7491L13.8946 16.806L13.6242 17.3418C13.7763 17.3316 13.8608 17.3336 13.9433 17.3192C15.2279 17.0903 16.5125 16.8649 17.7971 16.6244C18.052 16.5771 18.1635 16.634 18.1994 16.906C18.2595 17.3693 18.338 17.8318 18.4373 18.2882C18.4948 18.5527 18.4292 18.6445 18.1615 18.6898C16.7849 18.9234 15.4125 19.177 14.0373 19.4237C13.9697 19.4353 13.9088 19.4525 13.8047 19.4758L14.5051 23.5038C15.1393 23.388 15.7431 23.2756 16.3482 23.1673C16.9337 23.0625 17.5199 22.9576 18.1061 22.8665C18.1689 22.8569 18.2967 22.924 18.3089 22.9734C18.4326 23.6004 18.5347 24.2267 18.6469 24.8846Z" fill="white"/>
<path d="M45.3883 26.6095L42.8002 27.0734C42.6845 26.4272 42.5723 25.8145 42.4655 25.2012C41.7592 21.1353 41.0506 17.0675 40.3398 12.998C40.2885 12.7074 40.3229 12.5978 40.6339 12.5525C41.3777 12.445 42.1153 12.2935 42.8955 12.1523C42.9706 12.5635 43.0395 12.9377 43.1112 13.3296L43.4229 13.172C43.4188 13.2406 43.4289 13.2878 43.4134 13.2995C43.0611 13.5558 43.2045 13.8916 43.2613 14.2171C43.9617 18.2282 44.6603 22.2397 45.3572 26.2517C45.3754 26.36 45.3754 26.4717 45.3883 26.6095Z" fill="white"/>
<path d="M66.2459 22.3146C66.5488 22.1645 66.778 21.8739 66.8747 21.4532C66.9085 21.3038 67.0776 21.1859 67.204 21.0742C67.1235 21.5224 67.1404 21.5368 67.7875 21.5018L66.9761 22.4729C66.9305 22.4708 66.8852 22.4641 66.8409 22.453C66.6381 22.405 66.5245 22.4975 66.5421 22.6976C66.5759 23.0882 66.3034 23.0272 66.1094 23.0951L66.2459 22.3146Z" fill="white"/>
<path d="M62.6007 17.1016C63.3336 17.7868 63.1023 18.335 62.5912 18.8613L62.4844 18.8538C62.5222 18.2891 62.5594 17.7238 62.6007 17.1016Z" fill="white"/>
<path d="M77.6388 5.42617C77.4812 5.41452 77.3974 5.43508 77.3683 5.40287C77.0837 5.10958 76.8004 4.81354 76.5374 4.50106C76.4867 4.44007 76.4921 4.2852 76.5307 4.20091C76.7713 3.6712 76.7497 3.57663 76.2656 3.2107C76.3332 3.2107 76.4265 3.18192 76.4732 3.2155C76.6902 3.37105 76.9194 3.52044 77.0979 3.71643C77.2656 3.90076 77.1871 4.03234 76.9282 4.07345C76.7213 4.10566 76.6348 4.32632 76.7835 4.50175C76.9992 4.75598 77.2399 4.98828 77.4691 5.23087C77.5029 5.26856 77.5367 5.30968 77.6388 5.42617Z" fill="white"/>
<path d="M52.2734 24.0552C52.6372 24.1601 52.9644 24.2704 53.0699 23.7578C53.1219 23.7839 53.1483 23.788 53.1571 23.803C53.3755 24.1594 53.4147 24.5822 53.2119 24.6788C52.8623 24.8446 52.6872 24.5452 52.4911 24.3362C52.4139 24.2463 52.3413 24.1525 52.2734 24.0552Z" fill="white"/>
<path d="M71.5234 22.8684C71.8534 22.8211 72.0055 22.965 72.0312 23.1774C72.0708 23.4579 72.0614 23.7432 72.0035 24.0203C71.9852 24.1012 71.7087 24.1211 71.6167 24.1492C71.5917 23.899 71.5444 23.7332 71.5687 23.5797C71.5951 23.4118 71.6884 23.2549 71.7648 23.0623L71.5234 22.8684Z" fill="white"/>
<path d="M66.306 17.7629C66.3446 17.7058 66.396 17.6588 66.4561 17.6259C66.5359 17.5971 66.6359 17.6259 66.7265 17.6314C66.704 17.7164 66.6718 17.7985 66.6305 17.876C66.5149 18.0459 66.3844 18.2056 66.2053 18.4413L65.6562 17.9671C65.759 17.8616 65.8476 17.7294 65.9706 17.6601C66.0308 17.6293 66.1552 17.7156 66.306 17.7629Z" fill="white"/>
<path d="M75.6097 2.82407L75.3001 2.92617L75.3778 2.981C75.2291 3.25511 75.0938 3.54566 74.9228 3.80812C74.8748 3.88144 74.72 3.88487 74.6172 3.9205C74.6381 3.78345 74.6307 3.54977 74.6848 3.53469C74.9809 3.45109 74.937 3.20302 74.9904 2.9995C75.0999 2.58011 75.2081 2.54654 75.6097 2.82407Z" fill="white"/>
<path d="M67.361 23.6185C67.2934 23.3444 67.2177 23.0511 67.1406 22.7441C67.3117 22.607 67.4266 22.6324 67.4787 22.8606C67.5092 23.0303 67.5304 23.2017 67.5422 23.3738C67.7532 23.465 68.0676 23.2512 68.1122 23.5637C67.8972 23.6575 67.7227 23.7411 67.5429 23.8097C67.4484 23.8373 67.3518 23.8572 67.2542 23.8693C67.2914 23.7802 67.3293 23.6918 67.361 23.6185Z" fill="white"/>
<path d="M0.898438 19.5974C0.999177 19.4261 1.06679 19.3151 1.13034 19.202C1.26556 18.967 1.37847 18.7189 1.536 18.5003C1.61511 18.3886 1.7652 18.329 1.88351 18.2461C1.93625 18.3242 2.04916 18.4517 2.03226 18.4729C1.72937 18.8484 1.4116 19.2123 1.09315 19.5748C1.0749 19.5933 1.02554 19.5837 0.898438 19.5974Z" fill="white"/>
<path d="M17.2544 35.0023L17.2382 35.2455L17.149 35.2839C17.0901 35.1845 17.0097 35.0893 16.9847 34.9817C16.9772 34.9488 17.1138 34.8597 17.1963 34.8316C17.3836 34.7631 17.6128 34.6363 17.7588 34.6946C17.894 34.7501 17.9576 35.0139 18.0252 35.1969C18.057 35.2839 18.0252 35.3956 18.0252 35.4957C17.9359 35.4566 17.8278 35.4381 17.7608 35.3751C17.6175 35.238 17.4951 35.0783 17.3633 34.9283L17.2544 35.0023Z" fill="white"/>
<path d="M77.8906 14.6235C78.0522 14.3747 78.2354 14.2946 78.4423 14.4522C78.6384 14.6016 78.5978 14.7948 78.418 14.9387C78.2381 15.0826 78.2686 15.2128 78.3619 15.3834C78.4294 15.5211 78.4899 15.6623 78.5431 15.8063L78.4788 15.8748C78.4065 15.8371 78.2882 15.8152 78.2692 15.759C78.1421 15.3869 77.9481 15.0052 78.3679 14.6235H77.8906Z" fill="white"/>
<path d="M70.6301 3.16125C70.7098 3.26747 70.8782 3.42508 70.8532 3.46894C70.7761 3.60257 70.6247 3.69165 70.4746 3.82254C70.4845 3.89975 70.5039 4.04457 70.5327 4.257C70.2988 4.08637 70.127 3.97261 69.9722 3.84241C69.9317 3.80883 69.9012 3.68411 69.9195 3.66904C69.99 3.60436 70.0772 3.56135 70.171 3.54501C70.386 3.52856 70.6152 3.55597 70.4955 3.15234L70.6301 3.16125Z" fill="white"/>
<path d="M42.5664 30.3127C42.5549 30.1393 42.467 29.9015 42.5468 29.8049C42.8091 29.4986 42.682 29.4143 42.3203 29.3766C42.3764 29.2525 42.4008 29.1025 42.465 29.0805C42.5454 29.0545 42.6773 29.1134 42.7564 29.1758C43.0573 29.4108 43.0566 29.613 42.8159 29.9173C42.7334 30.0214 42.7151 30.177 42.6671 30.3085L42.5664 30.3127Z" fill="white"/>
<path d="M28.9873 13.7304L28.6094 13.7701C28.7034 13.6112 28.7446 13.4885 28.8298 13.4152C28.9035 13.3508 29.0624 13.2863 29.1171 13.3233C29.1604 13.3616 29.1955 13.4085 29.2202 13.461C29.2448 13.5136 29.2585 13.5708 29.2605 13.629C29.2703 13.8632 29.2514 14.0977 29.2043 14.3273C29.178 14.4444 29.0522 14.5383 28.9711 14.6432L28.8974 14.5993C28.9258 14.3238 28.9549 14.0484 28.9873 13.7304Z" fill="white"/>
<path d="M53.3544 6.62374C53.5085 6.71968 53.635 6.83275 53.664 6.81082C53.9189 6.621 54.1562 6.4072 54.4226 6.17969C54.4402 6.37842 54.4625 6.63539 54.4902 6.9746L54.0656 6.68062C54.0704 6.7142 54.0744 6.74915 54.0791 6.78204C53.927 6.87127 53.7688 6.94958 53.6059 7.0164C53.5247 7.04381 53.351 7.0164 53.3354 6.97392C53.2983 6.87866 53.3395 6.756 53.3544 6.62374Z" fill="white"/>
<path d="M34.4828 30.0875C34.3692 30.5959 34.3151 30.6309 34.0251 30.4795C33.9899 30.291 33.9636 30.1519 33.9392 30.0128C33.8892 29.7243 34.0379 29.5564 34.3395 29.3789C34.3009 29.6133 34.2719 29.7729 34.2455 29.9477L34.4828 30.0875Z" fill="white"/>
<path d="M76.6953 15.7225C76.9698 15.6108 77.1808 15.5052 77.4032 15.4483C77.4809 15.4278 77.6642 15.5169 77.6662 15.5607C77.6781 15.6991 77.6435 15.8374 77.5682 15.9534C77.5175 16.0219 77.3471 16.0349 77.2484 16.0068C77.0976 15.9623 76.9617 15.8629 76.6953 15.7225Z" fill="white"/>
<path d="M64.0376 17.8552C63.9937 17.945 63.9498 18.0347 63.9024 18.1238L63.7334 18.4589C63.5676 18.3702 63.4067 18.2725 63.2513 18.1663C63.2257 18.1471 63.2581 17.9662 63.298 17.9511C63.5252 17.862 63.7625 17.8011 63.9971 17.7305C64.0147 17.7723 64.0275 17.8141 64.0376 17.8552Z" fill="white"/>
<path d="M28.5 31.9106L28.9611 31.7461C29.0693 32.0449 29.1829 32.3587 29.2958 32.6726L29.2106 32.7274C28.8448 32.5732 28.6366 32.2703 28.5 31.9106Z" fill="white"/>
<path d="M69.1641 23.2695L69.7441 23.6026C69.778 23.545 69.8388 23.4388 69.8997 23.3326L70.0072 23.4011C69.974 23.519 69.9172 23.6375 69.9159 23.7561C69.9145 23.8746 69.972 23.9822 70.0024 24.0898C69.6502 24.0864 69.2202 23.7335 69.1641 23.2695Z" fill="white"/>
<path d="M67.7063 26.009C67.5596 26.0254 67.4034 26.085 67.3635 26.0398C67.1681 25.8164 67.0038 25.5663 66.8125 25.3038C67.2973 25.247 67.3811 25.3038 67.5048 25.7013C67.5319 25.7876 67.6062 25.8589 67.7063 26.009Z" fill="white"/>
<path d="M78.7109 5.17578C78.9814 5.26829 79.2038 5.33271 79.4161 5.41905C79.6027 5.49443 79.6514 5.89188 79.5175 6.18038L78.7109 5.17578Z" fill="white"/>
<path d="M68.4509 4.08939C68.4509 3.87559 68.3955 3.68577 68.4638 3.60971C68.5803 3.48293 68.7401 3.40598 68.9107 3.39453C69.0547 3.39453 69.2007 3.52679 69.3407 3.61039C69.3476 3.62937 69.3502 3.64965 69.3485 3.66979C69.3467 3.68993 69.3406 3.70943 69.3305 3.72689C69.2764 3.75293 69.1825 3.78651 69.1547 3.76115C68.8309 3.46306 68.7295 3.70085 68.6321 3.97016C68.6226 3.99346 68.5794 4.00511 68.4509 4.08939Z" fill="white"/>
<path d="M47.5747 10.5234C47.7883 10.7455 48.2089 10.3562 48.3562 10.8791C48.1798 10.9517 47.9661 11.1224 47.8154 11.0764C47.6646 11.0305 47.597 10.764 47.4922 10.5968L47.5747 10.5234Z" fill="white"/>
<path d="M52.8247 26.2305C52.9552 26.3058 53.127 26.349 53.1831 26.4546C53.225 26.534 53.1445 26.715 53.0702 26.8136C52.9546 26.9685 52.8126 27.0144 52.7429 26.7568C52.7309 26.7068 52.7134 26.6583 52.6909 26.6122C52.6469 26.5306 52.5956 26.4525 52.5469 26.373L52.8247 26.2305Z" fill="white"/>
<path d="M30.4062 11.0369C30.5252 10.978 30.6314 10.9239 30.7396 10.8731C30.8031 10.8437 30.8701 10.8197 30.9363 10.793C30.964 10.8731 31.0215 10.9561 31.0134 11.0314C31.0022 11.1442 30.9623 11.2521 30.8978 11.3446C30.8383 11.4262 30.7321 11.4721 30.6463 11.5344C30.6016 11.4529 30.5543 11.3727 30.511 11.2898C30.4678 11.2069 30.4434 11.126 30.4062 11.0369Z" fill="white"/>
<path d="M36.0646 30.568L35.8618 30.8462C35.8003 30.6605 35.7495 30.5036 35.7266 30.4289L36.4865 30.0664L36.2303 30.8887C36.1599 30.7544 36.1234 30.6838 36.0646 30.568Z" fill="white"/>
<path d="M75.5625 15.3203C75.7653 15.4012 75.9729 15.4293 76.0824 15.5499C76.1548 15.6294 76.098 15.8459 76.0675 15.9939C76.0514 16.0269 76.0271 16.0551 75.997 16.0757C75.9669 16.0964 75.932 16.1088 75.8958 16.1118C75.8478 16.1063 75.7958 16.0097 75.7707 15.9439C75.7025 15.763 75.6477 15.578 75.5625 15.3203Z" fill="white"/>
<path d="M70.3203 23.6041C70.3879 23.2724 70.4603 22.9401 70.5319 22.6016C70.9383 22.7928 70.8666 23.2471 70.3203 23.6041Z" fill="white"/>
<path d="M22.109 14.8003C21.7649 14.703 21.4694 14.6187 21.4092 14.3247C21.3795 14.1822 21.5776 13.9924 21.7534 13.832C21.5262 14.2733 21.9616 14.4488 22.109 14.8003Z" fill="white"/>
<path d="M62.455 17.25C62.3252 17.5611 62.1954 17.8722 62.0615 18.195C61.7532 17.8935 61.9141 17.3939 62.455 17.25Z" fill="white"/>
<path d="M46.7266 24.319C46.8834 24.1943 47.0808 23.9387 47.189 23.9764C47.4257 24.0518 47.6177 24.2731 47.7975 24.4958C47.4372 24.4732 47.1464 24.0977 46.7617 24.4486L46.7266 24.319Z" fill="white"/>
<path d="M40.047 30.7782C39.7265 30.3335 39.7698 30.23 40.4053 29.8477L40.047 30.7782Z" fill="white"/>
<path d="M82.6064 16.2324L82.3359 16.0591L82.9444 15.9062C82.9377 16.0433 82.958 16.192 82.9154 16.3174C82.8728 16.4428 82.7714 16.5497 82.6821 16.6525C82.6652 16.6724 82.5401 16.632 82.5401 16.6272C82.555 16.5141 82.5773 16.3996 82.6064 16.2324Z" fill="white"/>
<path d="M46.7656 29.689L47.2788 29.4375C47.3329 29.5896 47.4816 29.8165 47.4262 29.8822C47.2233 30.1358 47.0151 29.9199 46.8143 29.8384L46.7656 29.689Z" fill="white"/>
<path d="M54.0728 26.3679C53.7847 26.2575 53.5157 26.1623 53.254 26.0451C53.2175 26.0293 53.1911 25.919 53.2087 25.871C53.2242 25.8433 53.2457 25.8195 53.2715 25.8015C53.2974 25.7834 53.327 25.7716 53.3581 25.7669C53.5461 25.7415 53.9923 26.1088 54.0728 26.3679Z" fill="white"/>
<path d="M56.258 13.6445C56.3649 13.7919 56.4635 13.9452 56.5535 14.1037C56.6066 14.2328 56.6507 14.3657 56.6853 14.5011C56.5562 14.4251 56.4108 14.3641 56.3033 14.2668C56.2171 14.1791 56.1563 14.0691 56.1276 13.9488C56.11 13.8837 56.1864 13.7973 56.258 13.6445Z" fill="white"/>
<path d="M65.5703 25.4348C65.6379 25.3532 65.7096 25.1977 65.7677 25.2032C66.0497 25.2299 66.291 24.7063 66.6129 25.1668L65.6528 25.5095L65.5703 25.4348Z" fill="white"/>
<path d="M79.7031 11.1562L80.3333 11.2597L79.9837 11.8449C79.5517 11.7476 79.8458 11.4256 79.7031 11.1562Z" fill="white"/>
<path d="M45.5 29.8444C45.5541 29.3818 45.8651 29.0906 46.1612 28.7891C45.9604 29.1529 45.8928 29.6018 45.5 29.8444Z" fill="white"/>
<path d="M6.03195 34.7588C5.81424 34.3477 5.93594 33.8248 6.25236 33.5L6.34363 33.524C6.24627 33.9077 6.14891 34.2915 6.03195 34.7588Z" fill="white"/>
<path d="M57.0333 21.5402L57.7155 22.346C57.4247 22.3323 57.2043 22.2679 57.0867 22.0527C57.0042 21.9013 57.0002 21.7101 56.9609 21.5312L57.0333 21.5402Z" fill="white"/>
<path d="M65.2099 11.9836L65.0037 12.035C64.9297 12.0579 64.8499 12.0505 64.7812 12.0144L65.193 11.543L65.4993 12.1919L65.3816 12.2556L65.2099 11.9836Z" fill="white"/>
<path d="M82.453 11.7602C82.1203 11.9561 81.7275 11.8623 81.6356 11.6005C81.6189 11.5376 81.622 11.471 81.6443 11.41C81.6581 11.3939 81.6758 11.3817 81.6955 11.3745C81.7153 11.3673 81.7366 11.3654 81.7573 11.3689C81.9784 11.486 82.1947 11.6128 82.453 11.7602Z" fill="white"/>
<path d="M3.15859 25.2972L2.58594 24.4688C2.99904 24.5174 3.22417 24.8292 3.25662 25.2328L3.15859 25.2972Z" fill="white"/>
<path d="M54.8125 15.2705C54.9092 15.0649 54.9572 14.956 55.0153 14.8498C55.0559 14.7716 55.1079 14.6997 55.1546 14.625C55.2378 14.6935 55.3615 14.7408 55.3926 14.8258C55.4237 14.9108 55.3764 15.0643 55.3121 15.1054C55.1864 15.1849 55.0255 15.2047 54.8125 15.2705Z" fill="white"/>
<path d="M6.36881 23.8349C6.27844 23.9791 6.17789 24.1165 6.06795 24.2461C6.04901 24.2666 5.86917 24.1947 5.83604 24.1282C5.72313 23.9034 5.82184 23.7259 6.04563 23.543C6.05509 23.68 6.06118 23.7657 6.06862 23.8705L6.28565 23.7616L6.36881 23.8349Z" fill="white"/>
<path d="M67.2558 4.60547L67.6012 5.66763C67.2091 5.49152 67.0644 5.055 67.2558 4.60547Z" fill="white"/>
<path d="M22.3701 24.7891C22.4958 25.3051 21.9434 25.2955 21.7088 25.5799C21.7034 25.4702 21.6973 25.3599 21.6953 25.314L22.3701 24.7891Z" fill="white"/>
<path d="M68.4097 24.6953L68.9066 25.3121L68.3516 25.5307C68.3725 25.2237 68.3881 25.0044 68.4097 24.6953Z" fill="white"/>
<path d="M28.9644 10.9336C29.1328 11.3352 29.0739 11.5716 28.8204 11.7093C28.7616 11.5264 28.6994 11.3345 28.625 11.1063L28.9644 10.9336Z" fill="white"/>
<path d="M55.8007 20.9922C55.8569 21.3259 55.9055 21.613 55.9596 21.9337C55.5026 21.7761 55.4458 21.4191 55.8007 20.9922Z" fill="white"/>
<path d="M23.7388 33.7642C23.2655 33.6854 23.5056 33.2461 23.25 32.9844H23.778C23.5191 33.2578 23.5664 33.4983 23.7388 33.7642Z" fill="white"/>
<path d="M73.0859 6.91731L73.307 6.12582L73.4193 6.10938C73.4531 6.2759 73.5423 6.45612 73.5051 6.60482C73.4679 6.75353 73.3063 6.87345 73.1988 7.00571L73.0859 6.91731Z" fill="white"/>
<path d="M44.759 29.4009L44.5961 28.9651L44.2344 28.9137C44.3094 28.6348 44.4636 28.6293 44.6488 28.7211C44.9078 28.8492 44.9537 29.0487 44.759 29.4009Z" fill="white"/>
<path d="M58.0902 25.2701C57.5175 25.3201 58.0178 25.7059 57.8116 25.8745C57.5777 25.6984 57.4269 25.3037 57.5736 25.1892C57.6683 25.1166 57.8528 25.1646 57.9975 25.1577L58.0902 25.2701Z" fill="white"/>
<path d="M63.8343 5.08322L63.0703 4.66041L63.5165 4.35547L63.8343 5.08322Z" fill="white"/>
<path d="M25.4837 32.342L25.7061 32.4105L26.0956 32.2734C26.1145 32.342 26.1699 32.4557 26.147 32.479C26.0469 32.5654 25.9198 32.6846 25.8089 32.6784C25.6737 32.6695 25.5452 32.5469 25.4141 32.4728C25.4384 32.4235 25.4614 32.381 25.4837 32.342Z" fill="white"/>
<path d="M40.8203 32.0338L41.1286 31.5664C41.2293 31.7137 41.3314 31.8296 41.3889 31.9652C41.4112 32.0159 41.3179 32.1804 41.299 32.177C41.1368 32.1388 40.977 32.091 40.8203 32.0338Z" fill="white"/>
<path d="M48.2565 28.8329C48.2331 28.7676 48.2153 28.7005 48.2031 28.6321C48.2065 28.5074 48.2153 28.3827 48.2227 28.2422L48.8109 28.4478C48.8238 28.4793 48.8373 28.5108 48.8502 28.543L48.2565 28.8329Z" fill="white"/>
<path d="M17.3153 14.8009C17.0449 14.8695 16.8596 14.7797 16.7826 14.5097C16.7697 14.4631 16.8549 14.3439 16.9117 14.3302C17.1044 14.2842 17.2923 14.5104 17.3153 14.8009Z" fill="white"/>
<path d="M20.4614 14.8789L20.7163 15.0646L20.4938 15.7677C20.1058 15.4737 20.5303 15.1653 20.4614 14.8789Z" fill="white"/>
<path d="M76.0078 11C76.1315 11.0144 76.2654 10.9918 76.3012 11.0418C76.452 11.2474 76.5717 11.4797 76.3574 11.849L76.0078 11Z" fill="white"/>
<path d="M73.1874 21.8633L73.9311 22.565L73.8296 22.6767C73.4916 22.5396 73.2976 22.247 73.0859 21.9716L73.1874 21.8633Z" fill="white"/>
<path d="M27.4167 31.7175L26.6953 31.3317C27.1997 30.9089 27.2261 31.5222 27.4857 31.5578L27.4167 31.7175Z" fill="white"/>
<path d="M58.2596 25.5386C58.2197 25.3961 58.1568 25.2549 58.1487 25.1103C58.1433 25.024 58.2237 24.9328 58.2663 24.8438C58.338 24.9184 58.4604 24.987 58.4692 25.0699C58.4881 25.2193 58.4394 25.3769 58.4191 25.5311L58.2596 25.5386Z" fill="white"/>
<path d="M10.7119 14.8963C10.6321 14.627 10.5679 14.4098 10.4922 14.1562C11.025 14.318 11.0824 14.4989 10.7119 14.8963Z" fill="white"/>
<path d="M53.8359 8.9255C53.9752 8.77337 54.1064 8.61371 54.2578 8.47391C54.2957 8.43896 54.393 8.46912 54.4607 8.46912C54.4404 8.5815 54.4607 8.75145 54.393 8.79462C54.2355 8.89878 54.0401 8.94401 53.8596 9.01322C53.8535 8.98375 53.8447 8.95497 53.8359 8.9255Z" fill="white"/>
<path d="M7.17331 34.9276C7.33625 35.1606 7.53299 34.6398 7.62562 34.9961C7.64387 35.0646 7.40048 35.2428 7.25106 35.3031C7.20306 35.323 7.07054 35.129 6.97656 35.029L7.17331 34.9276Z" fill="white"/>
<path d="M63.7734 28.0201C63.8374 27.788 63.9014 27.5555 63.9654 27.3225L64.0729 27.3047C64.1061 27.4369 64.1899 27.5788 64.1588 27.6967C64.1196 27.844 63.9884 27.966 63.8965 28.0989L63.7734 28.0201Z" fill="white"/>
<path d="M20.7906 28.4794C20.723 28.1635 20.3078 27.9264 20.6074 27.4844C20.727 27.8366 20.8318 28.1443 20.9359 28.452L20.7906 28.4794Z" fill="white"/>
<path d="M72.1875 23.3891C72.2287 23.2383 72.2382 23.065 72.3227 22.945C72.3788 22.8649 72.5404 22.8594 72.6547 22.8203C72.6418 22.921 72.6601 23.043 72.6094 23.1164C72.5188 23.2479 72.3869 23.35 72.2713 23.4638L72.1875 23.3891Z" fill="white"/>
<path d="M51.2808 25.3529C51.2484 25.0102 51.2193 24.706 51.1875 24.375C51.5303 24.621 51.5763 25.074 51.2808 25.3529Z" fill="white"/>
<path d="M50.5677 9.80078C50.6617 10.0578 50.728 10.2366 50.7936 10.4175L50.7374 10.4778C50.5968 10.3839 50.4089 10.3161 50.3318 10.1832C50.3 10.1194 50.4832 9.93098 50.5677 9.80078Z" fill="white"/>
<path d="M76.0754 10.57L75.7299 10.875C75.6623 10.788 75.5271 10.6893 75.5399 10.6173C75.5575 10.5207 75.6751 10.4179 75.7766 10.3734C75.8239 10.3535 75.9273 10.4673 76.0754 10.57Z" fill="white"/>
<path d="M14.8984 22.3557C14.9207 22.0713 14.941 21.8075 14.966 21.543C15.3014 21.9898 15.2743 22.2776 14.8984 22.3557Z" fill="white"/>
<path d="M22.5156 32.563C22.5657 32.2485 22.6062 31.9922 22.6556 31.6797C22.9335 32.0593 22.8821 32.3848 22.5156 32.563Z" fill="white"/>
<path d="M16.4791 22.2384C16.707 22.1979 16.855 22.3151 16.9112 22.5317C16.926 22.5913 16.8239 22.6817 16.7759 22.7578L16.375 22.3466L16.4791 22.2384Z" fill="white"/>
<path d="M75.579 8.64363C75.4282 8.75327 75.2788 8.86565 75.1206 8.96433C75.1152 8.96776 75.0266 8.8355 74.9766 8.76697L75.4546 8.45312L75.579 8.64363Z" fill="white"/>
<path d="M81.5771 16.8281C81.6176 16.8463 81.6567 16.8676 81.694 16.8919C81.8455 17.1351 81.7427 17.3174 81.5433 17.4586C81.5108 17.4819 81.4223 17.4236 81.3594 17.4031C81.431 17.2146 81.5027 17.0262 81.5771 16.8281Z" fill="white"/>
<path d="M5.25781 23.3509C5.31393 23.2235 5.35111 23.0809 5.43292 22.974C5.47687 22.9165 5.59722 22.9192 5.68308 22.8945C5.6912 22.987 5.73987 23.1104 5.69931 23.1686C5.61615 23.2831 5.48498 23.3619 5.37342 23.4558L5.25781 23.3509Z" fill="white"/>
<path d="M24.5469 31.799C24.5914 31.7727 24.6377 31.7498 24.6855 31.7305C24.8417 31.8675 24.9972 32.0046 25.1452 32.1526C25.1493 32.1567 25.0654 32.2526 25.0222 32.3061L24.5469 31.799Z" fill="white"/>
<path d="M80.7969 12.8868C80.8117 12.6045 81.0612 12.5517 81.2363 12.4414C81.3072 12.493 81.3617 12.5645 81.3932 12.647C81.404 12.6943 81.3141 12.7991 81.2512 12.8197C81.1255 12.8594 80.9862 12.8608 80.7969 12.8868Z" fill="white"/>
<path d="M9.60075 13.9297L9.95706 14.3463C9.72177 14.4991 9.53585 14.4347 9.41145 14.2662C9.36682 14.2065 9.4493 14.0496 9.47432 13.9365L9.60075 13.9297Z" fill="white"/>
<path d="M78.9766 21.6013L78.9982 21.1367L79.4255 21.2491C79.439 21.2834 79.4519 21.3176 79.4654 21.3533L79.0658 21.6692L78.9766 21.6013Z" fill="white"/>
<path d="M59.3359 28.3219C59.5557 28.3137 59.5557 28.3137 59.8356 28.9387C59.5861 28.9757 59.4387 28.792 59.3359 28.3219Z" fill="white"/>
<path d="M20.7578 11.8198C20.8302 11.5621 20.8883 11.3559 20.9559 11.1133C21.2406 11.5416 21.1993 11.73 20.7578 11.8198Z" fill="white"/>
<path d="M31.1461 23.7539L31.4753 24.3611C31.2908 24.4344 31.1603 24.3151 31.044 24.1411C30.9101 23.9417 31.0271 23.8389 31.1461 23.7539Z" fill="white"/>
<path d="M67.1094 26.935C67.3616 26.8329 67.5455 26.887 67.6354 27.1536C67.6577 27.2221 67.6232 27.305 67.6144 27.3811C67.5367 27.3557 67.438 27.3523 67.3852 27.3009C67.2842 27.1862 67.192 27.0639 67.1094 26.935Z" fill="white"/>
<path d="M7.96167 38.2404C7.87107 38.0848 7.78047 37.9896 7.7994 37.9512C7.87149 37.834 7.95533 37.7247 8.04957 37.625C8.09689 37.7011 8.1929 37.7881 8.18005 37.8518C8.15706 37.9642 8.06714 38.0622 7.96167 38.2404Z" fill="white"/>
<path d="M25.522 14.2855C25.4036 14.1149 25.2738 13.9504 25.1731 13.7695C25.1433 13.7154 25.1954 13.6146 25.2096 13.5352C25.2772 13.5783 25.3739 13.6037 25.4003 13.6667C25.4794 13.8483 25.5301 14.0436 25.5916 14.2334L25.522 14.2855Z" fill="white"/>
<path d="M62.3218 25.0529L61.5781 24.935C61.8127 24.6253 62.0588 24.6459 62.3218 25.0529Z" fill="white"/>
<path d="M28.2819 31.1375L28.7735 31.082L28.7775 31.3321H28.2812L28.2819 31.1375Z" fill="white"/>
<path d="M6.17188 23.2037L6.84798 22.8008C6.84933 23.1838 6.62757 23.3168 6.17188 23.2037Z" fill="white"/>
<path d="M68.0391 4.95471C68.0983 4.79891 68.166 4.64655 68.2419 4.49833C68.2493 4.48394 68.3886 4.54287 68.4664 4.56685L68.2351 5.04037L68.0391 4.95471Z" fill="white"/>
<path d="M26.2354 26.4375C26.1503 26.6595 26.0653 26.8816 25.9806 27.1036L25.8589 27.0549C25.7358 26.7493 25.9197 26.567 26.2354 26.4375Z" fill="white"/>
<path d="M30.6352 17.6935L30.091 17.5619C30.0829 17.4828 30.0845 17.4029 30.0957 17.3242C30.1099 17.2673 30.1633 17.1871 30.2039 17.1803C30.2445 17.1734 30.3222 17.2296 30.3601 17.2776C30.4398 17.3804 30.5075 17.4955 30.6352 17.6935Z" fill="white"/>
<path d="M66.4037 13.0017L66.2347 13.2991C66.1738 13.2587 66.0765 13.2306 66.0609 13.1751C66.0332 13.0791 66.0548 12.9695 66.0562 12.8633L66.4111 13.0113L66.4037 13.0017Z" fill="white"/>
<path d="M60.1626 28.3579C60.1261 28.1215 60.0781 27.8851 60.0625 27.6466C60.0625 27.5979 60.1741 27.541 60.2342 27.4883C60.2524 27.5596 60.2651 27.6322 60.2721 27.7055C60.2775 27.9111 60.2721 28.1167 60.2721 28.3223L60.1626 28.3579Z" fill="white"/>
<path d="M77.2188 21.8044C77.2539 21.6091 77.2809 21.4117 77.3323 21.2212C77.3411 21.1897 77.4574 21.1876 77.5243 21.1719C77.5399 21.2404 77.5879 21.3233 77.5642 21.3706C77.4816 21.5232 77.3913 21.6714 77.2938 21.8147L77.2188 21.8044Z" fill="white"/>
<path d="M53.0556 27.9527C52.9308 27.8398 52.8054 27.727 52.6797 27.6142C52.7439 27.5614 52.8548 27.4559 52.8656 27.4655C52.9818 27.5753 53.0921 27.6913 53.1962 27.8129L53.0556 27.9527Z" fill="white"/>
<path d="M59.8277 24.9375C59.8108 25.6173 59.8108 25.6173 59.4531 25.5542L59.8277 24.9375Z" fill="white"/>
<path d="M55.6893 28.2266C55.8166 28.2538 55.9413 28.2926 56.0618 28.3424C56.1159 28.3712 56.1369 28.463 56.1727 28.526C56.1091 28.5548 56.0375 28.6213 55.9841 28.6062C55.8171 28.5541 55.5872 28.5301 55.6893 28.2266Z" fill="white"/>
<path d="M51.1094 22.4009L51.2838 22.1953C51.4292 22.2638 51.582 22.3358 51.7266 22.4194C51.7334 22.4438 51.7348 22.4694 51.7307 22.4944C51.7266 22.5194 51.7172 22.5431 51.703 22.564C51.676 22.5791 51.6463 22.5886 51.6157 22.592C51.5851 22.5954 51.5541 22.5926 51.5245 22.5839C51.3879 22.5366 51.2568 22.468 51.1094 22.4009Z" fill="white"/>
<path d="M75.3516 25.5156C75.6991 25.6979 75.695 25.887 75.3516 26.1851V25.5156Z" fill="white"/>
<path d="M74.9108 25.7156C74.8743 25.8944 74.8371 26.074 74.7803 26.3488C74.6762 26.2117 74.4997 26.0603 74.5261 25.9911C74.5788 25.854 74.7431 25.7595 74.8641 25.6484L74.9108 25.7156Z" fill="white"/>
<path d="M38.7008 31.7971C38.6068 31.8245 38.4926 31.8992 38.4223 31.8656C38.3719 31.8406 38.3273 31.8053 38.2911 31.7619C38.2549 31.7185 38.228 31.668 38.212 31.6135C38.1985 31.5449 38.3168 31.4552 38.3763 31.375L38.6062 31.6196L38.7008 31.7971Z" fill="white"/>
<path d="M25.4573 13.4129C25.2957 13.3409 25.1334 13.271 24.9766 13.1902C24.9913 13.1318 25.0107 13.0747 25.0347 13.0195L25.5289 13.2422C25.5046 13.2991 25.4809 13.356 25.4573 13.4129Z" fill="white"/>
<path d="M83.0222 12.1562C83.0552 12.2911 83.0761 12.4287 83.0844 12.5674C83.0844 12.601 82.9491 12.6359 82.8761 12.6654C82.8603 12.5064 82.8444 12.3479 82.8281 12.1898L83.0222 12.1562Z" fill="white"/>
<path d="M37.2103 11.3242C37.2935 11.4256 37.3814 11.5072 37.3706 11.5236C37.3035 11.6297 37.221 11.7249 37.1258 11.806C37.1123 11.8176 37.0082 11.7182 36.9453 11.6689L37.2103 11.3242Z" fill="white"/>
<path d="M34.2025 13.0703C34.2849 13.2266 34.3478 13.3444 34.4519 13.5397L33.8516 13.3657C33.8516 13.3328 33.8516 13.2971 33.8516 13.2663L34.2025 13.0703Z" fill="white"/>
<path d="M82.7109 21.0466C82.9395 20.9637 83.1166 21.0383 83.4891 21.381C83.2674 21.4858 83.1693 21.4447 82.7109 21.0466Z" fill="white"/>
<path d="M66.6172 26.8252V26.1797C66.9559 26.2914 66.962 26.4942 66.6172 26.8252Z" fill="white"/>
<path d="M74.0392 24.8984C74.1609 24.9759 74.3015 25.0355 74.3969 25.139C74.457 25.2075 74.4489 25.335 74.4712 25.4364L74.3773 25.47L74 24.9992L74.0392 24.8984Z" fill="white"/>
<path d="M69.7266 22.5195C70.0775 22.7697 70.0869 22.8779 69.7942 23.1925C69.7678 22.9471 69.7509 22.7697 69.7266 22.5195Z" fill="white"/>
<path d="M39.3594 18.3163C39.5561 18.1354 39.6765 18.0251 39.7961 17.9141L39.8793 17.9552C39.8153 18.1168 39.7424 18.2747 39.6609 18.428C39.6514 18.4417 39.4946 18.3684 39.3594 18.3163Z" fill="white"/>
<path d="M45.2702 15.065C44.9119 15.0355 44.8145 14.8916 44.8206 14.6792C44.8206 14.6367 44.9382 14.5983 45.0011 14.5586L45.2702 15.065Z" fill="white"/>
<path d="M39.2714 21.8281C39.2335 22.0741 39.2112 22.2701 39.1693 22.462C39.1591 22.5079 39.0827 22.5394 39.0341 22.5778C39.003 22.5374 38.9414 22.4935 38.9455 22.4572C38.9759 22.2208 38.9942 21.972 39.2714 21.8281Z" fill="white"/>
<path d="M6.03991 36.3311C5.85833 36.3231 5.67757 36.3018 5.49903 36.2673C5.46184 36.2584 5.45846 36.1063 5.4375 36.0117L6.0541 36.2173L6.03991 36.3311Z" fill="white"/>
<path d="M35.7082 10.692C35.5811 10.433 35.3168 10.2911 35.5838 10.0156C35.8333 10.1657 35.834 10.3679 35.7082 10.692Z" fill="white"/>
<path d="M33.8348 10.3966C33.8348 10.2712 33.7942 10.1225 33.849 10.0286C33.8862 9.96553 34.0565 9.98335 34.1674 9.96484L34.2147 10.0402L33.9443 10.4288L33.8348 10.3966Z" fill="white"/>
<path d="M61.4206 7.41013C61.4003 7.24224 61.378 7.07434 61.3672 6.90577C61.3672 6.8948 61.4591 6.87767 61.5078 6.86328C61.5491 7.0298 61.5896 7.19701 61.6309 7.36353L61.4206 7.41013Z" fill="white"/>
<path d="M4.37276 36.7774C4.25106 36.8905 4.18481 36.996 4.10232 37.0145C4.05229 37.0254 3.97251 36.9007 3.90625 36.837C3.97927 36.7685 4.04147 36.6719 4.13071 36.6314C4.16655 36.6129 4.25377 36.7 4.37276 36.7774Z" fill="white"/>
<path d="M38.1484 23.0579C38.1484 22.9475 38.1267 22.8304 38.1558 22.7283C38.1754 22.6597 38.2653 22.609 38.3235 22.5508C38.3593 22.6323 38.4418 22.7296 38.4215 22.7927C38.385 22.9064 38.2863 22.9983 38.214 23.101L38.1484 23.0579Z" fill="white"/>
<path d="M36.8566 22.4297L37.3515 22.6277C37.1926 22.7298 37.0567 22.8573 37.0209 22.8333C36.9168 22.7648 36.8532 22.6277 36.7734 22.5236L36.8566 22.4297Z" fill="white"/>
<path d="M51.8946 25.1016C52.023 25.2319 52.1444 25.3692 52.2583 25.5127C52.2847 25.5484 52.234 25.6429 52.2185 25.7101C52.1617 25.6868 52.0832 25.6799 52.0528 25.6368C51.9602 25.4915 51.8858 25.3339 51.8047 25.1811L51.8946 25.1016Z" fill="white"/>
<path d="M65.2109 23.6992C65.2968 23.7677 65.4219 23.815 65.4591 23.9048C65.5118 24.0281 65.5057 24.1789 65.505 24.3201C65.505 24.3338 65.3698 24.3468 65.3698 24.3468L65.2109 23.6992Z" fill="white"/>
<path d="M7.62412 20.3424L7.01562 20.5781C7.13191 20.1827 7.32866 20.093 7.62412 20.3424Z" fill="white"/>
<path d="M56.9375 24.1584L57.3878 24.0898L57.1329 24.6764C57.0565 24.4818 57.0051 24.3489 56.9375 24.1584Z" fill="white"/>
<path d="M61.7264 8.31452C61.5101 8.20488 61.3505 8.0596 61.3884 7.79509L61.4938 7.72656C61.6137 7.90199 61.7339 8.07719 61.8542 8.25217L61.7264 8.31452Z" fill="white"/>
<path d="M9.33926 15.6223L8.89844 15.2913C9.2108 15.1638 9.35886 15.2769 9.42174 15.5174L9.33926 15.6223Z" fill="white"/>
<path d="M44.8457 8.47331L44.6875 7.91961L44.8018 7.88672C44.9742 8.03679 45.0722 8.20742 44.9721 8.43493L44.8457 8.47331Z" fill="white"/>
<path d="M6.22537 35.5149C6.21252 35.6752 6.19968 35.8363 6.17737 36.1097C6.04823 35.9678 5.90693 35.874 5.92315 35.8171C5.95358 35.6896 6.05837 35.5807 6.1341 35.4648L6.22537 35.5149Z" fill="white"/>
<path d="M6.63935 35.8824L7.18496 35.8516C7.04974 35.9941 6.97335 36.1421 6.87058 36.1627C6.79215 36.1791 6.68194 36.0338 6.58594 35.9571L6.63935 35.8824Z" fill="white"/>
<path d="M69.7418 4.809C69.7418 4.66303 69.6823 4.45951 69.7546 4.38344C69.8898 4.23954 70.0568 4.23954 69.977 4.5294C69.9514 4.62329 69.9094 4.71374 69.879 4.80351L69.7418 4.809Z" fill="white"/>
<path d="M59.1172 27.8975L59.6615 27.3945C59.7122 27.7324 59.6006 27.8331 59.1172 27.8975Z" fill="white"/>
<path d="M61.6938 12.7266C61.5586 12.8842 61.4234 13.0422 61.2882 13.2008L61.1719 13.1028L61.5579 12.6094L61.6938 12.7266Z" fill="white"/>
<path d="M74.7326 24.6328L74.9354 25.2557L74.7941 25.3064L74.5703 24.6897L74.7326 24.6328Z" fill="white"/>
<path d="M40.9294 29.0781L41.5575 29.3097C41.1741 29.7154 41.1877 29.0199 40.8672 29.2494L40.9294 29.0781Z" fill="white"/>
<path d="M18.411 14.4922C18.432 14.6292 18.4563 14.7711 18.4658 14.9116C18.4066 14.9298 18.3456 14.9413 18.2839 14.9458C18.246 14.8088 18.2217 14.6717 18.1953 14.5299L18.411 14.4922Z" fill="white"/>
<path d="M37.0682 24.021L36.9844 23.614L37.2264 23.5742V24.0059L37.0682 24.021Z" fill="white"/>
<path d="M71.8895 6.47684L71.7468 7.01751C71.5703 6.78521 71.5528 6.5899 71.759 6.44531L71.8895 6.47684Z" fill="white"/>
<path d="M82.766 9.66865L82.453 9.87834L82.3516 9.64877L82.6856 9.51172L82.766 9.66865Z" fill="white"/>
<path d="M22.3263 32.6904L22.0262 33.1495L21.8828 33.0549L22.1803 32.5938L22.3263 32.6904Z" fill="white"/>
<path d="M54.4696 26.2493C54.3384 26.0938 54.1991 25.9423 54.0808 25.7786C54.0538 25.7416 54.0869 25.6593 54.0923 25.5977C54.1559 25.6237 54.2498 25.6312 54.2775 25.6785C54.3736 25.8416 54.4459 26.0212 54.527 26.1897L54.4696 26.2493Z" fill="white"/>
<path d="M21.7109 33.865C21.7326 33.6437 21.7475 33.4929 21.7657 33.3086C22.074 33.556 22.0713 33.6478 21.7109 33.865Z" fill="white"/>
<path d="M16.6421 27.2539C16.6856 27.3801 16.719 27.5095 16.7422 27.6411C16.7422 27.6671 16.6219 27.7096 16.5569 27.7425C16.5252 27.5972 16.4893 27.4513 16.4609 27.306L16.6421 27.2539Z" fill="white"/>
<path d="M79.688 14.4278C79.3073 14.3195 79.2661 14.1955 79.4486 13.8398L79.688 14.4278Z" fill="white"/>
<path d="M61.3092 7.71366C60.8873 7.8233 60.8183 7.7678 60.8292 7.35938L61.3092 7.71366Z" fill="white"/>
<path d="M29.1328 30.6008C29.2173 30.4452 29.3012 30.2897 29.4134 30.082C29.4715 30.1732 29.5608 30.278 29.5486 30.2951C29.4343 30.4236 29.3133 30.5457 29.1862 30.6611L29.1328 30.6008Z" fill="white"/>
<path d="M58.533 25.6367L58.9427 25.8594C58.9373 25.8944 58.9326 25.928 58.9278 25.9643C58.8129 25.9643 58.6817 25.9979 58.5898 25.9526C58.5222 25.9204 58.5073 25.7813 58.4688 25.6902L58.533 25.6367Z" fill="white"/>
<path d="M49.9445 10.1106C49.9114 9.94543 49.8769 9.7796 49.8438 9.61445L50.0087 9.57812C50.0466 9.74259 50.0844 9.90637 50.1216 10.0708L49.9445 10.1106Z" fill="white"/>
<path d="M29.5391 10.7365C29.5769 10.5748 29.6155 10.4124 29.6533 10.25L29.8149 10.2815L29.7297 10.7797L29.5391 10.7365Z" fill="white"/>
<path d="M34.2354 32.4961L34.566 32.8127C34.518 32.847 34.443 32.921 34.4254 32.9086C34.3129 32.8246 34.2048 32.7347 34.1016 32.6393L34.2354 32.4961Z" fill="white"/>
<path d="M39.9531 17.0028C40.0318 16.8782 40.1187 16.7591 40.2134 16.6465C40.2459 16.6109 40.3378 16.6314 40.4027 16.6266C40.3926 16.6842 40.4027 16.7637 40.3676 16.7959C40.2585 16.8951 40.1445 16.9886 40.0261 17.0762L39.9531 17.0028Z" fill="white"/>
<path d="M70.37 20.0403C70.2111 19.1494 70.061 18.3148 69.9116 17.4787C70.1821 17.4143 70.3044 16.849 70.1557 16.2398L69.9076 16.6818L69.7642 16.6091L68.5547 9.63788C69.1895 9.57895 69.7987 9.46451 70.4038 9.48233C71.0596 9.5022 71.4335 9.9723 71.5796 10.5849C71.7317 11.2257 71.8236 11.8808 71.9392 12.5174L71.5491 12.7874C72.0413 13.2218 72.186 13.7653 72.2624 14.345C72.3158 14.7514 72.4057 15.1536 72.4652 15.56C72.4828 15.684 72.4443 15.8163 72.4355 15.9458C72.4308 16.0102 72.4139 16.0883 72.4409 16.139C72.8209 16.8524 72.8418 17.6404 72.8871 18.4175C72.9108 18.8342 72.7323 19.1878 72.3645 19.4653C72.4233 19.3132 72.4693 19.1912 72.522 19.0542C72.2408 18.9534 72.2178 19.1528 72.2205 19.2919C72.2259 19.5729 72.0684 19.6791 71.8399 19.7285C71.3578 19.836 70.8764 19.9347 70.37 20.0403ZM71.1962 11.2928C71.0732 11.0379 70.9974 10.8816 70.9258 10.7295L70.3747 11.0132L71.1962 11.2928ZM69.7034 10.1628C69.5546 10.0641 69.4512 9.94488 69.3876 9.96339C69.2745 10.0066 69.1826 10.0929 69.1314 10.2039C69.1118 10.2471 69.2666 10.4383 69.2957 10.428C69.4214 10.378 69.5296 10.2834 69.7034 10.1628ZM69.7608 10.3156C69.9305 10.4355 70.0367 10.6665 70.2923 10.5212C70.3146 10.5089 70.2855 10.328 70.2328 10.2697C70.0894 10.1107 69.9245 10.047 69.7608 10.3163V10.3156ZM70.3693 12.5996L70.2835 12.6558C70.3937 12.836 70.4978 13.0211 70.6215 13.191C70.6404 13.217 70.7622 13.191 70.8129 13.1567C70.827 13.1315 70.8345 13.1029 70.8345 13.0738C70.8345 13.0448 70.827 13.0162 70.8129 12.9909C70.6763 12.8518 70.5215 12.7284 70.372 12.5996H70.3693ZM71.5579 12.1446L71.4761 12.024C71.157 12.0123 71.065 12.2782 70.9298 12.492L70.9907 12.5708L71.5579 12.1446Z" fill="#FE5050"/>
<path d="M48.625 13.2145C49.2267 13.146 49.7919 13.0308 50.3599 13.0199C50.9907 13.0068 51.4538 13.3707 51.6269 14.006C51.7779 14.5549 51.876 15.1174 51.9196 15.6856C51.9778 16.4866 51.6039 16.9876 50.8379 17.2021C50.3741 17.3316 49.8913 17.398 49.3728 17.5022C49.126 16.0823 48.8833 14.6947 48.625 13.2145Z" fill="#FE5050"/>
<path d="M34.1583 20.3707C33.7594 18.8713 33.6073 17.4302 33.3125 15.9452C33.9311 15.8767 34.4977 15.7629 35.0636 15.7657C35.3523 15.7657 35.6667 15.9315 35.9189 16.1001C36.1012 16.2339 36.2297 16.4301 36.2806 16.6524C36.4266 17.3856 36.5754 18.1257 36.6186 18.8692C36.645 19.3489 36.3353 19.7601 35.8749 19.9198C35.3205 20.1144 34.7343 20.224 34.1583 20.3707Z" fill="#FE5050"/>
<path d="M71.1985 11.2938L70.375 11.0142L70.926 10.7305C71.0011 10.8819 71.0754 11.0388 71.1985 11.2938Z" fill="white"/>
<path d="M69.7045 10.1623C69.5307 10.2829 69.4225 10.3774 69.2988 10.4275C69.2731 10.4377 69.1149 10.2466 69.1345 10.2034C69.1857 10.0924 69.2776 10.0061 69.3907 9.96285C69.4523 9.94435 69.5557 10.0636 69.7045 10.1623Z" fill="white"/>
<path d="M69.7656 10.3164C69.9292 10.0477 70.0942 10.1108 70.2389 10.2711C70.2916 10.3294 70.3207 10.5103 70.2984 10.5226C70.0415 10.6665 69.9353 10.4356 69.7656 10.3164Z" fill="white"/>
<path d="M70.3743 12.5977C70.5237 12.7265 70.6785 12.8498 70.8185 12.9889C70.8326 13.0142 70.8401 13.0428 70.8401 13.0719C70.8401 13.1009 70.8326 13.1295 70.8185 13.1548C70.7677 13.1904 70.646 13.2151 70.6271 13.189C70.5034 13.0191 70.3993 12.8341 70.2891 12.6538L70.3743 12.5977Z" fill="white"/>
<path d="M71.5656 12.1444L70.9983 12.5707L70.9375 12.4918C71.0727 12.278 71.1647 12.0122 71.4838 12.0238L71.5656 12.1444Z" fill="white"/>
</g>
<defs>
<clipPath id="clip0_3238_251094">
<rect width="87" height="39" fill="white"/>
</clipPath>
</defs>
</svg>
