<svg width="25" height="18" viewBox="0 0 25 18" fill="none" xmlns="http://www.w3.org/2000/svg">
<path d="M20 1.875H2.5C2.10938 1.90104 1.90104 2.10938 1.875 2.5V12.5C1.90104 12.8906 2.10938 13.099 2.5 13.125H13.5938C13.3854 13.4115 13.2422 13.724 13.1641 14.0625L12.9297 15H2.5C1.79688 14.974 1.21094 14.7266 0.742188 14.2578C0.273438 13.7891 0.0260417 13.2031 0 12.5V2.5C0.0260417 1.79688 0.273438 1.21094 0.742188 0.742188C1.21094 0.273438 1.79688 0.0260417 2.5 0H20C20.7031 0.0260417 21.2891 0.273438 21.7578 0.742188C22.2266 1.21094 22.474 1.79688 22.5 2.5V5.03906C21.901 5.11719 21.3672 5.3776 20.8984 5.82031L20.625 6.09375V2.5C20.599 2.10938 20.3906 1.90104 20 1.875ZM10 9.0625C10.0521 8.48958 10.3646 8.17708 10.9375 8.125H12.8125C13.3854 8.17708 13.6979 8.48958 13.75 9.0625C13.6979 9.63542 13.3854 9.94792 12.8125 10H10.9375C10.3646 9.94792 10.0521 9.63542 10 9.0625ZM16.5625 4.375C17.1354 4.42708 17.4479 4.73958 17.5 5.3125C17.4479 5.88542 17.1354 6.19792 16.5625 6.25H10.9375C10.3646 6.19792 10.0521 5.88542 10 5.3125C10.0521 4.73958 10.3646 4.42708 10.9375 4.375H16.5625ZM6.21094 2.96875C6.73177 3.02083 7.00521 3.28125 7.03125 3.75V3.98438C7.34375 4.0625 7.61719 4.1276 7.85156 4.17969C8.29427 4.33594 8.47656 4.64844 8.39844 5.11719C8.24219 5.5599 7.92969 5.74219 7.46094 5.66406C7.40885 5.66406 7.33073 5.65104 7.22656 5.625C6.96615 5.57292 6.75781 5.52083 6.60156 5.46875C6.10677 5.44271 5.74219 5.49479 5.50781 5.625C5.27344 5.72917 5.15625 5.83333 5.15625 5.9375C5.15625 6.04167 5.16927 6.10677 5.19531 6.13281C5.16927 6.13281 5.20833 6.17188 5.3125 6.25C5.54688 6.40625 5.89844 6.54948 6.36719 6.67969C6.39323 6.67969 6.41927 6.69271 6.44531 6.71875H6.52344C6.52344 6.71875 6.53646 6.71875 6.5625 6.71875C7.08333 6.84896 7.59115 7.07031 8.08594 7.38281C8.3724 7.5651 8.59375 7.83854 8.75 8.20312C8.90625 8.54167 8.94531 8.91927 8.86719 9.33594C8.71094 10.0911 8.29427 10.599 7.61719 10.8594C7.53906 10.8854 7.46094 10.9115 7.38281 10.9375C7.27865 10.9896 7.16146 11.0286 7.03125 11.0547V11.25C7.00521 11.7188 6.73177 11.9792 6.21094 12.0312C5.76823 11.9792 5.52083 11.7188 5.46875 11.25V11.0156C5.02604 10.8854 4.63542 10.7682 4.29688 10.6641C4.29688 10.638 4.29688 10.625 4.29688 10.625C4.21875 10.625 4.16667 10.599 4.14062 10.5469C3.69792 10.3906 3.52865 10.0781 3.63281 9.60938C3.8151 9.16667 4.14062 8.9974 4.60938 9.10156C4.66146 9.10156 4.70052 9.11458 4.72656 9.14062C4.77865 9.14062 4.83073 9.15365 4.88281 9.17969C5.27344 9.33594 5.61198 9.4401 5.89844 9.49219C6.39323 9.57031 6.77083 9.54427 7.03125 9.41406C7.21354 9.33594 7.31771 9.21875 7.34375 9.0625C7.34375 8.93229 7.33073 8.85417 7.30469 8.82812C7.30469 8.77604 7.26562 8.72396 7.1875 8.67188C6.95312 8.51562 6.5625 8.35938 6.01562 8.20312L5.9375 8.16406C5.44271 8.0599 4.94792 7.85156 4.45312 7.53906C4.16667 7.38281 3.93229 7.13542 3.75 6.79688C3.59375 6.43229 3.55469 6.05469 3.63281 5.66406C3.8151 4.9349 4.21875 4.4401 4.84375 4.17969C5.02604 4.10156 5.23438 4.03646 5.46875 3.98438V3.71094C5.52083 3.26823 5.76823 3.02083 6.21094 2.96875ZM24.5312 7.26562C24.8438 7.57812 25 7.94271 25 8.35938C25 8.77604 24.8438 9.15365 24.5312 9.49219L23.3984 10.625L20.625 7.85156L21.7578 6.71875C22.0964 6.40625 22.4609 6.25 22.8516 6.25C23.2682 6.25 23.6458 6.40625 23.9844 6.71875L24.5312 7.26562ZM14.6875 13.75L19.7266 8.75L22.5 11.5234L17.4609 16.5625C17.3047 16.7188 17.1094 16.8229 16.875 16.875L14.5312 17.4609C14.2969 17.513 14.1016 17.4609 13.9453 17.3047C13.7891 17.1484 13.737 16.9401 13.7891 16.6797L14.375 14.375C14.4271 14.1667 14.5312 13.9583 14.6875 13.75Z" fill="#868E96"/>
</svg>
