<svg width="102" height="101" viewBox="0 0 102 101" fill="none" xmlns="http://www.w3.org/2000/svg">
<path d="M98.4375 92.4922L72.2656 66.3203C78.125 59.1589 81.1198 50.7604 81.25 41.125C80.9896 29.6667 77.0182 20.0964 69.3359 12.4141C61.6536 4.73177 52.0833 0.760417 40.625 0.5C29.1667 0.760417 19.5964 4.73177 11.9141 12.4141C4.23177 20.0964 0.260417 29.6667 0 41.125C0.260417 52.5833 4.23177 62.1536 11.9141 69.8359C19.5964 77.5182 29.1667 81.4896 40.625 81.75C50.3906 81.6198 58.7891 78.6901 65.8203 72.9609L91.9922 99.1328C92.9036 100.044 94.0104 100.5 95.3125 100.5C96.6146 100.5 97.7214 100.044 98.6328 99.1328C100.456 96.9193 100.391 94.7057 98.4375 92.4922ZM40.625 72.375C31.7708 72.1146 24.4141 69.0547 18.5547 63.1953C12.6953 57.3359 9.63542 49.9792 9.375 41.125C9.63542 32.2708 12.6953 24.9141 18.5547 19.0547C24.4141 13.1953 31.7708 10.1354 40.625 9.875C49.4792 10.1354 56.8359 13.1953 62.6953 19.0547C68.5547 24.9141 71.6146 32.2708 71.875 41.125C71.6146 49.9792 68.5547 57.3359 62.6953 63.1953C56.8359 69.0547 49.4792 72.1146 40.625 72.375ZM56.25 36.4375H45.1172V25.5C44.8568 22.6354 43.3594 21.0729 40.625 20.8125C39.3229 20.8125 38.2161 21.2682 37.3047 22.1797C36.3932 23.0911 35.9375 24.1979 35.9375 25.5V36.4375H24.8047C22.0703 36.6979 20.5729 38.2604 20.3125 41.125C20.5729 43.9896 22.0703 45.5521 24.8047 45.8125H35.9375V56.75C36.1979 59.6146 37.6953 61.1771 40.4297 61.4375C43.2943 61.1771 44.7917 59.6146 44.9219 56.75V45.8125H55.8594C58.9844 45.5521 60.6771 43.9896 60.9375 41.125C60.6771 38.2604 59.1146 36.6979 56.25 36.4375Z" fill="#3EAEFF"/>
</svg>
