<svg width="104" height="103" viewBox="0 0 104 103" fill="none" xmlns="http://www.w3.org/2000/svg">
<path d="M100.828 47.0078L80.125 12.0469C78.4323 9.3125 75.8932 7.88021 72.5078 7.75H31.4922C28.1068 7.88021 25.5677 9.3125 23.875 12.0469L3.17188 47.0078C1.60938 50.0026 1.60938 52.9974 3.17188 55.9922L23.875 90.9531C25.5677 93.6875 28.1068 95.1198 31.4922 95.25H72.5078C75.8932 95.1198 78.4323 93.6875 80.125 90.9531L100.828 55.9922C102.391 52.9974 102.391 50.0026 100.828 47.0078ZM72.3125 85.875H31.6875L11.5703 51.5L31.6875 17.125H72.3125L92.625 51.3047L72.3125 85.875ZM67.4297 35.6797L45.75 57.3594L36.375 48.1797C34.1615 46.3568 31.9479 46.3568 29.7344 48.1797C27.9115 50.3932 27.9115 52.6068 29.7344 54.8203L42.2344 67.3203C43.4062 68.2318 44.5781 68.6875 45.75 68.6875C47.0521 68.6875 48.1589 68.2318 49.0703 67.3203L74.0703 42.3203C75.8932 40.1068 75.8932 37.8932 74.0703 35.6797C71.8568 33.8568 69.6432 33.8568 67.4297 35.6797Z" fill="#38C675"/>
</svg>
