<svg width="127" height="103" viewBox="0 0 127 103" fill="none" xmlns="http://www.w3.org/2000/svg">
<path d="M44.75 51.5C51.7812 51.3698 57.7057 48.9609 62.5234 44.2734C67.2109 39.4557 69.6198 33.5312 69.75 26.5C69.6198 19.4688 67.2109 13.5443 62.5234 8.72656C57.7057 4.03906 51.7812 1.63021 44.75 1.5C37.7188 1.63021 31.7943 4.03906 26.9766 8.72656C22.2891 13.5443 19.8802 19.4688 19.75 26.5C19.8802 33.5312 22.2891 39.4557 26.9766 44.2734C31.7943 48.9609 37.7188 51.3698 44.75 51.5ZM44.75 10.875C49.1771 11.0052 52.888 12.5026 55.8828 15.3672C58.7474 18.362 60.2448 22.0729 60.375 26.5C60.2448 30.9271 58.7474 34.638 55.8828 37.6328C52.888 40.4974 49.1771 41.9948 44.75 42.125C40.3229 41.9948 36.612 40.4974 33.6172 37.6328C30.7526 34.638 29.2552 30.9271 29.125 26.5C29.2552 22.0729 30.7526 18.362 33.6172 15.3672C36.612 12.5026 40.3229 11.0052 44.75 10.875ZM54.7109 60.875H34.7891C25.2839 61.1354 17.3411 64.4557 10.9609 70.8359C4.58073 77.2161 1.26042 85.1589 1 94.6641C1 96.6172 1.65104 98.2448 2.95312 99.5469C4.25521 100.849 5.88281 101.5 7.83594 101.5H81.6641C83.6172 101.5 85.2448 100.849 86.5469 99.5469C87.849 98.2448 88.5 96.6172 88.5 94.6641C88.2396 85.1589 84.9193 77.2161 78.5391 70.8359C72.1589 64.4557 64.2161 61.1354 54.7109 60.875ZM10.5703 92.125C11.3516 85.875 13.9557 80.6667 18.3828 76.5C22.9401 72.4635 28.4089 70.3802 34.7891 70.25H54.7109C61.0911 70.3802 66.4948 72.4635 70.9219 76.5C75.4792 80.6667 78.1484 85.875 78.9297 92.125H10.5703ZM94.5547 64H80.1016C84.6589 67.776 88.2396 72.2682 90.8438 77.4766C93.4479 82.8151 94.75 88.5443 94.75 94.6641C94.75 97.2682 94.099 99.5469 92.7969 101.5H119.75C121.573 101.5 123.07 100.849 124.242 99.5469C125.414 98.375 126 96.8776 126 95.0547C125.74 86.3307 122.68 79.0391 116.82 73.1797C110.961 67.3203 103.539 64.2604 94.5547 64ZM85.375 51.5C91.625 51.3698 96.7682 49.2214 100.805 45.0547C104.971 41.0182 107.12 35.875 107.25 29.625C107.12 23.375 104.971 18.2318 100.805 14.1953C96.7682 10.0286 91.625 7.88021 85.375 7.75C80.4271 7.88021 76.0651 9.3776 72.2891 12.2422C74.6328 16.5391 75.8698 21.2917 76 26.5C75.8698 33.5312 73.7865 39.7161 69.75 45.0547C73.9167 49.2214 79.125 51.3698 85.375 51.5Z" fill="#FCA500"/>
</svg>
