<svg width="50" height="50" viewBox="0 0 50 50" fill="none" xmlns="http://www.w3.org/2000/svg">
<circle cx="25" cy="25" r="25" fill="#38C675"/>
<path d="M19.3398 16.25C19.8789 16.2969 20.1602 16.5781 20.1836 17.0938V18.5H25.2812V17.0938C25.3281 16.5781 25.6094 16.2969 26.125 16.25C26.6406 16.2969 26.9219 16.5781 26.9688 17.0938V18.5H28.375C29.0078 18.5234 29.5352 18.7461 29.957 19.168C30.3789 19.5898 30.6016 20.1172 30.625 20.75V23H16.5273V32C16.5742 32.3516 16.7617 32.5391 17.0898 32.5625H24.8945C25.3164 33.2188 25.8555 33.7812 26.5117 34.25H17.125C16.4922 34.2266 15.9648 34.0039 15.543 33.582C15.1211 33.1602 14.8984 32.6328 14.875 32V20.75C14.8984 20.1172 15.1211 19.5898 15.543 19.168C15.9648 18.7461 16.4922 18.5234 17.125 18.5H18.5312V17.0938C18.5781 16.5781 18.8594 16.2969 19.375 16.25H19.3398ZM35.125 29.1875C35.0781 30.6172 34.5859 31.8125 33.6484 32.7734C32.6875 33.7109 31.4922 34.2031 30.0625 34.25C28.6328 34.2031 27.4375 33.7109 26.4766 32.7734C25.5156 31.8125 25.0117 30.6172 24.9648 29.1875C25.0117 27.7578 25.5156 26.5625 26.4766 25.6016C27.4375 24.6641 28.6328 24.1719 30.0625 24.125C31.4922 24.1719 32.6875 24.6641 33.6484 25.6016C34.5859 26.5625 35.0781 27.7578 35.125 29.1875ZM29.4648 26.9375V29.1875C29.5117 29.5391 29.6992 29.7266 30.0273 29.75H31.75C32.1016 29.7266 32.2891 29.5391 32.3125 29.1875C32.2891 28.8359 32.1016 28.6484 31.75 28.625H30.5898V26.9375C30.5664 26.5859 30.3789 26.3984 30.0273 26.375C29.6992 26.3984 29.5117 26.5859 29.4648 26.9375Z" fill="white"/>
</svg>
