<svg width="50" height="50" viewBox="0 0 50 50" fill="none" xmlns="http://www.w3.org/2000/svg">
<circle cx="25" cy="25" r="25" fill="#38C675"/>
<path d="M20.5 20.75C20.5234 19.4844 20.957 18.418 21.8008 17.5508C22.668 16.707 23.7344 16.2734 25 16.25C26.2656 16.2734 27.332 16.707 28.1992 17.5508C29.043 18.418 29.4766 19.4844 29.5 20.75V21.3125C29.4766 22.5781 29.043 23.6445 28.1992 24.5117C27.332 25.3555 26.2656 25.7891 25 25.8125C23.7344 25.7891 22.668 25.3555 21.8008 24.5117C20.957 23.6445 20.5234 22.5781 20.5 21.3125V20.75ZM27.5664 19.625H27.5312C26.7812 19.6016 26.1953 19.3086 25.7734 18.7461C25.2344 19.6602 24.4141 20.1406 23.3125 20.1875H22.2578C22.2109 20.375 22.1875 20.5625 22.1875 20.75V21.3125C22.2109 22.1094 22.4805 22.7773 22.9961 23.3164C23.5352 23.832 24.2031 24.1016 25 24.125C25.7969 24.1016 26.4648 23.832 27.0039 23.3164C27.5195 22.7773 27.7891 22.1094 27.8125 21.3125V20.75C27.8125 20.3516 27.7305 19.9766 27.5664 19.625ZM32.875 33.125C32.875 33.4531 32.7695 33.7227 32.5586 33.9336C32.3477 34.1445 32.0781 34.25 31.75 34.25H18.25C17.9219 34.25 17.6523 34.1445 17.4414 33.9336C17.2305 33.7227 17.125 33.4531 17.125 33.125V32.8438C17.1484 31.3438 17.6289 30.0547 18.5664 28.9766C19.4805 27.9219 20.6641 27.2656 22.1172 27.0078L25 30.875L27.8828 27.0078C29.3359 27.2656 30.5195 27.9219 31.4336 28.9766C32.3711 30.0547 32.8516 31.3438 32.875 32.8438V33.125ZM21.4492 28.9414C20.6992 29.2461 20.0898 29.7148 19.6211 30.3477C19.1523 30.9805 18.8828 31.7188 18.8125 32.5625H24.1211L21.4492 28.9414ZM28.5508 28.9414L25.8438 32.5625H31.1875C31.1172 31.7188 30.8477 30.9805 30.3789 30.3477C29.9102 29.7148 29.3008 29.2461 28.5508 28.9414Z" fill="white"/>
</svg>
