<svg width="50" height="50" viewBox="0 0 50 50" fill="none" xmlns="http://www.w3.org/2000/svg">
<circle cx="25" cy="25" r="25" fill="#38C675"/>
<path d="M32.3125 25.25C32.2656 25.7656 31.9844 26.0469 31.4688 26.0938H25.8438V31.7188C25.7969 32.2344 25.5156 32.5156 25 32.5625C24.4844 32.5156 24.2031 32.2344 24.1562 31.7188V26.0938H18.5312C18.0156 26.0469 17.7344 25.7656 17.6875 25.25C17.7344 24.7344 18.0156 24.4531 18.5312 24.4062H24.1562V18.7812C24.2031 18.2656 24.4844 17.9844 25 17.9375C25.5156 17.9844 25.7969 18.2656 25.8438 18.7812V24.4062H31.4688C31.9844 24.4531 32.2656 24.7344 32.3125 25.25Z" fill="white"/>
</svg>
