<svg width="50" height="50" viewBox="0 0 50 50" fill="none" xmlns="http://www.w3.org/2000/svg">
<circle cx="25" cy="25" r="25" fill="#FE5050"/>
<path d="M32.8125 18.625H29.9219L28.5938 16.3984C28.2031 15.8255 27.6562 15.526 26.9531 15.5H23.0469C22.3438 15.526 21.7969 15.8255 21.4062 16.3984L20.0781 18.625H17.1484C16.6016 18.6771 16.3021 18.9766 16.25 19.5234C16.25 19.7839 16.3411 20.0052 16.5234 20.1875C16.7057 20.3958 16.9141 20.5 17.1484 20.5H17.5L18.3203 33.7422C18.3724 34.237 18.5677 34.6536 18.9062 34.9922C19.2708 35.3307 19.7005 35.5 20.1953 35.5H29.8047C30.2995 35.5 30.7292 35.3307 31.0938 34.9922C31.4323 34.6536 31.6276 34.237 31.6797 33.7422L32.5 20.5H32.8125C33.3854 20.4479 33.6979 20.1354 33.75 19.5625C33.6979 18.9896 33.3854 18.6771 32.8125 18.625ZM23.0469 17.375H26.9531L27.7344 18.625H22.2656L23.0469 17.375ZM29.8047 33.625H20.1953L19.375 20.5H30.625L29.8047 33.625Z" fill="white"/>
</svg>
