<svg width="50" height="50" viewBox="0 0 50 50" fill="none" xmlns="http://www.w3.org/2000/svg">
<circle cx="25" cy="25" r="25" fill="#3EAEFF"/>
<path d="M28.4375 32.375H31.25C31.7708 32.349 32.2135 32.1667 32.5781 31.8281C32.9167 31.4635 33.099 31.0208 33.125 30.5V20.5C33.099 19.9792 32.9167 19.5365 32.5781 19.1719C32.2135 18.8333 31.7708 18.651 31.25 18.625H28.4375C27.8646 18.5729 27.5521 18.2604 27.5 17.6875C27.5521 17.1146 27.8646 16.8021 28.4375 16.75H31.25C32.3177 16.776 33.2031 17.1406 33.9062 17.8438C34.6094 18.5469 34.974 19.4323 35 20.5V30.5C34.974 31.5677 34.6094 32.4531 33.9062 33.1562C33.2031 33.8594 32.3177 34.224 31.25 34.25H28.4375C27.8646 34.1979 27.5521 33.8854 27.5 33.3125C27.5521 32.7396 27.8646 32.4271 28.4375 32.375ZM15.3125 24.8359L21.25 19.5625C21.6927 19.224 22.1745 19.1589 22.6953 19.3672C23.1641 19.6016 23.4115 19.9922 23.4375 20.5391V22.6875H28.125C28.5677 22.6875 28.9323 22.8438 29.2188 23.1562C29.5312 23.4427 29.6875 23.8073 29.6875 24.25V26.75C29.6875 27.1927 29.5312 27.5573 29.2188 27.8438C28.9323 28.1562 28.5677 28.3125 28.125 28.3125H23.4375V30.4609C23.4115 31.0078 23.1641 31.3984 22.6953 31.6328C22.513 31.7109 22.3307 31.75 22.1484 31.75C21.8099 31.75 21.5104 31.6458 21.25 31.4375L15.3125 26.2031C15.1042 26.0208 15 25.7995 15 25.5391C15 25.2526 15.1042 25.0182 15.3125 24.8359ZM21.5625 29.1719V26.3984H27.8125V24.5234H21.5625V21.7891L17.3438 25.5L21.5625 29.1719Z" fill="white"/>
</svg>
