<svg width="50" height="50" viewBox="0 0 50 50" fill="none" xmlns="http://www.w3.org/2000/svg">
<circle cx="25" cy="25" r="25" fill="#FF9700"/>
<path d="M26.0195 16.8828L28.3047 21.5234L33.4727 22.2617C33.9414 22.3789 34.2344 22.6367 34.3516 23.0352C34.4922 23.457 34.3984 23.8438 34.0703 24.1953L30.3438 27.7812L31.2227 32.9141C31.293 33.3828 31.1523 33.7461 30.8008 34.0039C30.4492 34.2617 30.0508 34.2852 29.6055 34.0742L25 31.7188L20.3945 34.1094C19.9492 34.3203 19.5508 34.2969 19.1992 34.0391C18.8477 33.7812 18.707 33.418 18.7773 32.9492L19.6562 27.8164L15.9297 24.1953C15.6016 23.8438 15.5078 23.457 15.6484 23.0352C15.7656 22.6367 16.0586 22.3906 16.5273 22.2969L21.6953 21.5234L23.9805 16.8828C24.2383 16.4609 24.5781 16.25 25 16.25C25.4453 16.25 25.7852 16.4609 26.0195 16.8828Z" fill="white"/>
</svg>
