<svg width="50" height="50" viewBox="0 0 50 50" fill="none" xmlns="http://www.w3.org/2000/svg">
<circle cx="25" cy="25" r="25" fill="#FE5050"/>
<path d="M33.0469 17.9609C32.1094 17.1276 31.0286 16.724 29.8047 16.75C28.2682 16.776 26.9271 17.349 25.7812 18.4688L25 19.25L24.2188 18.4688C23.0729 17.349 21.7318 16.776 20.1953 16.75C18.9974 16.75 17.9036 17.1536 16.9141 17.9609C15.6901 19.0807 15.0521 20.4089 15 21.9453C14.9479 23.5078 15.4688 24.875 16.5625 26.0469L24.1016 33.8594C24.362 34.1198 24.6615 34.25 25 34.25C25.3385 34.25 25.638 34.1198 25.8984 33.8594L33.4375 26.0469C34.5312 24.849 35.0521 23.4818 35 21.9453C34.9219 20.4089 34.2708 19.0807 33.0469 17.9609ZM32.1094 24.7578L25 32.1016L17.8906 24.7578C17.2396 24.0547 16.901 23.1823 16.875 22.1406C16.849 21.099 17.2656 20.1745 18.125 19.3672C18.9583 18.7422 19.8177 18.5078 20.7031 18.6641C21.5885 18.8203 22.3177 19.1849 22.8906 19.7578L25 21.9453L27.1094 19.7578C27.6562 19.2109 28.3854 18.8464 29.2969 18.6641C30.1823 18.4818 31.0417 18.7161 31.875 19.3672C32.7344 20.1745 33.151 21.099 33.125 22.1406C33.099 23.1823 32.7604 24.0547 32.1094 24.7578Z" fill="white"/>
</svg>
