<svg width="50" height="50" viewBox="0 0 50 50" fill="none" xmlns="http://www.w3.org/2000/svg">
<circle cx="25" cy="25" r="25" fill="#FCA500"/>
<path d="M31.5391 20.7148C31.2109 20.3164 30.6836 19.8594 29.957 19.3438C29.2305 18.8047 28.3164 18.4297 27.2148 18.2188C26.3945 18.125 25.6562 18.3359 25 18.8516C24.3438 18.3594 23.6055 18.1602 22.7852 18.2539C21.8242 18.418 21.0039 18.7227 20.3242 19.168C19.6445 19.6133 19.1172 20.0352 18.7422 20.4336C18.3672 20.8555 18.168 21.0898 18.1445 21.1367C17.8633 21.582 17.9219 21.9805 18.3203 22.332C18.4609 22.4258 18.625 22.4727 18.8125 22.4727C19.0938 22.4727 19.3164 22.3672 19.4805 22.1562C19.5039 22.0625 19.832 21.7227 20.4648 21.1367C21.0977 20.5508 21.9531 20.1406 23.0312 19.9062C23.2891 19.8828 23.5352 19.9414 23.7695 20.082L21.7305 22.1562C21.2852 22.6016 21.0508 23.1523 21.0273 23.8086C21.0273 24.4414 21.25 24.9805 21.6953 25.4258C22.1875 25.8477 22.7383 26.0586 23.3477 26.0586C23.9805 26.0586 24.5312 25.8359 25 25.3906L25.3867 25.0039L29.7461 28.5195C29.8398 28.6133 29.8516 28.707 29.7812 28.8008L28.7969 30.0664C28.7266 30.1602 28.6445 30.1719 28.5508 30.1016L27.7773 29.4688L26.8633 30.418C26.7461 30.5117 26.6641 30.5586 26.6172 30.5586C26.5469 30.582 26.4648 30.5586 26.3711 30.4883L25.2109 29.5391L24.6836 30.0312L24.5781 30.1367C24.3672 30.3945 24.0977 30.5469 23.7695 30.5938C23.418 30.6172 23.125 30.5352 22.8906 30.3477L19.7266 27.5H17.125V20.75H13.75V29.75H16C16.4219 29.7266 16.7383 29.5391 16.9492 29.1875H19.0938L21.8008 31.6133C22.3398 32.0586 22.9492 32.2812 23.6289 32.2812C23.7227 32.2812 23.8164 32.2812 23.9102 32.2812C24.4023 32.2109 24.8477 32.0469 25.2461 31.7891L25.2812 31.8242C25.7266 32.1758 26.2305 32.3281 26.793 32.2812C27.2617 32.2109 27.6484 32.0234 27.9531 31.7188C28.3516 31.8594 28.7383 31.8828 29.1133 31.7891C29.5117 31.6953 29.8516 31.4844 30.1328 31.1562L31.082 29.8906C31.4102 29.4688 31.5508 29.0117 31.5039 28.5195C31.457 28.0273 31.2344 27.6055 30.8359 27.2539L26.582 23.8086L26.8984 23.5273C27.2266 23.1289 27.2266 22.7305 26.8984 22.332C26.5 22.0039 26.1016 22.0039 25.7031 22.332L23.8047 24.2305C23.5 24.4648 23.207 24.4648 22.9258 24.2305C22.8086 24.1133 22.75 23.9609 22.75 23.7734C22.75 23.6094 22.8086 23.4688 22.9258 23.3516L25.9492 20.2578C26.2539 19.9766 26.5938 19.8594 26.9688 19.9062C28.0469 20.1406 28.9023 20.5508 29.5352 21.1367C30.168 21.7227 30.4961 22.0625 30.5195 22.1562C30.6367 22.2969 30.7773 22.3906 30.9414 22.4375H32.875V28.5898C32.875 28.918 32.9805 29.1875 33.1914 29.3984C33.4023 29.6094 33.6602 29.7148 33.9648 29.7148L36.25 29.75V20.75L31.5391 20.7148ZM15.4375 28.625C15.0859 28.6016 14.8984 28.4141 14.875 28.0625C14.8984 27.7109 15.0859 27.5234 15.4375 27.5C15.7891 27.5234 15.9766 27.7109 16 28.0625C15.9766 28.4141 15.7891 28.6016 15.4375 28.625ZM34.5625 28.625C34.2109 28.6016 34.0234 28.4141 34 28.0625C34.0234 27.7109 34.2109 27.5234 34.5625 27.5C34.9141 27.5234 35.1016 27.7109 35.125 28.0625C35.1016 28.4141 34.9141 28.6016 34.5625 28.625Z" fill="white"/>
</svg>
