<svg width="50" height="50" viewBox="0 0 50 50" fill="none" xmlns="http://www.w3.org/2000/svg">
<circle cx="25" cy="25" r="25" fill="#FF9700"/>
<path d="M33.4375 17.9727L32.2773 16.8125C31.8789 16.4375 31.4102 16.25 30.8711 16.25C30.3555 16.25 29.8984 16.4375 29.5 16.8125L21.9062 24.4414C21.6016 24.6992 21.4141 25.0156 21.3438 25.3906L20.5 29.1523C20.5 29.5039 20.6523 29.7031 20.957 29.75C20.9805 29.75 21.0156 29.75 21.0625 29.75C21.0859 29.75 21.3203 29.6914 21.7656 29.5742C22.2344 29.4805 22.7617 29.375 23.3477 29.2578C23.9336 29.1172 24.4258 29 24.8242 28.9062C25.1992 28.8125 25.5156 28.6367 25.7734 28.3789L33.4023 20.75C33.8008 20.3516 34 19.8945 34 19.3789C34 18.8398 33.8125 18.3711 33.4375 17.9727ZM32.2422 19.5547L24.6133 27.1836C24.5664 27.2305 24.5195 27.2539 24.4727 27.2539C23.957 27.3945 23.3242 27.5469 22.5742 27.7109L22.9961 25.7422C23.0195 25.6953 23.043 25.6602 23.0664 25.6367L30.6953 18.0078C30.7656 17.9609 30.8242 17.9375 30.8711 17.9375C30.9414 17.9375 31.0117 17.9609 31.082 18.0078L32.2422 19.168C32.3359 19.3086 32.3359 19.4375 32.2422 19.5547ZM30.9062 26.375C30.3906 26.4219 30.1094 26.7031 30.0625 27.2188V31.7188C30.0156 32.2344 29.7344 32.5156 29.2188 32.5625H18.5312C18.0156 32.5156 17.7344 32.2344 17.6875 31.7188V21.0312C17.7344 20.5156 18.0156 20.2344 18.5312 20.1875H23.5938C24.1094 20.1406 24.3906 19.8594 24.4375 19.3438C24.3906 18.8281 24.1094 18.5469 23.5938 18.5H18.4961C17.793 18.5234 17.207 18.7695 16.7383 19.2383C16.2695 19.707 16.0234 20.293 16 20.9961V31.6836C16.0234 32.4102 16.2695 33.0195 16.7383 33.5117C17.207 33.9805 17.793 34.2266 18.4961 34.25H29.1484C29.875 34.2266 30.4727 33.9805 30.9414 33.5117C31.4102 33.043 31.6445 32.4453 31.6445 31.7188L31.75 27.2188C31.7031 26.7031 31.4219 26.4219 30.9062 26.375Z" fill="white"/>
</svg>
