<svg width="88" height="88" viewBox="0 0 88 88" fill="none" xmlns="http://www.w3.org/2000/svg">
<path d="M49 24V4H21.5C19.4167 4.10417 17.6458 4.83333 16.1875 6.1875C14.8333 7.64583 14.1042 9.41667 14 11.5V76.5C14.1042 78.5833 14.8333 80.3542 16.1875 81.8125C17.6458 83.1667 19.4167 83.8958 21.5 84H66.5C68.5833 83.8958 70.3542 83.1667 71.8125 81.8125C73.1667 80.3542 73.8958 78.5833 74 76.5V29H54.1562C52.6979 29 51.4479 28.5312 50.4062 27.5938C49.4688 26.6562 49 25.4583 49 24ZM29 39C30.4583 39 31.6562 39.4688 32.5938 40.4062C33.5312 41.3438 34 42.5417 34 44C34 45.4583 33.5312 46.6562 32.5938 47.5938C31.6562 48.5312 30.4583 49 29 49C27.5417 49 26.3438 48.5312 25.4062 47.5938C24.4688 46.6562 24 45.4583 24 44C24 42.5417 24.4688 41.3438 25.4062 40.4062C26.3438 39.4688 27.5417 39 29 39ZM63.6875 72.75C63.1667 73.5833 62.4375 74 61.5 74H26.5C25.5625 74 24.8333 73.5833 24.3125 72.75C23.8958 71.8125 23.9479 70.9271 24.4688 70.0938L32.75 57.5938C33.1667 56.8646 33.8438 56.5 34.7812 56.5C35.7188 56.5 36.4479 56.8646 36.9688 57.5938L39 60.7188L46.0312 50.0938C46.5521 49.3646 47.2812 49 48.2188 49C49.0521 49 49.7292 49.3646 50.25 50.0938L63.5312 70.0938C64.0521 70.9271 64.1042 71.8125 63.6875 72.75ZM54 4V24H74L54 4Z" fill="#0693E3"/>
</svg>
