<svg width="60" height="80" viewBox="0 0 60 80" fill="none" xmlns="http://www.w3.org/2000/svg">
<path d="M28.75 32.5C28.6458 31.7708 28.2292 31.3542 27.5 31.25C26.7708 31.3542 26.3542 31.7708 26.25 32.5C26.25 32.7083 26.3021 33.5417 26.4062 35C26.6146 36.4583 27.0312 38.2292 27.6562 40.3125C27.8646 39.5833 28.0729 38.4896 28.2812 37.0312C28.5938 35.4688 28.75 33.9583 28.75 32.5ZM40 0V20H60L40 0ZM12.5 65.9375C12.6042 66.7708 12.9167 67.2396 13.4375 67.3438C13.9583 67.5521 14.375 67.4479 14.6875 67.0312C15.5208 65.8854 16.875 63.8021 18.75 60.7812C16.5625 61.9271 14.5833 63.3854 12.8125 65.1562C12.6042 65.3646 12.5 65.625 12.5 65.9375ZM35 20V0H7.5C5.41667 0.104167 3.64583 0.833333 2.1875 2.1875C0.833333 3.64583 0.104167 5.41667 0 7.5V72.5C0.104167 74.5833 0.833333 76.3542 2.1875 77.8125C3.64583 79.1667 5.41667 79.8958 7.5 80H52.5C54.5833 79.8958 56.3542 79.1667 57.8125 77.8125C59.1667 76.3542 59.8958 74.5833 60 72.5V25H40.1562C38.6979 25 37.4479 24.5312 36.4062 23.5938C35.4688 22.6562 35 21.4583 35 20ZM45.625 48.75C47.6042 48.75 49.2188 49.4271 50.4688 50.7812C51.8229 52.0312 52.5 53.6458 52.5 55.625C52.5 57.6042 51.875 59.2188 50.625 60.4688C49.2708 61.8229 47.6562 62.5 45.7812 62.5C44.8438 62.5 43.9583 62.3438 43.125 62.0312C39.8958 60.9896 37.0312 59.5833 34.5312 57.8125C30.7812 58.6458 27.4479 59.6354 24.5312 60.7812C22.1354 64.9479 20.2083 67.9688 18.75 69.8438C17.5 71.6146 15.8333 72.5 13.75 72.5C11.9792 72.5 10.5208 71.875 9.375 70.625C8.125 69.4792 7.5 68.0208 7.5 66.25C7.5 64.375 8.07292 62.8646 9.21875 61.7188C11.8229 59.1146 15.1042 56.875 19.0625 55C20.9375 51.3542 22.5521 47.7083 23.9062 44.0625C22.6562 40.9375 21.875 38.2292 21.5625 35.9375C21.3542 33.75 21.25 32.6042 21.25 32.5C21.25 30.7292 21.875 29.2708 23.125 28.125C24.2708 26.875 25.7292 26.25 27.5 26.25C29.2708 26.25 30.7292 26.875 31.875 28.125C33.125 29.2708 33.75 30.7292 33.75 32.5C33.75 34.4792 33.5417 36.4583 33.125 38.4375C32.8125 40.3125 32.5521 41.6146 32.3438 42.3438C32.2396 42.8646 32.0833 43.3333 31.875 43.75C33.125 46.0417 34.6354 48.0208 36.4062 49.6875C41.3021 49.0625 44.1667 48.75 45 48.75H45.625ZM24.5312 55.4688C27.3438 54.4271 30.0521 53.5938 32.6562 52.9688C30.7812 51.0938 29.2708 49.1146 28.125 47.0312C26.875 50.0521 25.6771 52.8646 24.5312 55.4688ZM45.7812 57.5C46.8229 57.3958 47.3958 56.8229 47.5 55.7812C47.3958 54.5312 46.7708 53.8542 45.625 53.75H45C44.4792 53.75 42.3438 54.0104 38.5938 54.5312C40.3646 55.5729 42.3958 56.5104 44.6875 57.3438C45 57.4479 45.3646 57.5 45.7812 57.5Z" fill="#FE5050"/>
</svg>
