<svg width="60" height="80" viewBox="0 0 60 80" fill="none" xmlns="http://www.w3.org/2000/svg">
<path d="M13.75 47.5H12.5V40H13.75C16.0417 40.2083 17.2917 41.4583 17.5 43.75C17.2917 46.0417 16.0417 47.2917 13.75 47.5ZM30 40H31.25C32.8125 40.1042 33.6458 40.9375 33.75 42.5V52.5C33.6458 54.0625 32.8125 54.8958 31.25 55H30V40ZM35 0V20C35 21.4583 35.4688 22.6562 36.4062 23.5938C37.3438 24.5312 38.5417 25 40 25H60V70C59.8958 72.8125 58.9062 75.1562 57.0312 77.0312C55.1562 78.9062 52.8125 79.8958 50 80H10C7.1875 79.8958 4.84375 78.9062 2.96875 77.0312C1.09375 75.1562 0.104167 72.8125 0 70V10C0.104167 7.1875 1.09375 4.84375 2.96875 2.96875C4.84375 1.09375 7.1875 0.104167 10 0H35ZM10 35C8.4375 35.1042 7.60417 35.9375 7.5 37.5V57.5C7.60417 59.0625 8.4375 59.8958 10 60C11.5625 59.8958 12.3958 59.0625 12.5 57.5V52.5H13.75C16.25 52.3958 18.3333 51.5625 20 50C21.5625 48.3333 22.3958 46.25 22.5 43.75C22.3958 41.25 21.5625 39.1667 20 37.5C18.3333 35.9375 16.25 35.1042 13.75 35H10ZM25 57.5C25.1042 59.0625 25.9375 59.8958 27.5 60H31.25C33.3333 59.8958 35.1042 59.1667 36.5625 57.8125C37.9167 56.3542 38.6458 54.5833 38.75 52.5V42.5C38.6458 40.4167 37.9167 38.6458 36.5625 37.1875C35.1042 35.8333 33.3333 35.1042 31.25 35H27.5C25.9375 35.1042 25.1042 35.9375 25 37.5V57.5ZM45 35C43.4375 35.1042 42.6042 35.9375 42.5 37.5V57.5C42.6042 59.0625 43.4375 59.8958 45 60C46.5625 59.8958 47.3958 59.0625 47.5 57.5V50H52.5C54.0625 49.8958 54.8958 49.0625 55 47.5C54.8958 45.9375 54.0625 45.1042 52.5 45H47.5V40H52.5C54.0625 39.8958 54.8958 39.0625 55 37.5C54.8958 35.9375 54.0625 35.1042 52.5 35H45ZM40 0L60 20H40V0Z" fill="#FE5050"/>
</svg>
