<svg width="24" height="24" viewBox="0 0 24 24" fill="none" xmlns="http://www.w3.org/2000/svg">
<path d="M12 2.5C12.7292 2.5 13.3802 2.68229 13.9531 3.04688C14.526 3.41146 14.9818 3.89323 15.3203 4.49219C15.9714 4.28385 16.6224 4.25781 17.2734 4.41406C17.9245 4.57031 18.5234 4.90885 19.0703 5.42969C19.5651 5.95052 19.8906 6.53646 20.0469 7.1875C20.2031 7.86458 20.1901 8.52865 20.0078 9.17969C20.6068 9.51823 21.0885 9.97396 21.4531 10.5469C21.8177 11.1198 22 11.7708 22 12.5C22 13.2292 21.8177 13.8802 21.4531 14.4531C21.0885 15.026 20.6068 15.4818 20.0078 15.8203C20.3984 17.1745 20.0859 18.4245 19.0703 19.5703C18.5234 20.0651 17.9245 20.3906 17.2734 20.5469C16.6224 20.7031 15.9714 20.6901 15.3203 20.5078C14.9818 21.1068 14.526 21.5885 13.9531 21.9531C13.3802 22.3177 12.7292 22.5 12 22.5C11.2708 22.5 10.6198 22.3177 10.0469 21.9531C9.47396 21.5885 9.01823 21.1068 8.67969 20.5078C8.02865 20.6901 7.36458 20.7031 6.6875 20.5469C6.03646 20.4167 5.45052 20.0911 4.92969 19.5703C3.91406 18.4245 3.60156 17.1745 3.99219 15.8203C3.39323 15.4818 2.91146 15.026 2.54688 14.4531C2.18229 13.8802 2 13.2292 2 12.5C2 11.7708 2.18229 11.1198 2.54688 10.5469C2.91146 9.97396 3.39323 9.51823 3.99219 9.17969C3.78385 8.52865 3.75781 7.86458 3.91406 7.1875C4.07031 6.53646 4.40885 5.95052 4.92969 5.42969C5.45052 4.90885 6.03646 4.57031 6.6875 4.41406C7.36458 4.28385 8.02865 4.3099 8.67969 4.49219C9.01823 3.89323 9.47396 3.41146 10.0469 3.04688C10.6198 2.68229 11.2708 2.5 12 2.5ZM15.75 11.25C16.1406 10.8333 16.1406 10.4036 15.75 9.96094C15.3333 9.59635 14.9036 9.59635 14.4609 9.96094L10.75 13.6719L9.1875 12.1484C8.77083 11.7839 8.34115 11.7839 7.89844 12.1484C7.53385 12.5911 7.53385 13.0208 7.89844 13.4375L10.0859 15.625C10.5286 16.0156 10.9583 16.0156 11.375 15.625L15.75 11.25Z" fill="#3EAEFF"/>
</svg>
