<svg width="30" height="30" viewBox="0 0 30 30" fill="none" xmlns="http://www.w3.org/2000/svg">
<circle cx="15" cy="15" r="15" fill="#2F2F2F" fill-opacity="0.7"/>
<path d="M11.0625 16.375C11.0859 15.25 11.4727 14.3242 12.2227 13.5977C12.9492 12.8477 13.875 12.4609 15 12.4375C16.125 12.4609 17.0508 12.8477 17.7773 13.5977C18.5273 14.3242 18.9141 15.25 18.9375 16.375C18.9141 17.5 18.5273 18.4258 17.7773 19.1523C17.0508 19.9023 16.125 20.2891 15 20.3125C13.875 20.2891 12.9492 19.9023 12.2227 19.1523C11.4727 18.4258 11.0859 17.5 11.0625 16.375ZM15 14.125C14.3672 14.1484 13.8398 14.3711 13.418 14.793C12.9961 15.2148 12.7734 15.7422 12.75 16.375C12.7734 17.0078 12.9961 17.5352 13.418 17.957C13.8398 18.3789 14.3672 18.6016 15 18.625C15.6328 18.6016 16.1602 18.3789 16.582 17.957C17.0039 17.5352 17.2266 17.0078 17.25 16.375C17.2266 15.7422 17.0039 15.2148 16.582 14.793C16.1602 14.3711 15.6328 14.1484 15 14.125ZM18.7617 8.53516L19.1133 9.625H21.75C22.3828 9.64844 22.9102 9.87109 23.332 10.293C23.7539 10.7148 23.9766 11.2422 24 11.875V20.875C23.9766 21.5078 23.7539 22.0352 23.332 22.457C22.9102 22.8789 22.3828 23.1016 21.75 23.125H8.25C7.61719 23.1016 7.08984 22.8789 6.66797 22.457C6.24609 22.0352 6.02344 21.5078 6 20.875V11.875C6.02344 11.2422 6.24609 10.7148 6.66797 10.293C7.08984 9.87109 7.61719 9.64844 8.25 9.625H10.8867L11.2383 8.53516C11.5195 7.80859 12.0586 7.42187 12.8555 7.375H17.1445C17.9414 7.42187 18.4805 7.80859 18.7617 8.53516ZM8.25 11.3125C7.89844 11.3359 7.71094 11.5234 7.6875 11.875V20.875C7.71094 21.2266 7.89844 21.4141 8.25 21.4375H21.75C22.1016 21.4141 22.2891 21.2266 22.3125 20.875V11.875C22.2891 11.5234 22.1016 11.3359 21.75 11.3125H17.918L17.1445 9.0625H12.8555L12.082 11.3125H8.25Z" fill="white"/>
</svg>
