<svg width="31" height="41" viewBox="0 0 31 41" fill="none" xmlns="http://www.w3.org/2000/svg">
<path d="M25.5 36.4844C26.2812 36.4323 26.6979 36.0156 26.75 35.2344V32.7344H30.5V35.2344C30.4479 36.6406 29.9531 37.8125 29.0156 38.75C28.0781 39.6875 26.9062 40.1823 25.5 40.2344H5.5C4.09375 40.1823 2.92188 39.6875 1.98438 38.75C1.04688 37.8125 0.552083 36.6406 0.5 35.2344V32.7344H4.25V35.2344C4.30208 36.0156 4.71875 36.4323 5.5 36.4844H25.5ZM20.5 12.7344C19.7708 12.7344 19.1719 12.5 18.7031 12.0312C18.2344 11.5625 18 10.9635 18 10.2344V3.98438H5.5C4.71875 4.03646 4.30208 4.45312 4.25 5.23438V15.2344H0.5V5.23438C0.552083 3.82812 1.04688 2.65625 1.98438 1.71875C2.92188 0.78125 4.09375 0.286458 5.5 0.234375H18.4688C19.8229 0.234375 20.9948 0.729167 21.9844 1.71875L29.0156 8.75C30.0052 9.73958 30.5 10.9375 30.5 12.3438V15.2344H26.75V12.7344H20.5ZM7.375 17.7344C8.625 17.7865 9.66667 18.2031 10.5 18.9844C11.2812 19.8177 11.6979 20.8594 11.75 22.1094C11.6979 23.3594 11.2812 24.401 10.5 25.2344C9.66667 26.0156 8.625 26.4323 7.375 26.4844H6.75V28.9844C6.69792 29.7656 6.28125 30.1823 5.5 30.2344C4.71875 30.1823 4.30208 29.7656 4.25 28.9844V18.9844C4.30208 18.2031 4.71875 17.7865 5.5 17.7344H7.375ZM9.25 22.1094C9.14583 20.9635 8.52083 20.3385 7.375 20.2344H6.75V23.9844H7.375C8.52083 23.8802 9.14583 23.2552 9.25 22.1094ZM13 18.9844C13.0521 18.2031 13.4688 17.7865 14.25 17.7344H16.125C17.1667 17.7865 18.0521 18.151 18.7812 18.8281C19.4583 19.5573 19.8229 20.4427 19.875 21.4844V26.4844C19.8229 27.526 19.4583 28.4115 18.7812 29.1406C18.0521 29.8177 17.1667 30.1823 16.125 30.2344H14.25C13.4688 30.1823 13.0521 29.7656 13 28.9844V18.9844ZM15.5 27.7344H16.125C16.9062 27.6823 17.3229 27.2656 17.375 26.4844V21.4844C17.3229 20.7031 16.9062 20.2865 16.125 20.2344H15.5V27.7344ZM26.75 17.7344C27.5312 17.7865 27.9479 18.2031 28 18.9844C27.9479 19.7656 27.5312 20.1823 26.75 20.2344H24.25V22.7344H26.75C27.5312 22.7865 27.9479 23.2031 28 23.9844C27.9479 24.7656 27.5312 25.1823 26.75 25.2344H24.25V28.9844C24.1979 29.7656 23.7812 30.1823 23 30.2344C22.2188 30.1823 21.8021 29.7656 21.75 28.9844V18.9844C21.8021 18.2031 22.2188 17.7865 23 17.7344H26.75Z" fill="#868E96"/>
</svg>
